<?xml version="1.0" encoding="utf-8"?>
<!-- Generator: Adobe Illustrator 23.0.5, SVG Export Plug-In . SVG Version: 6.00 Build 0)  -->
<svg version="1.1" id="Layer_1" xmlns="http://www.w3.org/2000/svg" xmlns:xlink="http://www.w3.org/1999/xlink" x="0px" y="0px"
	 viewBox="0 0 67.92 70.3" style="enable-background:new 0 0 67.92 70.3;" xml:space="preserve">
<style type="text/css">
	.st0{fill:none;stroke:#FFFFFF;stroke-width:3;stroke-miterlimit:10;}
	.st1{fill:#065D80;}
	.st2{fill:#FFFFFF;}
</style>
<g>
	<path class="st0" d="M59.3,35.15c0,14-11.35,25.35-25.35,25.35S8.61,49.15,8.61,35.15c0-14,11.35-25.35,25.35-25.35
		S59.3,21.15,59.3,35.15z"/>
	<path class="st1" d="M11.95,34.74c0-0.88-0.02-1.76,0-2.64c0.05-1.68,0.88-2.56,2.55-2.48c1.08,0.05,1.46-0.33,1.82-1.32
		c2.72-7.44,9.72-12.27,17.65-12.28c7.82-0.01,14.81,4.8,17.58,12.21c0.37,0.99,0.75,1.46,1.9,1.4c1.59-0.09,2.45,0.8,2.48,2.39
		c0.04,1.89,0.04,3.78,0,5.67c-0.03,1.42-0.89,2.3-2.3,2.37c-1.23,0.06-2.46,0.01-3.69,0.02c-0.44,0-0.8-0.01-0.61-0.65
		c2.7-8.96-2.76-18.23-11.86-20.3c-9.13-2.08-18.09,4.11-19.43,13.36c-1.22,8.43,4.19,16.2,12.55,18.06
		c0.69,0.15,1.18,0.16,1.76-0.41c1.03-1.02,2.47-0.89,3.39,0.15c0.89,0.99,0.78,2.55-0.25,3.42c-1.02,0.87-2.51,0.77-3.4-0.33
		c-0.39-0.48-0.78-0.71-1.39-0.83c-6.58-1.33-11.12-5.14-13.63-11.35c-0.29-0.71-0.51-1.15-1.43-1.15
		c-3.32,0.01-3.71-0.43-3.71-3.72C11.95,35.79,11.95,35.27,11.95,34.74L11.95,34.74z"/>
	<path class="st2" d="M32.99,21.44c10.82,0,17.26,10.3,12.98,19.21c-0.4,0.83-0.46,1.53-0.19,2.37c0.41,1.29,0.69,2.63,1.08,3.93
		c0.27,0.89-0.07,1.01-0.81,0.76c-0.08-0.03-0.17-0.06-0.25-0.08c-2.76-0.86-5.29-1.12-8.32-0.07c-5.26,1.83-10.13,0.13-13.74-4.16
		c-3.58-4.24-4.22-9.13-1.91-14.17C24.19,24.12,28.45,21.69,32.99,21.44 M45.05,34.71c0.06-1.14-0.18-2.26-0.53-3.35
		c-1.92-5.97-8.52-9.16-14.46-6.97c-5.94,2.18-8.83,9-6.32,14.85c2.48,5.78,9.44,8.42,15.01,5.55c1.38-0.71,2.56-0.91,3.93-0.37
		c1.17,0.46,1.19-0.09,0.85-0.94c-0.53-1.34-0.42-2.51,0.38-3.81C44.81,38.21,45.13,36.48,45.05,34.71"/>
	<path class="st2" d="M30.16,34.83c-0.03,1.26-1.15,2.35-2.39,2.32c-1.28-0.03-2.32-1.14-2.27-2.42c0.05-1.3,1.13-2.29,2.44-2.23
		C29.17,32.56,30.19,33.62,30.16,34.83"/>
	<path class="st2" d="M33.94,37.16c-1.24-0.01-2.35-1.15-2.33-2.39c0.03-1.27,1.13-2.31,2.42-2.26c1.23,0.04,2.25,1.07,2.26,2.29
		C36.3,36.04,35.17,37.17,33.94,37.16"/>
	<path class="st2" d="M40.09,32.5c1.3,0,2.32,1.04,2.3,2.36c-0.01,1.22-1.05,2.26-2.27,2.29c-1.27,0.03-2.37-1.04-2.39-2.32
		C37.72,33.57,38.79,32.5,40.09,32.5"/>
</g>
</svg>
