<?xml version="1.0" encoding="utf-8"?>
<!-- Generator: Adobe Illustrator 23.0.5, SVG Export Plug-In . SVG Version: 6.00 Build 0)  -->
<svg version="1.1" id="Layer_1" xmlns="http://www.w3.org/2000/svg" xmlns:xlink="http://www.w3.org/1999/xlink" x="0px" y="0px"
	 viewBox="0 0 50.21 45.74" style="enable-background:new 0 0 50.21 45.74;" xml:space="preserve">
<style type="text/css">
	.st0{fill:#065D80;}
</style>
<path class="st0" d="M37.05,16.62c1.18-1.91,2.26-3.63,3.31-5.37c1.08-1.78,2.53-2.04,4.3-0.74c0.36,0.26,0.69,0.57,1.07,0.8
	c2.41,1.44,2.47,1.63,1.06,3.92c-3.18,5.18-6.33,10.37-9.55,15.52c-0.33,0.54-0.35,1.04-0.36,1.57c-0.02,1.73,0.02,3.46-0.02,5.19
	c-0.03,1.66-0.73,2.37-2.46,2.38c-7.72,0.02-15.43,0.02-23.15,0c-1.77,0-2.51-0.68-2.52-2.32c-0.02-10.76-0.02-21.52,0-32.28
	c0-1.67,0.72-2.36,2.47-2.37C17.45,2.89,23.7,2.9,29.94,2.9c0.12,0,0.24-0.01,0.35,0c1.43,0.15,6.57,5.5,6.58,6.85
	c0.01,2.12,0.01,4.24,0.01,6.35C36.89,16.21,36.95,16.31,37.05,16.62 M35.5,32.25c-1.32,0.67-2.38,1.15-3.39,1.71
	c-1.09,0.61-1.51,0.43-1.64-0.84c-0.33-3.23-0.12-6.27,2.15-8.97c0.94-1.12,1.52-2.5,2.32-3.74c0.38-0.59,0.58-1.17,0.57-1.88
	c-0.03-2.62-0.06-5.24,0.01-7.86c0.03-1.01-0.25-1.45-1.36-1.29c-0.4,0.06-0.82,0.02-1.23,0.01c-2.36-0.02-2.87-0.52-2.89-2.79
	c0-0.39-0.04-0.78,0-1.17c0.09-0.88-0.15-1.27-1.23-1.26c-5.77,0.05-11.54,0.04-17.31,0c-1.1-0.01-1.41,0.38-1.41,1.38
	c0.03,10.53,0.02,21.07,0,31.6c0,0.91,0.15,1.46,1.33,1.45c7.6-0.04,15.19-0.03,22.79-0.01c0.86,0,1.32-0.2,1.3-1.12
	C35.47,35.82,35.5,34.16,35.5,32.25 M33.13,28.56c0.65,0,0.72-0.54,0.94-0.89c1.69-2.73,3.34-5.49,5.03-8.21
	c0.29-0.47,0.49-1.38,1.34-0.93c0.89,0.47,0.09,1.07-0.19,1.53c-1.67,2.8-3.38,5.59-5.07,8.38c-0.28,0.47-0.73,0.87,0.12,1.33
	c0.72,0.39,0.98,0.17,1.33-0.42c2.32-3.86,4.69-7.7,7.03-11.55c0.18-0.3,0.69-0.69,0.18-1c-1.12-0.7-2.3-1.33-3.49-1.93
	c-0.44-0.23-0.6,0.22-0.77,0.49c-2.41,3.94-4.79,7.89-7.23,11.82C31.71,28.2,32.68,28.21,33.13,28.56 M42.54,10.95
	c-0.15,0.09-0.28,0.17-0.4,0.26c-1.45,1.1-1.33,2.41,0.3,3.29c0.55,0.3,1.1,0.63,1.66,0.93c0.39,0.21,0.83,0.53,1.1-0.14
	c0.3-0.77,1.55-1.58,0.91-2.23C45.2,12.13,43.78,11.65,42.54,10.95 M34.87,31.08c-1.02-0.67-1.92-1.31-3.02-1.56v3.13
	C32.95,32.08,33.86,31.61,34.87,31.08 M33.87,8.09c-0.77-0.8-1.59-1.66-2.37-2.47C31.13,8.16,31.13,8.16,33.87,8.09"/>
<path class="st0" d="M22.81,7.02c2.11,0,3.71,1.95,2.85,3.78c-0.5,1.06-0.16,1.4,0.69,1.87c0.49,0.27,0.93,0.7,1.26,1.15
	c0.71,0.95,1.6,2.07,1.04,3.18c-0.48,0.96-1.82,0.38-2.77,0.41c-2.53,0.07-5.06-0.02-7.58,0.04c-1.47,0.04-1.79-0.55-1.3-1.73
	c0.23-0.56,0.42-1.2,0.83-1.64c1.24-1.33,2.82-2.27,2.04-4.62C19.44,8.22,21.27,7.02,22.81,7.02 M22.71,16.14
	c1.11,0,2.22,0.02,3.33-0.01c0.37-0.01,0.94,0.22,1.06-0.25c0.08-0.3-0.19-0.72-0.39-1.03c-1.8-2.67-5.98-2.67-7.82-0.01
	c-0.22,0.32-0.55,0.66-0.41,1.04c0.18,0.48,0.71,0.24,1.08,0.25C20.61,16.16,21.66,16.14,22.71,16.14 M24.55,9.99
	c-0.07-1.07-0.71-1.69-1.76-1.7c-0.97-0.01-1.66,0.59-1.69,1.55c-0.03,0.95,0.53,1.58,1.56,1.67C23.77,11.6,24.35,10.98,24.55,9.99"
	/>
<path class="st0" d="M21.37,34.34c-2.29,0-4.58,0-6.87,0c-0.52,0-1.21,0.1-1.23-0.6c-0.02-0.68,0.67-0.66,1.19-0.66
	c4.64-0.01,9.28-0.01,13.92,0c0.52,0,1.18-0.04,1.13,0.7c-0.04,0.61-0.63,0.56-1.09,0.56C26.07,34.34,23.72,34.34,21.37,34.34"/>
<path class="st0" d="M21.29,28.21c-2.29,0-4.58,0-6.88,0c-0.54,0-1.16,0.01-1.13-0.7c0.03-0.58,0.58-0.6,1.07-0.6
	c4.7,0,9.4,0,14.11,0.01c0.48,0,1.04,0.01,1.04,0.61c0.01,0.71-0.62,0.68-1.16,0.68C26,28.22,23.64,28.21,21.29,28.21"/>
<path class="st0" d="M22.62,22.01c-2.71,0-5.42,0.01-8.13,0c-0.51,0-1.22,0.08-1.21-0.62c0.01-0.69,0.71-0.61,1.23-0.61
	c5.54,0,11.07-0.01,16.61,0c0.51,0,1.21-0.09,1.2,0.62c-0.01,0.71-0.71,0.6-1.22,0.61C28.27,22.02,25.45,22.01,22.62,22.01"/>
</svg>
