<?xml version="1.0" encoding="utf-8"?>
<!-- Generator: Adobe Illustrator 23.0.5, SVG Export Plug-In . SVG Version: 6.00 Build 0)  -->
<svg version="1.1" id="Layer_1" xmlns="http://www.w3.org/2000/svg" xmlns:xlink="http://www.w3.org/1999/xlink" x="0px" y="0px"
	 viewBox="0 0 90.38 87.98" style="enable-background:new 0 0 90.38 87.98;" xml:space="preserve">
<style type="text/css">
	.st0{clip-path:url(#SVGID_2_);fill:url(#SVGID_3_);}
	.st1{clip-path:url(#SVGID_5_);fill:none;stroke:#8DC63F;stroke-miterlimit:10;}
	.st2{clip-path:url(#SVGID_7_);fill:url(#SVGID_8_);}
	.st3{clip-path:url(#SVGID_10_);fill:none;stroke:#8DC63F;stroke-miterlimit:10;}
	.st4{clip-path:url(#SVGID_12_);fill:url(#SVGID_13_);}
	.st5{clip-path:url(#SVGID_15_);fill:none;stroke:#8DC63F;stroke-miterlimit:10;}
	.st6{clip-path:url(#SVGID_17_);fill:url(#SVGID_18_);}
	.st7{clip-path:url(#SVGID_20_);fill:none;stroke:#8DC63F;stroke-miterlimit:10;}
	.st8{clip-path:url(#SVGID_22_);fill:url(#SVGID_23_);}
	.st9{clip-path:url(#SVGID_25_);fill:none;stroke:#8DC63F;stroke-miterlimit:10;}
	.st10{clip-path:url(#SVGID_27_);fill:url(#SVGID_28_);}
	.st11{clip-path:url(#SVGID_30_);fill:none;stroke:#8DC63F;stroke-miterlimit:10;}
	.st12{clip-path:url(#SVGID_31_);fill:url(#SVGID_32_);}
	.st13{clip-path:url(#SVGID_33_);fill:url(#SVGID_34_);}
	.st14{clip-path:url(#SVGID_35_);fill:url(#SVGID_36_);}
	.st15{clip-path:url(#SVGID_37_);fill:url(#SVGID_38_);}
	.st16{clip-path:url(#SVGID_39_);fill:url(#SVGID_41_);}
	.st17{clip-path:url(#SVGID_42_);fill:url(#SVGID_44_);}
	.st18{clip-path:url(#SVGID_45_);fill:url(#SVGID_47_);}
	.st19{clip-path:url(#SVGID_48_);fill:url(#SVGID_50_);}
	.st20{clip-path:url(#SVGID_51_);fill:url(#SVGID_53_);}
	.st21{clip-path:url(#SVGID_54_);fill:url(#SVGID_56_);}
	.st22{clip-path:url(#SVGID_57_);fill:url(#SVGID_59_);}
	.st23{clip-path:url(#SVGID_60_);fill:url(#SVGID_62_);}
	.st24{clip-path:url(#SVGID_63_);fill:url(#SVGID_65_);}
</style>
<g>
	<defs>
		<path id="SVGID_1_" d="M119.37-4049.45c0.73,0,0.84,0.22,0.84,0.88c-0.02,11.59-0.01,23.18-0.01,34.77c0,0.23,0,0.46,0,0.69
			c0,0.62-0.25,0.87-0.93,0.86c-24.41-0.02-48.82-0.01-73.22-0.01c-0.98,0-1.17-0.19-1.18-1.23c-0.01-2.57,0-5.14,0-7.71
			c0-9.15,0.01-18.29-0.01-27.44c0-0.7,0.2-0.81,0.84-0.81c12.28,0.02,24.56,0.01,36.84,0.01c4.47,0,8.93,0,13.4,0
			C103.74-4049.43,111.56-4049.43,119.37-4049.45 M44.86-4051.44c0.08-0.63-0.26-1.45,0.13-1.83c0.27-0.27,0.76-0.22,1.24-0.16
			c0.21,0.03,0.41,0.05,0.6,0.05c11.9-0.01,23.8,0,35.7,0c12.28,0,24.56,0.01,36.84-0.02c0.7,0,0.93,0.19,0.84,0.87
			c-0.08,0.6,0.25,1.39-0.13,1.77c-0.38,0.38-1.16,0.12-1.76,0.12c-24.23,0-48.47,0-72.7,0.02
			C44.97-4050.63,44.79-4050.82,44.86-4051.44 M55.39-4059.98c1.73-0.02,3-1.38,3.02-3.25c0.01-1.02,0.02-2.04,0-3.06
			c-0.01-0.39,0.1-0.56,0.51-0.51c0.27,0.03,0.56,0.01,0.83,0.01c15.31,0,30.61,0,45.91-0.01c0.68,0,0.95,0.14,0.88,0.86
			c-0.07,0.73-0.04,1.48,0,2.21c0.09,1.65,1.36,2.86,2.97,2.89c1.61,0.03,2.92-1.15,3.05-2.79c0.07-0.86,0.04-1.73,0.03-2.6
			c-0.01-0.42,0.1-0.57,0.55-0.57c2.16,0.02,4.32,0.02,6.47,0c0.49-0.01,0.59,0.2,0.59,0.63c-0.01,3.67-0.02,7.34,0.01,11.01
			c0.01,0.61-0.31,0.55-0.7,0.55c-6.55,0-13.1,0-19.64,0H82.51c-12.18,0-24.36,0-36.55,0c-1.09,0-1.09,0-1.09-1.14
			c0-3.39,0.02-6.78-0.01-10.17c-0.01-0.66,0.16-0.9,0.84-0.89c2.03,0.03,4.06,0.02,6.09,0c0.44-0.01,0.56,0.13,0.55,0.56
			c-0.03,1.02-0.02,2.04,0,3.06c0.03,1.86,1.32,3.21,3.02,3.21C55.37-4059.98,55.38-4059.98,55.39-4059.98 M53.57-4063.17
			c-0.01-1.4,0-2.8,0-4.19c0-1.37-0.01-2.74,0-4.12c0.01-1.16,0.74-1.93,1.79-1.95c1.04-0.01,1.81,0.76,1.82,1.92
			c0.02,2.8,0.02,5.59,0,8.39c-0.01,1.1-0.77,1.91-1.76,1.92c-0.01,0-0.02,0-0.03,0C54.34-4061.21,53.58-4062.01,53.57-4063.17
			 M107.76-4064.01c-0.02-1.42-0.01-2.84-0.01-4.27c0-1.35-0.01-2.69,0.01-4.04c0.01-1.15,0.75-1.96,1.77-1.98
			c1.06-0.03,1.84,0.78,1.84,1.98c0.01,2.77,0.01,5.54,0,8.31c-0.01,1.17-0.74,1.93-1.8,1.93
			C108.52-4062.08,107.78-4062.85,107.76-4064.01 M109.52-4075.53c-1.67,0.02-2.95,1.35-2.98,3.12c-0.02,1.09-0.01,2.19-0.01,3.29
			s0,1.1-1.06,1.1c-11.26,0-22.53,0-33.8,0c-4.19,0-8.37-0.01-12.56,0.01c-0.55,0-0.73-0.11-0.72-0.7c0.03-1.12,0.12-2.25-0.05-3.36
			c-0.25-1.64-1.58-2.68-3.23-2.57c-1.52,0.1-2.7,1.33-2.77,2.92c-0.03,0.81-0.02,1.63-0.01,2.44c0,1.25,0,1.25-1.21,1.25
			c-1.85,0-3.7-0.01-5.56,0c-1.43,0.02-1.91,0.53-1.91,1.94c0,17.53,0,35.05,0,52.58c0,1.78,0.71,2.48,2.49,2.48h36.46h35.02
			c0.71,0,1.42,0,2.13,0c0.72-0.01,1.18-0.38,1.45-1.02c0.19-0.46,0.21-0.94,0.21-1.43c0-17.55,0-35.1-0.01-52.65
			c0-1.5-0.4-1.9-1.9-1.9c-2.11,0-4.21-0.01-6.32,0.01c-0.46,0.01-0.61-0.1-0.6-0.59c0.04-1.27,0.03-2.54,0.01-3.82
			c-0.03-1.78-1.35-3.11-3.03-3.11C109.55-4075.53,109.54-4075.53,109.52-4075.53"/>
	</defs>
	<clipPath id="SVGID_2_">
		<use xlink:href="#SVGID_1_"  style="overflow:visible;"/>
	</clipPath>
	
		<radialGradient id="SVGID_3_" cx="-995.9937" cy="6665.356" r="1" gradientTransform="matrix(35.7219 0 0 -35.7219 35661.3203 234055.9063)" gradientUnits="userSpaceOnUse">
		<stop  offset="0" style="stop-color:#FFFFFF"/>
		<stop  offset="0.0134" style="stop-color:#FFFFFF"/>
		<stop  offset="0.0453" style="stop-color:#FBFFBF"/>
		<stop  offset="0.1543" style="stop-color:#E2F0A3"/>
		<stop  offset="0.3203" style="stop-color:#C1DD80"/>
		<stop  offset="0.4883" style="stop-color:#A8CE64"/>
		<stop  offset="0.6571" style="stop-color:#95C351"/>
		<stop  offset="0.8271" style="stop-color:#8BBD45"/>
		<stop  offset="1" style="stop-color:#87BB41"/>
		<stop  offset="1" style="stop-color:#87BB41"/>
	</radialGradient>
	<rect x="43.65" y="-4075.53" class="st0" width="77.76" height="64.51"/>
</g>
<g>
	<defs>
		<rect id="SVGID_4_" x="-931.5" y="-6536" width="2002.66" height="13200"/>
	</defs>
	<clipPath id="SVGID_5_">
		<use xlink:href="#SVGID_4_"  style="overflow:visible;"/>
	</clipPath>
	<path class="st1" d="M82.61-4011.02H46.14c-1.78,0-2.49-0.7-2.49-2.48c0-17.53,0-35.05,0-52.58c0-1.42,0.49-1.93,1.92-1.94
		c1.85-0.02,3.7,0,5.56,0c1.21,0,1.21,0,1.21-1.25c0-0.81-0.02-1.63,0.01-2.44c0.07-1.59,1.25-2.83,2.77-2.92
		c1.65-0.11,2.98,0.93,3.23,2.57c0.17,1.11,0.08,2.24,0.05,3.36c-0.02,0.59,0.17,0.71,0.72,0.7c4.19-0.02,8.37-0.01,12.56-0.01
		c11.27,0,22.53,0,33.8,0c1.06,0,1.06,0,1.06-1.1c0-1.09-0.01-2.19,0.01-3.29c0.03-1.77,1.31-3.1,2.98-3.12
		c1.7-0.02,3.04,1.31,3.07,3.11c0.02,1.27,0.03,2.55-0.01,3.82c-0.01,0.48,0.14,0.59,0.6,0.59c2.11-0.02,4.21-0.01,6.32-0.01
		c1.5,0,1.9,0.39,1.9,1.9c0,17.55,0,35.1,0.01,52.66c0,0.48-0.02,0.97-0.21,1.43c-0.27,0.65-0.74,1.02-1.45,1.03
		c-0.71,0-1.42,0-2.13,0H82.61z M82.53-4049.43c-12.28,0-24.56,0-36.84-0.01c-0.64,0-0.84,0.11-0.84,0.81
		c0.03,9.14,0.02,18.29,0.02,27.43c0,2.57,0,5.15,0,7.72c0,1.03,0.2,1.22,1.18,1.22c24.41,0,48.82,0,73.23,0.01
		c0.68,0,0.93-0.24,0.93-0.86c0-0.23,0-0.46,0-0.69c0-11.59-0.01-23.18,0.01-34.77c0-0.66-0.12-0.89-0.84-0.89
		C107.09-4049.42,94.81-4049.43,82.53-4049.43z M82.51-4054.61h17.36c6.55,0,13.09,0,19.64,0c0.39,0,0.71,0.06,0.7-0.55
		c-0.03-3.67-0.02-7.34-0.01-11.01c0-0.44-0.09-0.64-0.59-0.63c-2.16,0.02-4.31,0.02-6.47,0c-0.45,0-0.56,0.15-0.55,0.57
		c0.02,0.87,0.04,1.74-0.03,2.6c-0.13,1.65-1.45,2.82-3.05,2.79c-1.61-0.03-2.88-1.24-2.97-2.88c-0.04-0.74-0.07-1.48,0-2.22
		c0.07-0.73-0.21-0.86-0.88-0.86c-15.3,0.02-30.61,0.01-45.91,0.01c-0.28,0-0.56,0.03-0.84,0c-0.41-0.05-0.52,0.12-0.51,0.51
		c0.02,1.02,0.01,2.04,0,3.06c-0.02,1.87-1.29,3.24-3.02,3.25c-1.72,0.01-3.02-1.34-3.05-3.21c-0.02-1.02-0.02-2.04,0-3.06
		c0.01-0.43-0.11-0.56-0.55-0.56c-2.03,0.02-4.06,0.03-6.09,0c-0.68-0.01-0.84,0.23-0.84,0.89c0.03,3.39,0.01,6.78,0.01,10.17
		c0,1.14,0,1.14,1.1,1.14C58.15-4054.61,70.33-4054.61,82.51-4054.61z M82.52-4053.39c-11.9,0-23.8,0-35.7,0
		c-0.63,0-1.44-0.28-1.83,0.11c-0.39,0.39-0.05,1.21-0.13,1.83c-0.07,0.62,0.11,0.81,0.77,0.81c24.23-0.02,48.47-0.01,72.7-0.02
		c0.6,0,1.38,0.26,1.76-0.12s0.05-1.17,0.13-1.77c0.09-0.68-0.14-0.87-0.84-0.87C107.08-4053.38,94.8-4053.39,82.52-4053.39z
		 M53.57-4067.37c0,1.4-0.01,2.8,0,4.19c0.01,1.17,0.79,1.98,1.86,1.97c0.98-0.01,1.75-0.82,1.75-1.92c0.01-2.8,0.02-5.59,0-8.39
		c-0.01-1.16-0.77-1.94-1.82-1.92c-1.05,0.01-1.78,0.79-1.79,1.95C53.56-4070.11,53.57-4068.74,53.57-4067.37z M107.76-4068.28
		c0,1.42-0.02,2.85,0,4.27c0.02,1.16,0.76,1.93,1.81,1.92c1.06,0,1.8-0.76,1.8-1.93c0.02-2.77,0.02-5.54,0-8.31
		c-0.01-1.19-0.79-2-1.85-1.98c-1.02,0.02-1.75,0.83-1.77,1.98C107.75-4070.97,107.76-4069.63,107.76-4068.28z"/>
</g>
<g>
	<defs>
		<path id="SVGID_6_" d="M99.61-4060.13c-0.2,0.01-0.41,0-0.61,0H82.48H65.81c-0.2,0-0.4,0.01-0.61,0
			c-0.39-0.01-0.57,0.25-0.58,0.57c-0.02,0.33,0.19,0.58,0.55,0.61c0.2,0.02,0.4,0.01,0.61,0.01c10.98,0,21.97,0,32.96,0
			c0.28,0,0.56-0.02,0.83,0c0.42,0.02,0.72-0.16,0.74-0.59c0.02-0.42-0.26-0.61-0.66-0.61
			C99.64-4060.13,99.62-4060.13,99.61-4060.13"/>
	</defs>
	<clipPath id="SVGID_7_">
		<use xlink:href="#SVGID_6_"  style="overflow:visible;"/>
	</clipPath>
	
		<radialGradient id="SVGID_8_" cx="-992.5959" cy="6665.4238" r="1.0009" gradientTransform="matrix(12.6257 0 0 -12.6257 12614.7236 80096.3906)" gradientUnits="userSpaceOnUse">
		<stop  offset="0" style="stop-color:#FFFFFF"/>
		<stop  offset="0.0134" style="stop-color:#FFFFFF"/>
		<stop  offset="0.0453" style="stop-color:#FBFFBF"/>
		<stop  offset="0.1543" style="stop-color:#E2F0A3"/>
		<stop  offset="0.3203" style="stop-color:#C1DD80"/>
		<stop  offset="0.4883" style="stop-color:#A8CE64"/>
		<stop  offset="0.6571" style="stop-color:#95C351"/>
		<stop  offset="0.8271" style="stop-color:#8BBD45"/>
		<stop  offset="1" style="stop-color:#87BB41"/>
		<stop  offset="1" style="stop-color:#87BB41"/>
	</radialGradient>
	<rect x="64.6" y="-4060.14" class="st2" width="35.72" height="1.22"/>
</g>
<g>
	<defs>
		<rect id="SVGID_9_" x="-931.5" y="-6536" width="2002.66" height="13200"/>
	</defs>
	<clipPath id="SVGID_10_">
		<use xlink:href="#SVGID_9_"  style="overflow:visible;"/>
	</clipPath>
	<path class="st3" d="M82.48-4060.13H99c0.2,0,0.41,0.01,0.61,0c0.42-0.01,0.72,0.17,0.7,0.61c-0.02,0.43-0.31,0.61-0.73,0.59
		c-0.28-0.01-0.56,0-0.84,0c-10.99,0-21.97,0-32.96,0c-0.2,0-0.41,0.01-0.61-0.01c-0.36-0.04-0.57-0.28-0.55-0.62
		c0.01-0.32,0.2-0.58,0.59-0.57c0.2,0,0.41,0,0.61,0H82.48z"/>
</g>
<text transform="matrix(1 0 0 1.004 55.7403 -4024.2588)"><tspan x="0" y="0" style="fill:#8DC63F; font-family:'Poppins-Medium'; font-size:16.729px; letter-spacing:1;">Y</tspan><tspan x="11.14" y="0" style="fill:#8DC63F; font-family:'Poppins-Medium'; font-size:16.729px; letter-spacing:1;">E</tspan><tspan x="20.91" y="0" style="fill:#8DC63F; font-family:'Poppins-Medium'; font-size:16.729px; letter-spacing:1;">AR</tspan><tspan x="45.18" y="0" style="fill:#8DC63F; font-family:'Poppins-Medium'; font-size:16.729px;">S</tspan></text>
<g>
	<defs>
		<path id="SVGID_11_" d="M79.37-4051.45c0.73,0,0.84,0.22,0.84,0.88c-0.02,11.59-0.01,23.18-0.01,34.77c0,0.23,0,0.46,0,0.69
			c0,0.62-0.25,0.87-0.93,0.86c-24.41-0.02-48.82-0.01-73.22-0.01c-0.98,0-1.17-0.19-1.18-1.23c-0.01-2.57,0-5.14,0-7.71
			c0-9.15,0.01-18.29-0.01-27.44c0-0.7,0.2-0.81,0.84-0.81c12.28,0.02,24.56,0.01,36.84,0.01c4.47,0,8.93,0,13.4,0
			C63.74-4051.43,71.56-4051.43,79.37-4051.45 M4.86-4053.44c0.08-0.63-0.26-1.45,0.13-1.83c0.27-0.27,0.76-0.22,1.24-0.16
			c0.21,0.03,0.41,0.05,0.6,0.05c11.9-0.01,23.8,0,35.7,0c12.28,0,24.56,0.01,36.84-0.02c0.7,0,0.93,0.19,0.84,0.87
			c-0.08,0.6,0.25,1.39-0.13,1.77c-0.38,0.38-1.16,0.12-1.76,0.12c-24.23,0-48.47,0-72.7,0.02
			C4.97-4052.63,4.79-4052.82,4.86-4053.44 M15.39-4061.98c1.73-0.02,3-1.38,3.02-3.25c0.01-1.02,0.02-2.04,0-3.06
			c-0.01-0.39,0.1-0.56,0.51-0.51c0.27,0.03,0.56,0.01,0.83,0.01c15.31,0,30.61,0,45.91-0.01c0.68,0,0.95,0.14,0.88,0.86
			c-0.07,0.73-0.04,1.48,0,2.21c0.09,1.65,1.36,2.86,2.97,2.89c1.61,0.03,2.92-1.15,3.05-2.79c0.07-0.86,0.04-1.73,0.03-2.6
			c-0.01-0.42,0.1-0.57,0.55-0.57c2.16,0.02,4.32,0.02,6.47,0c0.49-0.01,0.59,0.2,0.59,0.63c-0.01,3.67-0.02,7.34,0.01,11.01
			c0.01,0.61-0.31,0.55-0.7,0.55c-6.55,0-13.1,0-19.64,0H42.51c-12.18,0-24.36,0-36.55,0c-1.09,0-1.09,0-1.09-1.14
			c0-3.39,0.02-6.78-0.01-10.17c-0.01-0.66,0.16-0.9,0.84-0.89c2.03,0.03,4.06,0.02,6.09,0c0.44-0.01,0.56,0.13,0.55,0.56
			c-0.03,1.02-0.02,2.04,0,3.06c0.03,1.86,1.32,3.21,3.02,3.21C15.37-4061.98,15.38-4061.98,15.39-4061.98 M13.57-4065.17
			c-0.01-1.4,0-2.8,0-4.19c0-1.37-0.01-2.74,0-4.12c0.01-1.16,0.74-1.93,1.79-1.95c1.04-0.01,1.81,0.76,1.82,1.92
			c0.02,2.8,0.02,5.59,0,8.39c-0.01,1.1-0.77,1.91-1.76,1.92c-0.01,0-0.02,0-0.03,0C14.34-4063.21,13.58-4064.01,13.57-4065.17
			 M67.76-4066.01c-0.02-1.42-0.01-2.84-0.01-4.27c0-1.35-0.01-2.69,0.01-4.04c0.01-1.15,0.75-1.96,1.77-1.98
			c1.06-0.03,1.84,0.78,1.84,1.98c0.01,2.77,0.01,5.54,0,8.31c-0.01,1.17-0.74,1.93-1.8,1.93
			C68.52-4064.08,67.78-4064.85,67.76-4066.01 M69.52-4077.53c-1.67,0.02-2.95,1.35-2.98,3.12c-0.02,1.09-0.01,2.19-0.01,3.29
			s0,1.1-1.06,1.1c-11.26,0-22.53,0-33.8,0c-4.19,0-8.37-0.01-12.56,0.01c-0.55,0-0.73-0.11-0.72-0.7c0.03-1.12,0.12-2.25-0.05-3.36
			c-0.25-1.64-1.58-2.68-3.23-2.57c-1.52,0.1-2.7,1.33-2.77,2.92c-0.03,0.81-0.02,1.63-0.01,2.44c0,1.25,0,1.25-1.21,1.25
			c-1.85,0-3.7-0.01-5.56,0c-1.43,0.02-1.91,0.53-1.91,1.94c0,17.53,0,35.05,0,52.58c0,1.78,0.71,2.48,2.49,2.48h36.46h35.02
			c0.71,0,1.42,0,2.13,0c0.72-0.01,1.18-0.38,1.45-1.02c0.19-0.46,0.21-0.94,0.21-1.43c0-17.55,0-35.1-0.01-52.65
			c0-1.5-0.4-1.9-1.9-1.9c-2.11,0-4.21-0.01-6.32,0.01c-0.46,0.01-0.61-0.1-0.6-0.59c0.04-1.27,0.03-2.54,0.01-3.82
			c-0.03-1.78-1.35-3.11-3.03-3.11C69.55-4077.53,69.54-4077.53,69.52-4077.53"/>
	</defs>
	<clipPath id="SVGID_12_">
		<use xlink:href="#SVGID_11_"  style="overflow:visible;"/>
	</clipPath>
	
		<radialGradient id="SVGID_13_" cx="-997.1134" cy="6665.4121" r="1" gradientTransform="matrix(35.7219 0 0 -35.7219 35661.3203 234055.9063)" gradientUnits="userSpaceOnUse">
		<stop  offset="0" style="stop-color:#FFFFFF"/>
		<stop  offset="0.0134" style="stop-color:#FFFFFF"/>
		<stop  offset="0.0453" style="stop-color:#FBFFBF"/>
		<stop  offset="0.1543" style="stop-color:#E2F0A3"/>
		<stop  offset="0.3203" style="stop-color:#C1DD80"/>
		<stop  offset="0.4883" style="stop-color:#A8CE64"/>
		<stop  offset="0.6571" style="stop-color:#95C351"/>
		<stop  offset="0.8271" style="stop-color:#8BBD45"/>
		<stop  offset="1" style="stop-color:#87BB41"/>
		<stop  offset="1" style="stop-color:#87BB41"/>
	</radialGradient>
	<rect x="3.65" y="-4077.53" class="st4" width="77.76" height="64.51"/>
</g>
<g>
	<defs>
		<rect id="SVGID_14_" x="-971.5" y="-6538" width="2002.66" height="13200"/>
	</defs>
	<clipPath id="SVGID_15_">
		<use xlink:href="#SVGID_14_"  style="overflow:visible;"/>
	</clipPath>
	<path class="st5" d="M42.61-4013.02H6.14c-1.78,0-2.49-0.7-2.49-2.48c0-17.53,0-35.05,0-52.58c0-1.42,0.49-1.93,1.92-1.94
		c1.85-0.02,3.7,0,5.56,0c1.21,0,1.21,0,1.21-1.25c0-0.81-0.02-1.63,0.01-2.44c0.07-1.59,1.25-2.83,2.77-2.92
		c1.65-0.11,2.98,0.93,3.23,2.57c0.17,1.11,0.08,2.24,0.05,3.36c-0.02,0.59,0.17,0.71,0.72,0.7c4.19-0.02,8.37-0.01,12.56-0.01
		c11.27,0,22.53,0,33.8,0c1.06,0,1.06,0,1.06-1.1c0-1.09-0.01-2.19,0.01-3.29c0.03-1.77,1.31-3.1,2.98-3.12
		c1.7-0.02,3.04,1.31,3.07,3.11c0.02,1.27,0.03,2.55-0.01,3.82c-0.01,0.48,0.14,0.59,0.6,0.59c2.11-0.02,4.21-0.01,6.32-0.01
		c1.5,0,1.9,0.39,1.9,1.9c0,17.55,0,35.1,0.01,52.66c0,0.48-0.02,0.97-0.21,1.43c-0.27,0.65-0.74,1.02-1.45,1.03
		c-0.71,0-1.42,0-2.13,0H42.61z M42.53-4051.43c-12.28,0-24.56,0-36.84-0.01c-0.64,0-0.84,0.11-0.84,0.81
		c0.03,9.14,0.02,18.29,0.02,27.43c0,2.57,0,5.15,0,7.72c0,1.03,0.2,1.22,1.18,1.22c24.41,0,48.82,0,73.23,0.01
		c0.68,0,0.93-0.24,0.93-0.86c0-0.23,0-0.46,0-0.69c0-11.59-0.01-23.18,0.01-34.77c0-0.66-0.12-0.89-0.84-0.89
		C67.09-4051.42,54.81-4051.43,42.53-4051.43z M42.51-4056.61h17.36c6.55,0,13.09,0,19.64,0c0.39,0,0.71,0.06,0.7-0.55
		c-0.03-3.67-0.02-7.34-0.01-11.01c0-0.44-0.09-0.64-0.59-0.63c-2.16,0.02-4.31,0.02-6.47,0c-0.45,0-0.56,0.15-0.55,0.57
		c0.02,0.87,0.04,1.74-0.03,2.6c-0.13,1.65-1.45,2.82-3.05,2.79c-1.61-0.03-2.88-1.24-2.97-2.88c-0.04-0.74-0.07-1.48,0-2.22
		c0.07-0.73-0.21-0.86-0.88-0.86c-15.3,0.02-30.61,0.01-45.91,0.01c-0.28,0-0.56,0.03-0.84,0c-0.41-0.05-0.52,0.12-0.51,0.51
		c0.02,1.02,0.01,2.04,0,3.06c-0.02,1.87-1.29,3.24-3.02,3.25c-1.72,0.01-3.02-1.34-3.05-3.21c-0.02-1.02-0.02-2.04,0-3.06
		c0.01-0.43-0.11-0.56-0.55-0.56c-2.03,0.02-4.06,0.03-6.09,0c-0.68-0.01-0.84,0.23-0.84,0.89c0.03,3.39,0.01,6.78,0.01,10.17
		c0,1.14,0,1.14,1.1,1.14C18.15-4056.61,30.33-4056.61,42.51-4056.61z M42.52-4055.39c-11.9,0-23.8,0-35.7,0
		c-0.63,0-1.44-0.28-1.83,0.11c-0.39,0.39-0.05,1.21-0.13,1.83c-0.07,0.62,0.11,0.81,0.77,0.81c24.23-0.02,48.47-0.01,72.7-0.02
		c0.6,0,1.38,0.26,1.76-0.12s0.05-1.17,0.13-1.77c0.09-0.68-0.14-0.87-0.84-0.87C67.08-4055.38,54.8-4055.39,42.52-4055.39z
		 M13.57-4069.37c0,1.4-0.01,2.8,0,4.19c0.01,1.17,0.79,1.98,1.86,1.97c0.98-0.01,1.75-0.82,1.75-1.92c0.01-2.8,0.02-5.59,0-8.39
		c-0.01-1.16-0.77-1.94-1.82-1.92c-1.05,0.01-1.78,0.79-1.79,1.95C13.56-4072.11,13.57-4070.74,13.57-4069.37z M67.76-4070.28
		c0,1.42-0.02,2.85,0,4.27c0.02,1.16,0.76,1.93,1.81,1.92c1.06,0,1.8-0.76,1.8-1.93c0.02-2.77,0.02-5.54,0-8.31
		c-0.01-1.19-0.79-2-1.85-1.98c-1.02,0.02-1.75,0.83-1.77,1.98C67.75-4072.97,67.76-4071.63,67.76-4070.28z"/>
</g>
<g>
	<defs>
		<path id="SVGID_16_" d="M59.61-4062.13c-0.2,0.01-0.41,0-0.61,0H42.48H25.81c-0.2,0-0.4,0.01-0.61,0
			c-0.39-0.01-0.57,0.25-0.58,0.57c-0.02,0.33,0.19,0.58,0.55,0.61c0.2,0.02,0.4,0.01,0.61,0.01c10.98,0,21.97,0,32.96,0
			c0.28,0,0.56-0.02,0.83,0c0.42,0.02,0.72-0.16,0.74-0.59c0.02-0.42-0.26-0.61-0.66-0.61
			C59.64-4062.13,59.62-4062.13,59.61-4062.13"/>
	</defs>
	<clipPath id="SVGID_17_">
		<use xlink:href="#SVGID_16_"  style="overflow:visible;"/>
	</clipPath>
	
		<radialGradient id="SVGID_18_" cx="-995.764" cy="6665.582" r="1.0009" gradientTransform="matrix(12.6257 0 0 -12.6257 12614.7236 80096.3906)" gradientUnits="userSpaceOnUse">
		<stop  offset="0" style="stop-color:#FFFFFF"/>
		<stop  offset="0.0134" style="stop-color:#FFFFFF"/>
		<stop  offset="0.0453" style="stop-color:#FBFFBF"/>
		<stop  offset="0.1543" style="stop-color:#E2F0A3"/>
		<stop  offset="0.3203" style="stop-color:#C1DD80"/>
		<stop  offset="0.4883" style="stop-color:#A8CE64"/>
		<stop  offset="0.6571" style="stop-color:#95C351"/>
		<stop  offset="0.8271" style="stop-color:#8BBD45"/>
		<stop  offset="1" style="stop-color:#87BB41"/>
		<stop  offset="1" style="stop-color:#87BB41"/>
	</radialGradient>
	<rect x="24.6" y="-4062.14" class="st6" width="35.72" height="1.22"/>
</g>
<g>
	<defs>
		<rect id="SVGID_19_" x="-971.5" y="-6538" width="2002.66" height="13200"/>
	</defs>
	<clipPath id="SVGID_20_">
		<use xlink:href="#SVGID_19_"  style="overflow:visible;"/>
	</clipPath>
	<path class="st7" d="M42.48-4062.13H59c0.2,0,0.41,0.01,0.61,0c0.42-0.01,0.72,0.17,0.7,0.61c-0.02,0.43-0.31,0.61-0.73,0.59
		c-0.28-0.01-0.56,0-0.84,0c-10.99,0-21.97,0-32.96,0c-0.2,0-0.41,0.01-0.61-0.01c-0.36-0.04-0.57-0.28-0.55-0.62
		c0.01-0.32,0.2-0.58,0.59-0.57c0.2,0,0.41,0,0.61,0H42.48z"/>
</g>
<text transform="matrix(1 0 0 1.004 15.7403 -4026.2588)"><tspan x="0" y="0" style="fill:#8DC63F; font-family:'Poppins-Medium'; font-size:16.729px; letter-spacing:1;">Y</tspan><tspan x="11.14" y="0" style="fill:#8DC63F; font-family:'Poppins-Medium'; font-size:16.729px; letter-spacing:1;">E</tspan><tspan x="20.91" y="0" style="fill:#8DC63F; font-family:'Poppins-Medium'; font-size:16.729px; letter-spacing:1;">AR</tspan><tspan x="45.18" y="0" style="fill:#8DC63F; font-family:'Poppins-Medium'; font-size:16.729px;">S</tspan></text>
<g>
	<defs>
		<path id="SVGID_21_" d="M66.37-4110.45c0.73,0,0.84,0.22,0.84,0.88c-0.02,11.59-0.01,23.18-0.01,34.77c0,0.23,0,0.46,0,0.69
			c0,0.62-0.25,0.87-0.93,0.86c-24.41-0.02-48.82-0.01-73.22-0.01c-0.98,0-1.17-0.19-1.18-1.23c-0.01-2.57,0-5.14,0-7.71
			c0-9.15,0.01-18.29-0.01-27.44c0-0.7,0.2-0.81,0.84-0.81c12.28,0.02,24.56,0.01,36.84,0.01c4.47,0,8.93,0,13.4,0
			C50.74-4110.43,58.56-4110.43,66.37-4110.45 M-8.14-4112.44c0.08-0.63-0.26-1.45,0.13-1.83c0.27-0.27,0.76-0.22,1.24-0.16
			c0.21,0.03,0.41,0.05,0.6,0.05c11.9-0.01,23.8,0,35.7,0c12.28,0,24.56,0.01,36.84-0.02c0.7,0,0.93,0.19,0.84,0.87
			c-0.08,0.6,0.25,1.39-0.13,1.77c-0.38,0.38-1.16,0.12-1.76,0.12c-24.23,0-48.47,0-72.7,0.02
			C-8.03-4111.63-8.21-4111.82-8.14-4112.44 M2.39-4120.98c1.73-0.02,3-1.38,3.02-3.25c0.01-1.02,0.02-2.04,0-3.06
			c-0.01-0.39,0.1-0.56,0.51-0.51c0.27,0.03,0.56,0.01,0.83,0.01c15.31,0,30.61,0,45.91-0.01c0.68,0,0.95,0.14,0.88,0.86
			c-0.07,0.73-0.04,1.48,0,2.21c0.09,1.65,1.36,2.86,2.97,2.89c1.61,0.03,2.92-1.15,3.05-2.79c0.07-0.86,0.04-1.73,0.03-2.6
			c-0.01-0.42,0.1-0.57,0.55-0.57c2.16,0.02,4.32,0.02,6.47,0c0.49-0.01,0.59,0.2,0.59,0.63c-0.01,3.67-0.02,7.34,0.01,11.01
			c0.01,0.61-0.31,0.55-0.7,0.55c-6.55,0-13.1,0-19.64,0H29.51c-12.18,0-24.36,0-36.55,0c-1.09,0-1.09,0-1.09-1.14
			c0-3.39,0.02-6.78-0.01-10.17c-0.01-0.66,0.16-0.9,0.84-0.89c2.03,0.03,4.06,0.02,6.09,0c0.44-0.01,0.56,0.13,0.55,0.56
			c-0.03,1.02-0.02,2.04,0,3.06c0.03,1.86,1.32,3.21,3.02,3.21C2.37-4120.98,2.38-4120.98,2.39-4120.98 M0.57-4124.17
			c-0.01-1.4,0-2.8,0-4.19c0-1.37-0.01-2.74,0-4.12c0.01-1.16,0.74-1.93,1.79-1.95c1.04-0.01,1.81,0.76,1.82,1.92
			c0.02,2.8,0.02,5.59,0,8.39c-0.01,1.1-0.77,1.91-1.76,1.92c-0.01,0-0.02,0-0.03,0C1.34-4122.21,0.58-4123.01,0.57-4124.17
			 M54.76-4125.01c-0.02-1.42-0.01-2.84-0.01-4.27c0-1.35-0.01-2.69,0.01-4.04c0.01-1.15,0.75-1.96,1.77-1.98
			c1.06-0.03,1.84,0.78,1.84,1.98c0.01,2.77,0.01,5.54,0,8.31c-0.01,1.17-0.74,1.93-1.8,1.93
			C55.52-4123.08,54.78-4123.85,54.76-4125.01 M56.52-4136.53c-1.67,0.02-2.95,1.35-2.98,3.12c-0.02,1.09-0.01,2.19-0.01,3.29
			s0,1.1-1.06,1.1c-11.26,0-22.53,0-33.8,0c-4.19,0-8.37-0.01-12.56,0.01c-0.55,0-0.73-0.11-0.72-0.7c0.03-1.12,0.12-2.25-0.05-3.36
			c-0.25-1.64-1.58-2.68-3.23-2.57c-1.52,0.1-2.7,1.33-2.77,2.92c-0.03,0.81-0.02,1.63-0.01,2.44c0,1.25,0,1.25-1.21,1.25
			c-1.85,0-3.7-0.01-5.56,0c-1.43,0.02-1.91,0.53-1.91,1.94c0,17.53,0,35.05,0,52.58c0,1.78,0.71,2.48,2.49,2.48h36.46h35.02
			c0.71,0,1.42,0,2.13,0c0.72-0.01,1.18-0.38,1.45-1.02c0.19-0.46,0.21-0.94,0.21-1.43c0-17.55,0-35.1-0.01-52.65
			c0-1.5-0.4-1.9-1.9-1.9c-2.11,0-4.21-0.01-6.32,0.01c-0.46,0.01-0.61-0.1-0.6-0.59c0.04-1.27,0.03-2.54,0.01-3.82
			c-0.03-1.78-1.35-3.11-3.03-3.11C56.55-4136.53,56.54-4136.53,56.52-4136.53"/>
	</defs>
	<clipPath id="SVGID_22_">
		<use xlink:href="#SVGID_21_"  style="overflow:visible;"/>
	</clipPath>
	
		<radialGradient id="SVGID_23_" cx="-997.4774" cy="6667.0635" r="1" gradientTransform="matrix(35.7219 0 0 -35.7219 35661.3203 234055.9063)" gradientUnits="userSpaceOnUse">
		<stop  offset="0" style="stop-color:#FFFFFF"/>
		<stop  offset="0.0134" style="stop-color:#FFFFFF"/>
		<stop  offset="0.0453" style="stop-color:#FBFFBF"/>
		<stop  offset="0.1543" style="stop-color:#E2F0A3"/>
		<stop  offset="0.3203" style="stop-color:#C1DD80"/>
		<stop  offset="0.4883" style="stop-color:#A8CE64"/>
		<stop  offset="0.6571" style="stop-color:#95C351"/>
		<stop  offset="0.8271" style="stop-color:#8BBD45"/>
		<stop  offset="1" style="stop-color:#87BB41"/>
		<stop  offset="1" style="stop-color:#87BB41"/>
	</radialGradient>
	<rect x="-9.35" y="-4136.53" class="st8" width="77.76" height="64.51"/>
</g>
<g>
	<defs>
		<rect id="SVGID_24_" x="-984.5" y="-6597" width="2002.66" height="13200"/>
	</defs>
	<clipPath id="SVGID_25_">
		<use xlink:href="#SVGID_24_"  style="overflow:visible;"/>
	</clipPath>
	<path class="st9" d="M29.61-4072.02H-6.86c-1.78,0-2.49-0.7-2.49-2.48c0-17.53,0-35.05,0-52.58c0-1.42,0.49-1.93,1.92-1.94
		c1.85-0.02,3.7,0,5.56,0c1.21,0,1.21,0,1.21-1.25c0-0.81-0.02-1.63,0.01-2.44c0.07-1.59,1.25-2.83,2.77-2.92
		c1.65-0.11,2.98,0.93,3.23,2.57c0.17,1.11,0.08,2.24,0.05,3.36c-0.02,0.59,0.17,0.71,0.72,0.7c4.19-0.02,8.37-0.01,12.56-0.01
		c11.27,0,22.53,0,33.8,0c1.06,0,1.06,0,1.06-1.1c0-1.09-0.01-2.19,0.01-3.29c0.03-1.77,1.31-3.1,2.98-3.12
		c1.7-0.02,3.04,1.31,3.07,3.11c0.02,1.27,0.03,2.55-0.01,3.82c-0.01,0.48,0.14,0.59,0.6,0.59c2.11-0.02,4.21-0.01,6.32-0.01
		c1.5,0,1.9,0.39,1.9,1.9c0,17.55,0,35.1,0.01,52.66c0,0.48-0.02,0.97-0.21,1.43c-0.27,0.65-0.74,1.02-1.45,1.03
		c-0.71,0-1.42,0-2.13,0H29.61z M29.53-4110.43c-12.28,0-24.56,0-36.84-0.01c-0.64,0-0.84,0.11-0.84,0.81
		c0.03,9.14,0.02,18.29,0.02,27.43c0,2.57,0,5.15,0,7.72c0,1.03,0.2,1.22,1.18,1.22c24.41,0,48.82,0,73.23,0.01
		c0.68,0,0.93-0.24,0.93-0.86c0-0.23,0-0.46,0-0.69c0-11.59-0.01-23.18,0.01-34.77c0-0.66-0.12-0.89-0.84-0.89
		C54.09-4110.42,41.81-4110.43,29.53-4110.43z M29.51-4115.61h17.36c6.55,0,13.09,0,19.64,0c0.39,0,0.71,0.06,0.7-0.55
		c-0.03-3.67-0.02-7.34-0.01-11.01c0-0.44-0.09-0.64-0.59-0.63c-2.16,0.02-4.31,0.02-6.47,0c-0.45,0-0.56,0.15-0.55,0.57
		c0.02,0.87,0.04,1.74-0.03,2.6c-0.13,1.65-1.45,2.82-3.05,2.79c-1.61-0.03-2.88-1.24-2.97-2.88c-0.04-0.74-0.07-1.48,0-2.22
		c0.07-0.73-0.21-0.86-0.88-0.86c-15.3,0.02-30.61,0.01-45.91,0.01c-0.28,0-0.56,0.03-0.84,0c-0.41-0.05-0.52,0.12-0.51,0.51
		c0.02,1.02,0.01,2.04,0,3.06c-0.02,1.87-1.29,3.24-3.02,3.25c-1.72,0.01-3.02-1.34-3.05-3.21c-0.02-1.02-0.02-2.04,0-3.06
		c0.01-0.43-0.11-0.56-0.55-0.56c-2.03,0.02-4.06,0.03-6.09,0c-0.68-0.01-0.84,0.23-0.84,0.89c0.03,3.39,0.01,6.78,0.01,10.17
		c0,1.14,0,1.14,1.1,1.14C5.15-4115.61,17.33-4115.61,29.51-4115.61z M29.52-4114.39c-11.9,0-23.8,0-35.7,0
		c-0.63,0-1.44-0.28-1.83,0.11c-0.39,0.39-0.05,1.21-0.13,1.83c-0.07,0.62,0.11,0.81,0.77,0.81c24.23-0.02,48.47-0.01,72.7-0.02
		c0.6,0,1.38,0.26,1.76-0.12s0.05-1.17,0.13-1.77c0.09-0.68-0.14-0.87-0.84-0.87C54.08-4114.38,41.8-4114.39,29.52-4114.39z
		 M0.57-4128.37c0,1.4-0.01,2.8,0,4.19c0.01,1.17,0.79,1.98,1.86,1.97c0.98-0.01,1.75-0.82,1.75-1.92c0.01-2.8,0.02-5.59,0-8.39
		c-0.01-1.16-0.77-1.94-1.82-1.92c-1.05,0.01-1.78,0.79-1.79,1.95C0.56-4131.11,0.57-4129.74,0.57-4128.37z M54.76-4129.28
		c0,1.42-0.02,2.85,0,4.27c0.02,1.16,0.76,1.93,1.81,1.92c1.06,0,1.8-0.76,1.8-1.93c0.02-2.77,0.02-5.54,0-8.31
		c-0.01-1.19-0.79-2-1.85-1.98c-1.02,0.02-1.75,0.83-1.77,1.98C54.75-4131.97,54.76-4130.63,54.76-4129.28z"/>
</g>
<g>
	<defs>
		<path id="SVGID_26_" d="M46.61-4121.13c-0.2,0.01-0.41,0-0.61,0H29.48H12.81c-0.2,0-0.4,0.01-0.61,0
			c-0.39-0.01-0.57,0.25-0.58,0.57c-0.02,0.33,0.19,0.58,0.55,0.61c0.2,0.02,0.4,0.01,0.61,0.01c10.98,0,21.97,0,32.96,0
			c0.28,0,0.56-0.02,0.83,0c0.42,0.02,0.72-0.16,0.74-0.59c0.02-0.42-0.26-0.61-0.66-0.61
			C46.64-4121.13,46.62-4121.13,46.61-4121.13"/>
	</defs>
	<clipPath id="SVGID_27_">
		<use xlink:href="#SVGID_26_"  style="overflow:visible;"/>
	</clipPath>
	
		<radialGradient id="SVGID_28_" cx="-996.7937" cy="6670.2549" r="1.0009" gradientTransform="matrix(12.6257 0 0 -12.6257 12614.7236 80096.3906)" gradientUnits="userSpaceOnUse">
		<stop  offset="0" style="stop-color:#FFFFFF"/>
		<stop  offset="0.0134" style="stop-color:#FFFFFF"/>
		<stop  offset="0.0453" style="stop-color:#FBFFBF"/>
		<stop  offset="0.1543" style="stop-color:#E2F0A3"/>
		<stop  offset="0.3203" style="stop-color:#C1DD80"/>
		<stop  offset="0.4883" style="stop-color:#A8CE64"/>
		<stop  offset="0.6571" style="stop-color:#95C351"/>
		<stop  offset="0.8271" style="stop-color:#8BBD45"/>
		<stop  offset="1" style="stop-color:#87BB41"/>
		<stop  offset="1" style="stop-color:#87BB41"/>
	</radialGradient>
	<rect x="11.6" y="-4121.14" class="st10" width="35.72" height="1.22"/>
</g>
<g>
	<defs>
		<rect id="SVGID_29_" x="-984.5" y="-6597" width="2002.66" height="13200"/>
	</defs>
	<clipPath id="SVGID_30_">
		<use xlink:href="#SVGID_29_"  style="overflow:visible;"/>
	</clipPath>
	<path class="st11" d="M29.48-4121.13H46c0.2,0,0.41,0.01,0.61,0c0.42-0.01,0.72,0.17,0.7,0.61c-0.02,0.43-0.31,0.61-0.73,0.59
		c-0.28-0.01-0.56,0-0.84,0c-10.99,0-21.97,0-32.96,0c-0.2,0-0.41,0.01-0.61-0.01c-0.36-0.04-0.57-0.28-0.55-0.62
		c0.01-0.32,0.2-0.58,0.59-0.57c0.2,0,0.41,0,0.61,0H29.48z"/>
</g>
<text transform="matrix(1 0 0 1.004 2.7403 -4085.2588)"><tspan x="0" y="0" style="fill:#8DC63F; font-family:'Poppins-Medium'; font-size:16.729px; letter-spacing:1;">Y</tspan><tspan x="11.14" y="0" style="fill:#8DC63F; font-family:'Poppins-Medium'; font-size:16.729px; letter-spacing:1;">E</tspan><tspan x="20.91" y="0" style="fill:#8DC63F; font-family:'Poppins-Medium'; font-size:16.729px; letter-spacing:1;">AR</tspan><tspan x="45.18" y="0" style="fill:#8DC63F; font-family:'Poppins-Medium'; font-size:16.729px;">S</tspan></text>
<g>
	<defs>
		<path id="SVGID_40_" d="M51.36,65.12c0.6,0,0.78,0.1,0.84,0.65c0.49,4.16,3.9,6.79,8.8,6.83c0.69,0.01,1.39,0.01,2.08,0
			c0.82,0,1.64,0,2.46,0.01c0.09,0,0.2-0.01,0.3-0.01c0.38-0.03,0.8-0.06,0.81,0.33c0.02,0.54-0.68,0.34-1.08,0.34
			c-6.94,0.01-13.89,0.01-20.83,0.01c-6.91,0-13.83,0-20.74-0.01c-0.09,0-0.19,0.01-0.29,0.02c-0.37,0.03-0.8,0.07-0.8-0.36
			c0-0.36,0.39-0.34,0.73-0.31c0.11,0.01,0.22,0.02,0.31,0.01c0.86-0.03,1.73-0.03,2.59-0.02c1.18,0.01,2.36,0.02,3.53-0.07
			c3.88-0.29,7.03-2.96,7.4-6.3c0.12-1.09,0.12-1.09,1.44-1.09c2.37,0,4.74,0,7.1,0C47.81,65.13,49.59,65.13,51.36,65.12
			 M69.1,11.03c-1.1,0-2.19,0-3.29,0c-1.53,0-3.07,0-4.6,0.01c-0.06,0-0.12-0.01-0.18-0.02c-0.2-0.03-0.41-0.06-0.49,0.24
			c-0.24,0.85,0.02,1.16,1.02,1.16h4.28c3.72,0,7.44,0,11.16,0c1.71,0,3.26,0.35,4.39,1.57c1.08,0.94,1.33,2.12,1.33,3.36
			c0,13.8,0.01,27.6,0,41.39c0,3.18-2.13,5.01-5.83,5.01c-16.8,0-33.61,0-50.41,0c-4.82,0-9.63,0.02-14.45,0
			c-2.71-0.01-4.77-1.51-5.21-3.78c-0.27-1.38-0.11-2.78-0.09-4.16c-0.01-0.19-0.03-0.38-0.03-0.57c0-12.63-0.01-25.25-0.01-37.87
			c0-3.1,2.17-4.95,5.82-4.95c5.04,0,10.08-0.01,15.13,0.01c0.67,0,0.78-0.18,0.77-0.69c-0.01-0.51-0.07-0.74-0.79-0.73
			c-4.87,0.03-9.75,0.04-14.62,0.01c-1.99-0.01-3.88,0.24-5.47,1.34c-1.4,0.97-2.35,2.3-2.4,3.76c-0.15,5.06-0.05,10.12-0.05,15.19
			c0,9.17,0,18.34,0.02,27.5c0.01,3.85,2.95,6.34,7.44,6.34c5.21,0,10.42-0.01,15.63-0.01c2.49,0,4.98,0.02,7.47,0.03
			c0.27-0.07,0.35,0.04,0.35,0.25c-0.01,2.57-2.03,4.83-4.46,5.4c-0.65,0.29-1.36,0.36-2.08,0.35c-0.12,0-0.24,0.01-0.36,0.01
			c-0.3,0.01-0.61,0.03-0.92,0.03c-0.59,0-1.18,0-1.76,0c-1.01,0-2.02,0-3.02,0.01c-1.24,0.02-2.07,0.71-2.11,1.66
			c-0.04,1.08,0.84,1.6,1.96,1.75c0.3,0.04,0.61,0.02,0.92,0.02c5.06,0.01,10.12,0.02,15.18,0.03c0.31-0.01,0.62-0.03,0.92-0.03
			c8.44,0,16.87,0,25.3,0c0.34,0,0.68,0.01,1-0.04c0.9-0.12,1.53-0.63,1.67-1.31c0.25-1.19-0.62-2.06-2.11-2.08
			c-0.83-0.01-1.67,0-2.5,0c-1.02,0-2.04,0.01-3.05-0.01c-3.55-0.07-6.33-2.25-6.77-5.24c-0.09-0.6,0-0.87,0.86-0.86
			c7.45,0.03,14.91,0.01,22.36,0.03c1.21,0,2.36-0.19,3.44-0.64c2.8-1.18,3.89-3.23,3.89-5.78c0.01-13.66-0.01-27.32,0.01-40.98
			c0-2.32-0.76-4.29-2.99-5.72c-0.79-0.29-1.57-0.57-2.35-0.85c-0.62-0.06-1.23-0.11-1.85-0.17C74.48,11.01,71.79,11.02,69.1,11.03"
			/>
	</defs>
	<clipPath id="SVGID_31_">
		<use xlink:href="#SVGID_40_"  style="overflow:visible;"/>
	</clipPath>
	
		<radialGradient id="SVGID_32_" cx="-1011.5991" cy="6551.6499" r="1.0008" gradientTransform="matrix(35.9634 0 0 -35.9634 36425.1836 235662.25)" gradientUnits="userSpaceOnUse">
		<stop  offset="0" style="stop-color:#FFFFFF"/>
		<stop  offset="0.0134" style="stop-color:#FFFFFF"/>
		<stop  offset="0.0453" style="stop-color:#FBFFBF"/>
		<stop  offset="0.1543" style="stop-color:#E2F0A3"/>
		<stop  offset="0.3203" style="stop-color:#C1DD80"/>
		<stop  offset="0.4883" style="stop-color:#A8CE64"/>
		<stop  offset="0.6571" style="stop-color:#95C351"/>
		<stop  offset="0.8271" style="stop-color:#8BBD45"/>
		<stop  offset="1" style="stop-color:#87BB41"/>
		<stop  offset="1" style="stop-color:#87BB41"/>
	</radialGradient>
	<rect x="4.98" y="10.96" class="st12" width="79.38" height="63.73"/>
</g>
<g>
	<defs>
		<path id="SVGID_43_" d="M77,16.35c-5.29,0-10.57,0.02-15.86-0.01c-0.7,0-0.61,0.3-0.59,0.66c0.02,0.34-0.2,0.79,0.59,0.75
			c0.92-0.05,1.85-0.02,2.77-0.01c3.24,0.01,6.49,0.03,9.73,0.04c1.54-0.02,3.08,0.01,4.61-0.06c0.79-0.03,0.96,0.18,0.95,0.83
			c-0.02,12.03-0.02,24.05,0,36.07c0,0.67-0.21,0.81-0.96,0.81c-14.7-0.02-29.41-0.01-44.12-0.02c-0.28,0-0.56-0.02-0.84-0.03
			c-0.25,0.01-0.5,0.03-0.75,0.03c-2.06,0-4.11,0-6.17,0c-5.15,0-10.29,0-15.43,0.01c-0.69,0-0.88-0.13-0.87-0.74
			c0.02-12.08,0.02-24.15,0-36.22c0-0.6,0.16-0.75,0.86-0.75c5.6,0.03,11.21,0.01,16.81,0.03c0.59,0,0.75-0.18,0.66-0.62
			c-0.07-0.3,0.31-0.79-0.53-0.78c-6.28,0.02-12.55,0.01-18.83,0.01c-0.43,0-0.59,0.09-0.57,0.48c0.03,0.86,0.01,1.73,0.01,2.59
			c0,12.46,0.01,24.92,0.01,37.37c23.83,0,47.67,0,71.51,0.02c0.66,0,0.82-0.15,0.82-0.71c-0.02-13.01-0.02-26.01-0.02-39.02
			c0-0.1-0.01-0.2,0-0.29c0.05-0.35-0.12-0.45-0.52-0.45c-0.81,0.01-1.62-0.02-2.43-0.03C77.55,16.33,77.28,16.35,77,16.35"/>
	</defs>
	<clipPath id="SVGID_33_">
		<use xlink:href="#SVGID_43_"  style="overflow:visible;"/>
	</clipPath>
	
		<radialGradient id="SVGID_34_" cx="-1014.7169" cy="6525.8599" r="1.0005" gradientTransform="matrix(29.3127 0 0 -29.3127 29788.7754 191327.4063)" gradientUnits="userSpaceOnUse">
		<stop  offset="0" style="stop-color:#FFFFFF"/>
		<stop  offset="0.0134" style="stop-color:#FFFFFF"/>
		<stop  offset="0.0453" style="stop-color:#FBFFBF"/>
		<stop  offset="0.1543" style="stop-color:#E2F0A3"/>
		<stop  offset="0.3203" style="stop-color:#C1DD80"/>
		<stop  offset="0.4883" style="stop-color:#A8CE64"/>
		<stop  offset="0.6571" style="stop-color:#95C351"/>
		<stop  offset="0.8271" style="stop-color:#8BBD45"/>
		<stop  offset="1" style="stop-color:#87BB41"/>
		<stop  offset="1" style="stop-color:#87BB41"/>
	</radialGradient>
	<rect x="8.44" y="16.31" class="st13" width="72.4" height="40.49"/>
</g>
<g>
	<defs>
		<path id="SVGID_46_" d="M44.67,14.38c2.24-0.66,4.5-1.29,6.74-1.95c0.51-0.15,0.73-0.18,0.72,0.4c-0.04,1.56-0.04,3.12,0.01,4.67
			c0.02,0.5-0.22,0.66-0.74,0.73c-2.55,0.36-5.11,0.45-7.69,0.43c-2.21,0.01-4.42-0.06-6.6-0.36c-0.54-0.08-0.74-0.25-0.73-0.74
			c0.03-1.53,0.02-3.07-0.01-4.6c-0.01-0.51,0.14-0.62,0.71-0.44c2.07,0.64,4.17,1.23,6.24,1.86c0.23,0.07,0.45,0.11,0.66,0.11
			C44.21,14.49,44.43,14.45,44.67,14.38 M40.81,12.22c-1.78-0.68-3.68-1.11-5.52-1.67c-0.29-0.08-0.6-0.12-0.88-0.37
			c1.88-0.6,3.73-1.19,5.58-1.79c1.23-0.39,2.46-0.78,3.68-1.19C44,7.1,44.3,7.04,44.64,7.15c3.01,0.96,6.02,1.91,9.02,2.86
			c0.1,0.03,0.18,0.1,0.38,0.21c-1.79,0.52-3.48,1.01-5.18,1.5c-0.58,0.17-1.2,0.26-1.74,0.5c-1.02,0.45-2.01,0.65-3.01,0.65
			C43.02,12.88,41.93,12.64,40.81,12.22 M42,6.23c-0.18,0.09-0.41,0.13-0.62,0.19C40.64,6.76,39.84,7,39.03,7.19
			c-3.15,1.02-6.29,2.03-9.57,3.1c1.4,0.45,2.69,0.92,4.02,1.26c1.29,0.33,1.31,0.27,1.31,1.4c0,1.37,0,2.74,0.01,4.1
			c0,2.33,0.08,2.41,2.82,2.73c0.11,0.01,0.23,0.02,0.33,0.03c3.52,0.35,7.05,0.31,10.57,0.12c1.45-0.08,2.9-0.21,4.3-0.57
			c0.61-0.16,0.97-0.38,0.93-1.05c-0.09-1.37-0.03-2.73-0.04-4.1c0-0.7-0.01-1.39,0-2.09c0.01-0.6,0.67-0.55,1.05-0.61
			c0.5-0.08,0.26,0.36,0.27,0.57c0.04,0.55,0.01,1.1,0.01,1.65c0,0.42,0,0.79-0.38,1.17c-0.55,0.55-0.31,1.83,0.29,2.35
			c0.42,0.36,0.91,0.47,1.45,0.24c0.67-0.28,1.07-1.23,0.87-2.03c-0.02-0.07-0.03-0.15-0.08-0.21c-0.75-0.81-0.55-1.76-0.55-2.68
			c-0.01-1.61,0-1.61,1.82-2.15c0.14-0.04,0.27-0.11,0.45-0.19c-4.3-1.37-8.56-2.66-12.76-4.08c-0.73-0.25-1.42-0.39-2.1-0.39
			C43.37,5.75,42.7,5.9,42,6.23"/>
	</defs>
	<clipPath id="SVGID_35_">
		<use xlink:href="#SVGID_46_"  style="overflow:visible;"/>
	</clipPath>
	
		<radialGradient id="SVGID_36_" cx="-1040.5305" cy="6312.4204" r="1" gradientTransform="matrix(11.5839 0 0 -11.5839 12097.583 73135.2813)" gradientUnits="userSpaceOnUse">
		<stop  offset="0" style="stop-color:#FFFFFF"/>
		<stop  offset="0.0134" style="stop-color:#FFFFFF"/>
		<stop  offset="0.0453" style="stop-color:#FBFFBF"/>
		<stop  offset="0.1543" style="stop-color:#E2F0A3"/>
		<stop  offset="0.3203" style="stop-color:#C1DD80"/>
		<stop  offset="0.4883" style="stop-color:#A8CE64"/>
		<stop  offset="0.6571" style="stop-color:#95C351"/>
		<stop  offset="0.8271" style="stop-color:#8BBD45"/>
		<stop  offset="1" style="stop-color:#87BB41"/>
		<stop  offset="1" style="stop-color:#87BB41"/>
	</radialGradient>
	<rect x="29.46" y="5.75" class="st14" width="29.47" height="14.4"/>
</g>
<g>
	<defs>
		<path id="SVGID_49_" d="M59.84,31.2c-0.07-0.31-0.03-0.49,0.45-0.43c2.61,0.29,5.22,0.56,7.82,0.83c0.16,0.02,0.37-0.02,0.44,0.14
			c0.08,0.17-0.12,0.25-0.22,0.35c-0.37,0.35-0.78,0.69-1.13,1.06c-0.68,0.72-0.65,1.29,0.16,1.96c1.37,1.13,2.76,2.25,4.17,3.34
			c0.44,0.33,0.58,0.56,0.07,0.94c-0.52,0.39-0.94,1.14-1.47,1.19c-0.56,0.05-1.04-0.7-1.56-1.1c-1.04-0.8-2.04-1.64-3.09-2.43
			c-1.02-0.77-1.73-0.74-2.7,0.09c-0.44,0.37-0.84,0.76-1.41,1.27C60.85,35.9,60.35,33.55,59.84,31.2 M58.23,31.34
			c0.24,1.08,0.43,2.16,0.64,3.24c0.32,1.35,0.65,2.71,0.96,4.06c0.12,0.53,0.42,0.96,1.03,1.12c0.67,0.19,1.26-0.03,1.75-0.45
			c0.39-0.34,0.78-0.69,1.13-1.06c0.32-0.34,0.54-0.35,0.92-0.03c1.35,1.12,2.73,2.2,4.11,3.28c1.04,0.83,1.82,0.8,2.8-0.09
			c0.48-0.43,0.96-0.87,1.43-1.31c1.01-0.93,1.01-1.52-0.05-2.38c-1.13-0.92-2.29-1.83-3.44-2.74c-1.17-0.93-1.17-0.92-0.09-1.88
			c0.16-0.14,0.31-0.28,0.44-0.43c0.96-1.13,0.52-2.12-1.09-2.35c-1.24-0.18-2.49-0.3-3.73-0.45c-1.58-0.15-3.16-0.29-4.74-0.46
			c-0.18-0.02-0.34-0.03-0.5-0.03C58.5,29.39,57.95,30.06,58.23,31.34"/>
	</defs>
	<clipPath id="SVGID_37_">
		<use xlink:href="#SVGID_49_"  style="overflow:visible;"/>
	</clipPath>
	
		<radialGradient id="SVGID_38_" cx="-1067.2953" cy="6091.1133" r="1" gradientTransform="matrix(7.1193 0 0 -7.1193 7664.3594 43400.207)" gradientUnits="userSpaceOnUse">
		<stop  offset="0" style="stop-color:#FFFFFF"/>
		<stop  offset="0.0134" style="stop-color:#FFFFFF"/>
		<stop  offset="0.0453" style="stop-color:#FBFFBF"/>
		<stop  offset="0.1543" style="stop-color:#E2F0A3"/>
		<stop  offset="0.3203" style="stop-color:#C1DD80"/>
		<stop  offset="0.4883" style="stop-color:#A8CE64"/>
		<stop  offset="0.6571" style="stop-color:#95C351"/>
		<stop  offset="0.8271" style="stop-color:#8BBD45"/>
		<stop  offset="1" style="stop-color:#87BB41"/>
		<stop  offset="1" style="stop-color:#87BB41"/>
	</radialGradient>
	<rect x="57.95" y="29.39" class="st15" width="16.07" height="12.95"/>
</g>
<g>
	<defs>
		<path id="SVGID_52_" d="M30.26,45.55c0.56-0.02,0.82,0.12,0.81,0.63c-0.02,1.89-0.01,3.79-0.01,5.68c0,0.44-0.17,0.65-0.73,0.64
			c-2.21-0.02-4.42-0.02-6.63,0c-0.53,0-0.75-0.13-0.74-0.61c0.03-1.92,0.03-3.84,0-5.75c-0.01-0.5,0.23-0.6,0.75-0.59
			c1.09,0.03,2.18,0.01,3.27,0.01v-0.01c0.65,0,1.31,0.01,1.96,0.01C29.39,45.56,29.83,45.56,30.26,45.55 M23.48,44.17
			c-1.34,0.01-2.1,0.64-2.11,1.78c-0.02,2.04-0.02,4.08,0,6.12c0.01,1.14,0.68,1.72,2.02,1.76c1.2,0.03,2.41,0.01,3.61,0.01v0
			c1.12,0,2.24,0,3.36,0c0.08,0,0.17,0,0.25-0.01c1.35-0.07,2-0.6,2.01-1.76c0.03-2.04,0.03-4.08,0-6.12
			c-0.02-1.17-0.73-1.78-2.09-1.79c-1.08-0.01-2.16-0.01-3.24-0.01C26.03,44.16,24.76,44.16,23.48,44.17"/>
	</defs>
	<clipPath id="SVGID_39_">
		<use xlink:href="#SVGID_52_"  style="overflow:visible;"/>
	</clipPath>
	
		<radialGradient id="SVGID_41_" cx="-1091.8318" cy="5888.2295" r="1.0006" gradientTransform="matrix(5.2606 0 0 -5.2606 5770.6694 31024.4922)" gradientUnits="userSpaceOnUse">
		<stop  offset="0" style="stop-color:#FFFFFF"/>
		<stop  offset="0.0134" style="stop-color:#FFFFFF"/>
		<stop  offset="0.0453" style="stop-color:#FBFFBF"/>
		<stop  offset="0.1543" style="stop-color:#E2F0A3"/>
		<stop  offset="0.3203" style="stop-color:#C1DD80"/>
		<stop  offset="0.4883" style="stop-color:#A8CE64"/>
		<stop  offset="0.6571" style="stop-color:#95C351"/>
		<stop  offset="0.8271" style="stop-color:#8BBD45"/>
		<stop  offset="1" style="stop-color:#87BB41"/>
		<stop  offset="1" style="stop-color:#87BB41"/>
	</radialGradient>
	<rect x="21.35" y="44.16" class="st16" width="11.31" height="9.71"/>
</g>
<g>
	<defs>
		<path id="SVGID_55_" d="M30.38,33.73c0.49-0.01,0.7,0.14,0.7,0.58c-0.02,1.92-0.01,3.83,0,5.75c0,0.47-0.23,0.62-0.76,0.62
			c-2.21-0.02-4.42-0.02-6.63-0.01c-0.55,0.01-0.73-0.16-0.71-0.63c0.03-0.96,0.01-1.92,0.01-2.87c0-0.93,0.01-1.87-0.01-2.8
			c-0.01-0.44,0.12-0.64,0.69-0.63c0.97,0.01,1.95,0.01,2.92,0.01C27.85,33.74,29.12,33.73,30.38,33.73 M23.43,32.35
			c-1.29,0.01-2.04,0.66-2.05,1.75c-0.03,2.06-0.03,4.12,0,6.18c0.02,1.09,0.74,1.68,2,1.7c1.2,0.02,2.41,0,3.61,0v0
			c1.2,0,2.41,0.01,3.61,0c1.33-0.02,2.01-0.58,2.03-1.73c0.03-2.06,0.02-4.12-0.01-6.18c-0.01-1.12-0.73-1.72-2.05-1.73
			c-1.14-0.01-2.29-0.01-3.43-0.01C25.9,32.34,24.67,32.34,23.43,32.35"/>
	</defs>
	<clipPath id="SVGID_42_">
		<use xlink:href="#SVGID_55_"  style="overflow:visible;"/>
	</clipPath>
	
		<radialGradient id="SVGID_44_" cx="-1091.9354" cy="5887.3745" r="1.0014" gradientTransform="matrix(5.2548 0 0 -5.2548 5764.9043 30974.168)" gradientUnits="userSpaceOnUse">
		<stop  offset="0" style="stop-color:#FFFFFF"/>
		<stop  offset="0.0134" style="stop-color:#FFFFFF"/>
		<stop  offset="0.0453" style="stop-color:#FBFFBF"/>
		<stop  offset="0.1543" style="stop-color:#E2F0A3"/>
		<stop  offset="0.3203" style="stop-color:#C1DD80"/>
		<stop  offset="0.4883" style="stop-color:#A8CE64"/>
		<stop  offset="0.6571" style="stop-color:#95C351"/>
		<stop  offset="0.8271" style="stop-color:#8BBD45"/>
		<stop  offset="1" style="stop-color:#87BB41"/>
		<stop  offset="1" style="stop-color:#87BB41"/>
	</radialGradient>
	<rect x="21.34" y="32.34" class="st17" width="11.31" height="9.67"/>
</g>
<g>
	<defs>
		<path id="SVGID_58_" d="M39.31,23.39c-0.68,0-0.8,0.17-0.82,0.71c-0.03,0.63,0.27,0.68,0.87,0.68c4.17-0.02,8.34-0.01,12.51-0.01
			v0c4.17,0,8.34-0.01,12.51,0.01c0.61,0,0.89-0.07,0.86-0.68c-0.02-0.54-0.14-0.71-0.82-0.71C56.04,23.41,47.68,23.41,39.31,23.39"
			/>
	</defs>
	<clipPath id="SVGID_45_">
		<use xlink:href="#SVGID_58_"  style="overflow:visible;"/>
	</clipPath>
	
		<radialGradient id="SVGID_47_" cx="-1050.0682" cy="6233.5591" r="1.0002" gradientTransform="matrix(9.4681 0 0 -9.4681 9993.999 59043.9844)" gradientUnits="userSpaceOnUse">
		<stop  offset="0" style="stop-color:#FFFFFF"/>
		<stop  offset="0.0134" style="stop-color:#FFFFFF"/>
		<stop  offset="0.0453" style="stop-color:#FBFFBF"/>
		<stop  offset="0.1543" style="stop-color:#E2F0A3"/>
		<stop  offset="0.3203" style="stop-color:#C1DD80"/>
		<stop  offset="0.4883" style="stop-color:#A8CE64"/>
		<stop  offset="0.6571" style="stop-color:#95C351"/>
		<stop  offset="0.8271" style="stop-color:#8BBD45"/>
		<stop  offset="1" style="stop-color:#87BB41"/>
		<stop  offset="1" style="stop-color:#87BB41"/>
	</radialGradient>
	<rect x="38.46" y="23.39" class="st18" width="26.8" height="1.4"/>
</g>
<g>
	<defs>
		<path id="SVGID_61_" d="M39.03,45.9c-0.69-0.01-0.53,0.37-0.5,0.67c0.03,0.29-0.3,0.76,0.48,0.74c0.83-0.03,1.67,0.01,2.51,0.02
			c0.31-0.01,0.61-0.04,0.92-0.04c6.47,0,12.93-0.01,19.39,0.01c0.61,0,0.84-0.09,0.8-0.66c-0.03-0.49-0.05-0.76-0.8-0.75
			c-5.63,0.03-11.25,0.02-16.88,0.02c-0.3,0-0.61-0.03-0.91-0.04C42.37,45.89,40.7,45.93,39.03,45.9"/>
	</defs>
	<clipPath id="SVGID_48_">
		<use xlink:href="#SVGID_61_"  style="overflow:visible;"/>
	</clipPath>
	
		<radialGradient id="SVGID_50_" cx="-1055.6466" cy="6187.4321" r="1" gradientTransform="matrix(8.5542 0 0 -8.5542 9080.7744 52975.1328)" gradientUnits="userSpaceOnUse">
		<stop  offset="0" style="stop-color:#FFFFFF"/>
		<stop  offset="0.0134" style="stop-color:#FFFFFF"/>
		<stop  offset="0.0453" style="stop-color:#FBFFBF"/>
		<stop  offset="0.1543" style="stop-color:#E2F0A3"/>
		<stop  offset="0.3203" style="stop-color:#C1DD80"/>
		<stop  offset="0.4883" style="stop-color:#A8CE64"/>
		<stop  offset="0.6571" style="stop-color:#95C351"/>
		<stop  offset="0.8271" style="stop-color:#8BBD45"/>
		<stop  offset="1" style="stop-color:#87BB41"/>
		<stop  offset="1" style="stop-color:#87BB41"/>
	</radialGradient>
	<rect x="38.23" y="45.88" class="st19" width="24.44" height="1.46"/>
</g>
<g>
	<defs>
		<path id="SVGID_64_" d="M39.26,50.74c-0.25,0-0.5,0.03-0.75,0.04c-0.01,0.09-0.01,0.18-0.02,0.27c0.09,1.02,0.09,1.02,1.29,1.02
			c4.84,0,9.68,0,14.52,0c2.54,0,5.09,0,7.64,0c0.05,0,0.11,0.01,0.17,0.01c0.19,0.02,0.38,0.04,0.5-0.18
			c0.32-0.61-0.08-1.17-0.84-1.17C54.25,50.74,46.75,50.74,39.26,50.74"/>
	</defs>
	<clipPath id="SVGID_51_">
		<use xlink:href="#SVGID_64_"  style="overflow:visible;"/>
	</clipPath>
	
		<radialGradient id="SVGID_53_" cx="-1055.4954" cy="6188.6821" r="1" gradientTransform="matrix(8.5766 0 0 -8.5766 9103.1934 53129.4883)" gradientUnits="userSpaceOnUse">
		<stop  offset="0" style="stop-color:#FFFFFF"/>
		<stop  offset="0.0134" style="stop-color:#FFFFFF"/>
		<stop  offset="0.0453" style="stop-color:#FBFFBF"/>
		<stop  offset="0.1543" style="stop-color:#E2F0A3"/>
		<stop  offset="0.3203" style="stop-color:#C1DD80"/>
		<stop  offset="0.4883" style="stop-color:#A8CE64"/>
		<stop  offset="0.6571" style="stop-color:#95C351"/>
		<stop  offset="0.8271" style="stop-color:#8BBD45"/>
		<stop  offset="1" style="stop-color:#87BB41"/>
		<stop  offset="1" style="stop-color:#87BB41"/>
	</radialGradient>
	<rect x="38.48" y="50.74" class="st20" width="24.43" height="1.38"/>
</g>
<g>
	<defs>
		<path id="SVGID_67_" d="M55.16,37.79c-5.34,0-10.69,0.01-16.03-0.01c-0.67,0-0.64,0.27-0.61,0.64c0.03,0.34-0.2,0.78,0.59,0.74
			c1.17-0.06,2.35-0.02,3.53-0.01c2.38,0.01,4.75,0.04,7.13,0.05c1.2-0.08,2.41-0.07,3.62-0.06c0.8,0.01,1.6,0.01,2.4-0.01
			c0.05,0,0.12,0.01,0.19,0.01c0.24,0.03,0.52,0.05,0.45-0.31c-0.07-0.37,0.44-0.95-0.43-1.09C55.72,37.77,55.44,37.79,55.16,37.79"
			/>
	</defs>
	<clipPath id="SVGID_54_">
		<use xlink:href="#SVGID_67_"  style="overflow:visible;"/>
	</clipPath>
	
		<radialGradient id="SVGID_56_" cx="-1075.265" cy="6025.2153" r="1" gradientTransform="matrix(6.3864 0 0 -6.3864 6914.5542 38517.7617)" gradientUnits="userSpaceOnUse">
		<stop  offset="0" style="stop-color:#FFFFFF"/>
		<stop  offset="0.0134" style="stop-color:#FFFFFF"/>
		<stop  offset="0.0453" style="stop-color:#FBFFBF"/>
		<stop  offset="0.1543" style="stop-color:#E2F0A3"/>
		<stop  offset="0.3203" style="stop-color:#C1DD80"/>
		<stop  offset="0.4883" style="stop-color:#A8CE64"/>
		<stop  offset="0.6571" style="stop-color:#95C351"/>
		<stop  offset="0.8271" style="stop-color:#8BBD45"/>
		<stop  offset="1" style="stop-color:#87BB41"/>
		<stop  offset="1" style="stop-color:#87BB41"/>
	</radialGradient>
	<rect x="38.32" y="37.76" class="st21" width="18.55" height="1.45"/>
</g>
<g>
	<defs>
		<path id="SVGID_70_" d="M38.5,33.7c-0.05,0.54,0.14,0.68,0.78,0.67c3.27-0.03,6.55-0.02,9.82-0.01c2.41,0,4.81,0.02,7.22,0.03
			c0.06-0.11,0.11-0.22,0.17-0.33c-0.24-0.36,0.46-1.1-0.73-1.09c-5.51,0.03-11.02,0.03-16.54-0.01c0,0-0.01,0-0.01,0
			C38.49,32.97,38.54,33.26,38.5,33.7"/>
	</defs>
	<clipPath id="SVGID_57_">
		<use xlink:href="#SVGID_70_"  style="overflow:visible;"/>
	</clipPath>
	
		<radialGradient id="SVGID_59_" cx="-1075.3217" cy="6024.7466" r="1" gradientTransform="matrix(6.3817 0 0 -6.3817 6909.8721 38481.793)" gradientUnits="userSpaceOnUse">
		<stop  offset="0" style="stop-color:#FFFFFF"/>
		<stop  offset="0.0134" style="stop-color:#FFFFFF"/>
		<stop  offset="0.0453" style="stop-color:#FBFFBF"/>
		<stop  offset="0.1543" style="stop-color:#E2F0A3"/>
		<stop  offset="0.3203" style="stop-color:#C1DD80"/>
		<stop  offset="0.4883" style="stop-color:#A8CE64"/>
		<stop  offset="0.6571" style="stop-color:#95C351"/>
		<stop  offset="0.8271" style="stop-color:#8BBD45"/>
		<stop  offset="1" style="stop-color:#87BB41"/>
		<stop  offset="1" style="stop-color:#87BB41"/>
	</radialGradient>
	<rect x="38.46" y="32.96" class="st22" width="18.49" height="1.42"/>
</g>
<g>
	<defs>
		<path id="SVGID_73_" d="M29.08,71.19c0.12,0,0.24-0.01,0.36-0.01c-0.07-0.06-0.13-0.13-0.19-0.2
			C29.19,71.05,29.14,71.12,29.08,71.19"/>
	</defs>
	<clipPath id="SVGID_60_">
		<use xlink:href="#SVGID_73_"  style="overflow:visible;"/>
	</clipPath>
	
		<radialGradient id="SVGID_62_" cx="-4349.1265" cy="-21044.9746" r="1.001" gradientTransform="matrix(0.1475 0 0 -0.1475 670.8623 -3033.5601)" gradientUnits="userSpaceOnUse">
		<stop  offset="0" style="stop-color:#FFFFFF"/>
		<stop  offset="0.0134" style="stop-color:#FFFFFF"/>
		<stop  offset="0.0453" style="stop-color:#FBFFBF"/>
		<stop  offset="0.1543" style="stop-color:#E2F0A3"/>
		<stop  offset="0.3203" style="stop-color:#C1DD80"/>
		<stop  offset="0.4883" style="stop-color:#A8CE64"/>
		<stop  offset="0.6571" style="stop-color:#95C351"/>
		<stop  offset="0.8271" style="stop-color:#8BBD45"/>
		<stop  offset="1" style="stop-color:#87BB41"/>
		<stop  offset="1" style="stop-color:#87BB41"/>
	</radialGradient>
	<rect x="29.08" y="70.98" class="st23" width="0.36" height="0.21"/>
</g>
<g>
	<defs>
		<path id="SVGID_76_" d="M42.99,60.25c-0.02-0.85,0.73-1.54,1.69-1.56c0.96-0.02,1.76,0.65,1.77,1.49
			c0.01,0.83-0.78,1.52-1.74,1.52C43.79,61.71,43,61.04,42.99,60.25 M41.37,60.1c-0.05,1.61,1.39,2.91,3.26,2.96
			c1.86,0.05,3.39-1.2,3.43-2.8c0.04-1.6-1.43-2.9-3.3-2.92c-0.02,0-0.04,0-0.06,0C42.91,57.33,41.42,58.56,41.37,60.1"/>
	</defs>
	<clipPath id="SVGID_63_">
		<use xlink:href="#SVGID_76_"  style="overflow:visible;"/>
	</clipPath>
	
		<radialGradient id="SVGID_65_" cx="-1156.6123" cy="5352.6011" r="1.0008" gradientTransform="matrix(3.1141 0 0 -3.1141 3646.5222 16728.7578)" gradientUnits="userSpaceOnUse">
		<stop  offset="0" style="stop-color:#FFFFFF"/>
		<stop  offset="0.0134" style="stop-color:#FFFFFF"/>
		<stop  offset="0.0453" style="stop-color:#FBFFBF"/>
		<stop  offset="0.1543" style="stop-color:#E2F0A3"/>
		<stop  offset="0.3203" style="stop-color:#C1DD80"/>
		<stop  offset="0.4883" style="stop-color:#A8CE64"/>
		<stop  offset="0.6571" style="stop-color:#95C351"/>
		<stop  offset="0.8271" style="stop-color:#8BBD45"/>
		<stop  offset="1" style="stop-color:#87BB41"/>
		<stop  offset="1" style="stop-color:#87BB41"/>
	</radialGradient>
	<rect x="41.32" y="57.33" class="st24" width="6.78" height="5.78"/>
</g>
</svg>
