<?xml version="1.0" encoding="utf-8"?>
<!-- Generator: Adobe Illustrator 23.0.5, SVG Export Plug-In . SVG Version: 6.00 Build 0)  -->
<svg version="1.1" id="Layer_1" xmlns="http://www.w3.org/2000/svg" xmlns:xlink="http://www.w3.org/1999/xlink" x="0px" y="0px"
	 viewBox="0 0 67.92 70.3" style="enable-background:new 0 0 67.92 70.3;" xml:space="preserve">
<style type="text/css">
	.st0{clip-path:url(#SVGID_1_);fill:url(#SVGID_2_);}
	.st1{clip-path:url(#SVGID_3_);fill:url(#SVGID_4_);}
	.st2{clip-path:url(#SVGID_5_);fill:url(#SVGID_6_);}
	.st3{clip-path:url(#SVGID_7_);fill:url(#SVGID_8_);}
	.st4{clip-path:url(#SVGID_9_);fill:url(#SVGID_10_);}
	.st5{clip-path:url(#SVGID_11_);fill:url(#SVGID_12_);}
</style>
<g>
	<defs>
		<path id="SVGID_19_" d="M17,38.23c0.09-1.09,0.1-2.2,0-3.29c-0.09-0.97,0.32-1.15,1.27-1.12c2.19,0.06,3.4,0.81,3.63,2.4
			c0.31,2.04-0.98,3.29-3.58,3.32c-0.2,0.05-0.37,0.07-0.52,0.07C17.13,39.61,16.92,39.12,17,38.23 M16.19,32.37
			c-0.73,0-0.87,0.55-0.87,1.12c0.01,1.05,0,2.1,0,3.16h-0.01c0,0.26,0,0.53,0,0.79c0,3.97,0.07,4.03,4.32,3.55
			c2.17-0.25,3.87-1.87,4.11-3.92c0.22-1.92-1.14-3.82-3.2-4.45c-0.77-0.24-1.56-0.29-2.35-0.29
			C17.52,32.32,16.85,32.36,16.19,32.37"/>
	</defs>
	<clipPath id="SVGID_1_">
		<use xlink:href="#SVGID_19_"  style="overflow:visible;"/>
	</clipPath>
	
		<linearGradient id="SVGID_2_" gradientUnits="userSpaceOnUse" x1="-909.7882" y1="5995.3159" x2="-908.7882" y2="5995.3159" gradientTransform="matrix(8.4486 0 0 -8.4486 7701.7783 50689.082)">
		<stop  offset="0" style="stop-color:#045D80"/>
		<stop  offset="1" style="stop-color:#87BB41"/>
	</linearGradient>
	<rect x="15.32" y="32.32" class="st0" width="8.65" height="9.14"/>
</g>
<g>
	<defs>
		<path id="SVGID_22_" d="M26.83,37.25c0.29-1.13,1.7-1.76,2.7-1.2c0.36,0.2,0.64,0.58,0.54,0.99c-0.08,0.3-0.34,0.26-0.58,0.22
			c-0.09-0.01-0.18-0.03-0.26-0.03c-0.33,0.01-0.66,0.02-0.99,0.02C27.76,37.26,27.3,37.25,26.83,37.25 M25.42,36.16
			c-0.73,1.39-0.44,3.1,0.72,4.12c1.16,1.03,3.06,1.22,4.45,0.42c0.45-0.26,1.13-0.52,0.68-1.19c-0.4-0.61-0.87-0.17-1.33,0.03
			c-1.46,0.65-2.56,0.26-3.15-1.2c1.12,0,2.11,0.03,3.1-0.01c0.15,0,0.32,0.01,0.49,0.03c0.51,0.04,1.04,0.09,1.31-0.44
			c0.36-0.72,0.07-1.47-0.38-2.11c-0.5-0.72-1.18-1.23-2.13-1.39c-0.23-0.04-0.46-0.06-0.69-0.06C27.17,34.36,26.03,35,25.42,36.16"
			/>
	</defs>
	<clipPath id="SVGID_3_">
		<use xlink:href="#SVGID_22_"  style="overflow:visible;"/>
	</clipPath>
	
		<linearGradient id="SVGID_4_" gradientUnits="userSpaceOnUse" x1="-896.236" y1="5841.3682" x2="-895.236" y2="5841.3682" gradientTransform="matrix(6.8218 0 0 -6.8218 6138.9536 39886.5273)">
		<stop  offset="0" style="stop-color:#045D80"/>
		<stop  offset="1" style="stop-color:#87BB41"/>
	</linearGradient>
	<rect x="24.69" y="34.36" class="st1" width="7.35" height="7.15"/>
</g>
<g>
	<defs>
		<path id="SVGID_25_" d="M47.18,37.82c-0.04-1.17,0.83-2.08,2.02-2.1c1.18-0.02,2.08,0.85,2.1,2.03c0.01,1.23-0.57,1.72-2.08,1.74
			c-0.02,0-0.04,0-0.06,0C47.84,39.5,47.22,38.97,47.18,37.82 M49.17,34.35c-2.09,0.04-3.76,1.64-3.69,3.56
			c0.07,1.84,1.82,3.35,3.84,3.3c2-0.05,3.71-1.64,3.72-3.45c0.01-1.86-1.73-3.41-3.79-3.41C49.22,34.34,49.2,34.34,49.17,34.35"/>
	</defs>
	<clipPath id="SVGID_5_">
		<use xlink:href="#SVGID_25_"  style="overflow:visible;"/>
	</clipPath>
	
		<linearGradient id="SVGID_6_" gradientUnits="userSpaceOnUse" x1="-903.0737" y1="5919.0581" x2="-902.0737" y2="5919.0581" gradientTransform="matrix(7.5559 0 0 -7.5559 6868.9927 44761.457)">
		<stop  offset="0" style="stop-color:#045D80"/>
		<stop  offset="1" style="stop-color:#87BB41"/>
	</linearGradient>
	<rect x="45.42" y="34.35" class="st2" width="7.63" height="6.91"/>
</g>
<g>
	<defs>
		<path id="SVGID_28_" d="M16.48,62.33c-1.47,0-1.6-0.19-0.83-1.33c0.93-1.38,2.25-2.3,4.05-2.31c9.46-0.03,18.93-0.04,28.39-0.01
			c2.32,0.01,4.13,1.51,4.56,3.65h-9.63C34.18,62.33,25.33,62.33,16.48,62.33 M36.47,51.74c0.63-0.02,0.81,0.18,0.79,0.75
			c-0.04,1.09-0.07,2.19,0.01,3.29c0.05,0.75-0.28,0.86-0.97,0.82c-0.8-0.05-1.6-0.01-2.6-0.01c-0.3-0.04-0.68,0.01-1.06,0.05
			c-0.7,0.08-1.43,0.17-1.83-0.26c-0.52-0.55-0.15-1.83-0.15-2.8c-0.01-1.82,0-1.82,2.01-1.82c0.74,0,1.48,0.01,2.22,0.01
			C35.4,51.76,35.93,51.76,36.47,51.74 M48.48,19.51c0.3-1.24,0.78-1.61,2.09-1.51c1.01,0.08,2.03,0.06,3.04,0.05
			c0.54-0.01,1.09-0.02,1.64-0.01c2.22,0.03,3.36,1.03,3.37,3.06c0.02,6.95,0.02,13.9,0,20.85c-0.01,2.18-1.07,3.09-3.43,3.09
			c-7.09,0-14.18,0-21.28,0c-7,0-14,0-21,0c-2.65,0-3.65-0.87-3.65-3.28c-0.02-6.86-0.02-13.72,0-20.59c0-2.1,1.14-3.12,3.43-3.13
			c0.77,0,1.55,0,2.32,0c1.26,0.01,2.52,0.01,3.77-0.03c0.81-0.03,1.09,0.19,1.28,0.94c1.59,6.12,6.19,10,12.89,10.7
			c0.57,0.06,1.13,0.09,1.68,0.09C41.85,29.74,47.2,24.75,48.48,19.51 M19.13,13.5c0.46-0.04,0.99-0.07,0.75,0.7
			c-0.2,0.65,0.5,1.82-1.11,1.79c-2.13-0.05-4.26-0.02-6.39-0.01c-3.02,0.02-5.32,1.92-5.36,4.73c-0.09,7.26-0.09,14.52-0.01,21.78
			c0.03,2.78,2.38,4.63,5.58,4.63c14.05,0.01,28.1,0,42.15,0c4.23,0,6.16-1.82,6.16-5.79c0-6.56,0-13.11,0-19.67
			c0-3.8-2.02-5.68-6.07-5.68c-0.74,0-1.47,0-2.21,0c-0.92,0-1.84,0-2.76,0c-1.61,0.01-0.8-1.2-1.02-1.85
			c-0.29-0.84,0.52-0.62,0.96-0.62c3.64-0.02,7.28-0.03,10.93,0c2.42,0.02,4.1,1.54,4.1,3.82c0.03,9.5,0.03,19.01,0,28.52
			c-0.01,2.36-1.7,3.76-4.45,3.77c-8.84,0.01-17.69,0-26.54,0c-8.66,0-17.32,0-25.97,0c-3.36,0-4.84-1.36-4.84-4.48
			c-0.01-9.07,0-18.13,0-27.2c0-3.04,1.5-4.43,4.74-4.44c3.69,0,7.38-0.01,11.07,0.01c0.01,0,0.02,0,0.04,0
			C18.96,13.51,19.04,13.5,19.13,13.5 M22.03,16.57C21.74,10.05,27.1,5.19,32.59,4.84c8.54-0.54,13.6,3.74,14,11.41
			c0.28,5.45-4.84,11.09-10.26,11.28c-0.28,0.01-0.55,0.01-0.82,0.01C27.56,27.55,22.33,23.34,22.03,16.57 M21.09,10.54
			c-0.39,0.74-0.82,0.89-1.59,0.88c-3.93-0.03-7.85-0.02-11.78-0.01c-4.39,0.01-6.95,2.39-6.96,6.47c0,9.11-0.01,18.22,0,27.33
			c0,4.14,2.6,6.52,7.08,6.53c3.16,0.01,6.32,0,9.48,0c2.37,0,4.74,0,7.12,0c0.38,0,0.8-0.04,1.22-0.07c1-0.09,2.01-0.18,2.47,0.24
			c0.85,0.78,0.15,2.42,0.29,3.67c0.09,0.83-0.24,1.03-1.11,1.02c-2.65-0.04-5.3-0.07-7.94,0.03c-3.29,0.13-6.2,2.76-6.56,5.77
			c-0.2,1.7,0.11,2.03,1.96,2.03c6.34,0,12.68,0,19.02,0c6.48,0,12.96,0,19.44,0c1.7,0,2.01-0.33,1.84-1.88
			c-0.35-3.23-3.28-5.83-6.83-5.94c-2.5-0.08-5.01-0.07-7.52-0.01c-0.95,0.02-1.39-0.15-1.27-1.13c0.1-0.83,0.11-1.68,0-2.5
			c-0.15-1.11,0.38-1.26,1.42-1.25c6.48,0.04,12.96,0.03,19.44,0.01c4.11-0.01,6.8-2.43,6.82-6.24c0.04-9.29,0.04-18.57,0-27.86
			c-0.02-3.83-2.66-6.2-6.8-6.22c-3.74-0.02-7.48-0.03-11.21,0.01c-0.76,0.01-1.11-0.19-1.46-0.85c-2.69-5.12-7.15-7.95-13.27-7.97
			c-0.01,0-0.02,0-0.03,0C28.24,2.61,23.79,5.44,21.09,10.54"/>
	</defs>
	<clipPath id="SVGID_7_">
		<use xlink:href="#SVGID_28_"  style="overflow:visible;"/>
	</clipPath>
	
		<linearGradient id="SVGID_8_" gradientUnits="userSpaceOnUse" x1="-959.3857" y1="6558.7192" x2="-958.3856" y2="6558.7192" gradientTransform="matrix(66.4026 0 0 -66.4026 63706.457 435549.5313)">
		<stop  offset="0" style="stop-color:#045D80"/>
		<stop  offset="1" style="stop-color:#87BB41"/>
	</linearGradient>
	<rect x="0.75" y="2.61" class="st3" width="66.41" height="61.83"/>
</g>
<g>
	<defs>
		<path id="SVGID_31_" d="M36.17,34.53c-0.58,0.27-0.99,0.71-1.72,0c-0.43-0.42-1.05,0.14-1.1,0.76c-0.06,0.79-0.01,1.58-0.01,2.38
			h-0.01c0,0.75,0,1.49,0,2.24c0,0.57,0.12,1.12,0.86,1.14c0.74,0.02,0.89-0.52,0.9-1.1c0.01-0.97-0.01-1.94,0.04-2.9
			c0.04-0.83,0.55-1.31,1.47-1.26c0.86,0.05,1.22,0.58,1.23,1.34c0.01,0.92,0.01,1.85,0.01,2.77c0,0.57,0.08,1.12,0.84,1.14
			c0.78,0.03,0.86-0.53,0.86-1.1c0-0.92-0.02-1.85,0.03-2.77c0.05-0.86,0.52-1.44,1.51-1.39c0.93,0.05,1.26,0.67,1.26,1.47
			c0.01,0.92,0.01,1.85,0,2.77c-0.01,0.55,0.16,1,0.82,1.02c0.68,0.03,0.85-0.41,0.84-0.97c-0.01-1.19,0.03-2.38-0.02-3.56
			c-0.06-1.36-1.11-2.42-2.46-2.12c-1.52,0.34-2.92,0.76-4.41-0.03c-0.05-0.03-0.13-0.04-0.2-0.04
			C36.68,34.33,36.38,34.44,36.17,34.53"/>
	</defs>
	<clipPath id="SVGID_9_">
		<use xlink:href="#SVGID_31_"  style="overflow:visible;"/>
	</clipPath>
	
		<linearGradient id="SVGID_10_" gradientUnits="userSpaceOnUse" x1="-921.6766" y1="6130.3853" x2="-920.6766" y2="6130.3853" gradientTransform="matrix(10.6837 0 0 -10.6837 9880.2207 65532.6367)">
		<stop  offset="0" style="stop-color:#045D80"/>
		<stop  offset="1" style="stop-color:#87BB41"/>
	</linearGradient>
	<rect x="33.3" y="34.1" class="st4" width="10.74" height="6.97"/>
</g>
<g>
	<defs>
		<path id="SVGID_34_" d="M31.71,10.94c2.77,1.57,5.42,3.08,8.22,4.67c-2.74,1.57-5.41,3.09-8.22,4.7V10.94z M29.91,8.17
			c-0.62,0.36-0.59,0.95-0.58,1.53c0.01,1.98,0,3.96,0,5.93s-0.01,3.96,0,5.93c0.01,1.69,0.73,2.1,2.25,1.24
			c3.5-1.98,7-3.98,10.48-5.99c1.52-0.88,1.53-1.53,0.03-2.39c-3.49-2-6.99-3.99-10.49-5.98c-0.36-0.21-0.72-0.43-1.12-0.43
			C30.3,8.01,30.11,8.05,29.91,8.17"/>
	</defs>
	<clipPath id="SVGID_11_">
		<use xlink:href="#SVGID_34_"  style="overflow:visible;"/>
	</clipPath>
	
		<linearGradient id="SVGID_12_" gradientUnits="userSpaceOnUse" x1="-932.0283" y1="6247.9468" x2="-931.0283" y2="6247.9468" gradientTransform="matrix(13.8811 0 0 -13.8811 12966.9492 86744.5)">
		<stop  offset="0" style="stop-color:#045D80"/>
		<stop  offset="1" style="stop-color:#87BB41"/>
	</linearGradient>
	<rect x="29.29" y="8.01" class="st5" width="14.3" height="15.66"/>
</g>
</svg>
