<svg id="Layer_1" data-name="Layer 1" xmlns="http://www.w3.org/2000/svg" xmlns:xlink="http://www.w3.org/1999/xlink" viewBox="0 0 81.03 80.16"><defs><style>.cls-1{fill:none;}.cls-2{clip-path:url(#clip-path);}.cls-3{fill:url(#radial-gradient);}</style><clipPath id="clip-path" transform="translate(-7.47 -5.49)"><path id="SVGID" class="cls-1" d="M80,64.7s0-.11,0-.17a6.69,6.69,0,0,1,1.75-3.2c.14-.13.26-.23.45-.15h0c-.59,1.07-1.15,2.15-1.82,3.18a2.68,2.68,0,0,1-.18.28.17.17,0,0,1-.13.09l-.07,0m4.25-9.5c-1-.07-1-.05-1.25-1a49.12,49.12,0,0,0-2.66-7.09c-.23-.46-.5-.9-.75-1.35a3.59,3.59,0,0,1-.42-1c-.07-.26-.13-.52.16-.67a.62.62,0,0,1,.79.17,17.21,17.21,0,0,1,1.62,2.26,2.37,2.37,0,0,1,.23,1.12c0,.32,0,.64,0,1a1.14,1.14,0,0,0,.67,1.17.66.66,0,0,1,.4.69,6.05,6.05,0,0,0,.77,2.55.48.48,0,0,0,.59.28l.68-.14c-.17.61-.33,1.15-.46,1.69,0,.2-.11.29-.32.29h-.06m1.84-11.29v.77a.6.6,0,0,1,0-.77M27.35,76.76a37.89,37.89,0,0,1-15.81-18.7A36.69,36.69,0,0,1,9,44.32c0-.18,0-.35,0-.53s.06-.32.34-.31c.89,0,.9,0,1.05.93a19.82,19.82,0,0,0,.41,2.28,4.76,4.76,0,0,0,.28.71.45.45,0,0,0,.54.3.59.59,0,0,0,.46-.5,1.69,1.69,0,0,0-.08-.71c-.09-.36-.2-.71-.3-1.07a.55.55,0,0,1,.13-.62.71.71,0,0,1,.74-.08,1.31,1.31,0,0,1,.69.82,10.34,10.34,0,0,1,.61,2.91,9.62,9.62,0,0,0,.38,2A1.7,1.7,0,0,0,16,51.69h2.46a1.43,1.43,0,0,1,1,.29,1.07,1.07,0,0,0,.58.2,3.77,3.77,0,0,1,2.93,2.38c.17.37.38.74.58,1.11s.29.41.51.05a.45.45,0,0,1,.63-.18,1.68,1.68,0,0,0,.32.09c1.27.33,1.45.65,1.14,1.93a4.34,4.34,0,0,1-.83,1.61l-.39.49a1.72,1.72,0,0,0-.14,2.25,22.7,22.7,0,0,0,4.12,5.28,2.21,2.21,0,0,0,.49.39c1.25.54,1.45,1.66,1.57,2.81a35.83,35.83,0,0,1-.14,6.79c0,.44-.1.88-.15,1.37a30.5,30.5,0,0,1-3.3-1.78M79.83,33.08a.47.47,0,0,1,.49-.31c.24,0,.33.24.39.44a2.59,2.59,0,0,1,.11.37c.13.67.34,1.28,1.1,1.48a.76.76,0,0,1,.24.17c.14.12.36.23.32.44s-.32.15-.5.2a5.66,5.66,0,0,0-.56.13.89.89,0,0,1-.86-.13,8.27,8.27,0,0,0-1-.62c-.46-.22-.66-.14-.81.33s-.34.6-.77.32a.74.74,0,0,0-.44-.08h-.27c-.59-.1-.75-.39-.46-.91.13-.23.3-.45.45-.68s.36-.53.12-.91,0-.47.49-.44A3.61,3.61,0,0,1,79,33.3a1,1,0,0,0,.42.12c.18,0,.33-.1.46-.34M54,8.05c-.24-.14-.22-.37-.17-.6s.26-.14.4-.12a38,38,0,0,1,7.89,2.24,38.87,38.87,0,0,1,8,4.38c.27.18.33.29.06.54a2.88,2.88,0,0,0-.85,1.94,2.31,2.31,0,0,1-.58,1.44c-.83,1-1.72,1.87-2.63,2.75-.45.45-.72.9-.39,1.53a1.06,1.06,0,0,1,.09.42,1.08,1.08,0,0,0,.67,1.13.78.78,0,0,0,1-.07l.54-.41c.3-.21.49-.1.55.23s.07.7.12,1.05c.1.81.38,1,1.17.79.37-.09.58-.13.4-.61s0-.77.5-1,.54-.8.63-1.28a.79.79,0,0,0-.44-.83,2.79,2.79,0,0,0-.34-.18c-.2-.08-.17-.25-.17-.41a.3.3,0,0,1,.25-.3.91.91,0,0,0,.75-1.06,2.55,2.55,0,0,1,2.06-2.31c.26,0,.36.08.33.33a3.26,3.26,0,0,1-.27.87,16.51,16.51,0,0,0-.67,2.06c-.09.42-.12.82.31,1.11a1.45,1.45,0,0,1,.42.58c.19.4.39.45.75.19a4.64,4.64,0,0,0,.88-.89c.23-.28.41-.24.59,0a1.87,1.87,0,0,1,.27.71c.09.49,0,.65-.53.66a2.12,2.12,0,0,0-1,.32c-.35.2-.6.38-.33.86s0,.69-.46.67l-.25,0c-1-.08-1.32.25-1.1,1.27.15.7.12.77-.6.87a34.83,34.83,0,0,1-3.54.39,2.9,2.9,0,0,1-1.24-.13.82.82,0,0,0-1,.3,2.66,2.66,0,0,0-.62,1.11,2.2,2.2,0,0,1-1.17,1.51c-.76.44-1.55.84-2.31,1.28-.42.23-.43.39-.1.73a2.12,2.12,0,0,0,.81.59c.7.25.79.79.82,1.42,0,.42-.09.58-.55.55s-.94,0-1.42,0-.72,0-1.08,0-.43.08-.47.38a5.12,5.12,0,0,1-.28,1.17,2.21,2.21,0,0,0,.17,2,.53.53,0,0,0,.52.37,11.79,11.79,0,0,1,1.88.11c.15,0,.24-.06.34-.14s.49-.46.75-.67a.71.71,0,0,0,.29-.66A1.69,1.69,0,0,1,64,36.11a4.64,4.64,0,0,1,3.79-2.22.54.54,0,0,1,.65.42,1.8,1.8,0,0,0,.62.78c.35.33.72.64,1.08.95.56.46.56.47.27,1.13-.17.38-.08.6.25.65.09,0,.21,0,.24-.09.09-.4.43-.36.73-.4s.52-.23.39-.62a1.59,1.59,0,0,0-.59-.74,7.44,7.44,0,0,1-2-2.45,2.05,2.05,0,0,1-.16-.41.43.43,0,0,1,.66-.5,1.29,1.29,0,0,1,.47.4,18.75,18.75,0,0,0,2.26,2.37,1.79,1.79,0,0,1,.45,1.93.75.75,0,0,0,.17.73,2.63,2.63,0,0,1,.5.64c.07.19.23.19.4.17,1.13-.13,1.21-.28.71-1.28-.12-.23-.23-.46-.33-.7s0-.5.36-.48a4.49,4.49,0,0,1,1.07.25c.24.08.21.26.2.43-.06.73-.13,1.47-.17,2.21,0,.22-.13.2-.28.21a1.65,1.65,0,0,0-.93.36c-.25.2-.26.42,0,.56a8.38,8.38,0,0,0,1,.4.36.36,0,0,0,.44-.21A3.68,3.68,0,0,0,76.5,40c.25-.73.24-.73,1-.72s1.61,0,2.41,0c.31,0,.4.08.39.37,0,.48,0,1,0,1.45,0,.13,0,.25-.15.31-.56.21-.6.61-.38,1.08.14.31.1.43-.28.41-1.22-.07-2.43-.11-3.65-.14-.3,0-.49-.11-.52-.39a.7.7,0,0,0-.7-.65L74,41.67c-.66,0-.66,0-.63.61a1,1,0,0,1-1.4.84A1.74,1.74,0,0,1,71.06,42a1.24,1.24,0,0,0-1.21-1,1.17,1.17,0,0,1-1.23-1.18c-.07-.53-.34-.72-.89-.72-1.06,0-2.12-.08-3.18-.14a.63.63,0,0,0-.54.21,3.05,3.05,0,0,1-2.16.63,2.72,2.72,0,0,0-2.06.88,1.64,1.64,0,0,0-.5,1.25c0,.51,0,1,0,1.54a.36.36,0,0,1-.29.41,5.5,5.5,0,0,0-2.71,2.14,4,4,0,0,0-.66,2.12,18,18,0,0,0-.18,4.46,10.3,10.3,0,0,0,2.76,5.2.87.87,0,0,0,.71.22,9.39,9.39,0,0,0,2.73-.54c.75-.23,1.49-.5,2.23-.77.2-.07.33-.12.46.12s.33.23.53.31c.45.19.93.35,1.37.57a1.91,1.91,0,0,1,1.12,2.46c-.07.32-.14.63-.19,1a1.93,1.93,0,0,0,.59,1.88,1.32,1.32,0,0,1,.42,1,18.21,18.21,0,0,1,.11,3.13,3.73,3.73,0,0,1-.84,2.16,3.4,3.4,0,0,0-.8,2.31,21.35,21.35,0,0,0,.46,4.78.79.79,0,0,1-.47,1,39.24,39.24,0,0,1-31.19,3c-.33-.11-.5-.22-.37-.59a3.7,3.7,0,0,0,.07-.48c.07-.4.17-.69.72-.54A1.21,1.21,0,0,0,37.1,78a.45.45,0,0,0-.22-.49c-.23-.18-.56-.44-.38-.74s.55-.07.82,0,.68.29,1,.42.62,0,.67-.43a1.55,1.55,0,0,0,0-.43,1.23,1.23,0,0,1,.69-1.43c.4-.19.36-.65.37-1,0-.81,0-.8.79-1,.44-.12.86-.27,1.3-.36a2,2,0,0,0,1.24-.93,7.69,7.69,0,0,0,1.18-2.87,1,1,0,0,0,0-.47c-.28-.62.11-1,.51-1.29A2.81,2.81,0,0,0,46.19,65a2.77,2.77,0,0,0-1.49-2.75,12.45,12.45,0,0,0-3.78-1.38,13.63,13.63,0,0,0-2-.44c-.28,0-.34-.12-.2-.4.6-1.22.46-1.74-.66-2.54a5.31,5.31,0,0,0-1.75-.78,3.89,3.89,0,0,1-1.69-.86c-.41-.35-.69-.72-.4-1.29.16-.3-.11-.28-.26-.28-.5,0-1,0-1.49,0a1.93,1.93,0,0,1-1.95-.78.67.67,0,0,0-1-.13,6.13,6.13,0,0,0-2,2.07c-.35.59-.49.58-.84,0-.11-.19-.22-.39-.34-.58a1.29,1.29,0,0,0-1.63-.75c-.56.1-.74,0-.76-.61a9.44,9.44,0,0,1,.07-1.3A1,1,0,0,0,23.31,51a2.64,2.64,0,0,0-.6-.15c-.54,0-.47-.28-.31-.62a6.79,6.79,0,0,0,.37-.94c.17-.54-.05-.83-.62-.85a1.88,1.88,0,0,0-.93.22A3.37,3.37,0,0,0,19.86,50c-.23.38-.5.45-1.06.25-.39-.15-.81-.35-.68-.84a6,6,0,0,0,0-2.15,5.41,5.41,0,0,1,.07-1.45,1.68,1.68,0,0,1,1.45-1.47c2-.25,3.86,0,5.18,1.78.13.16.24.38.48.35s.31-.3.38-.5a12.13,12.13,0,0,0,.4-2.23,3.73,3.73,0,0,1,2-2.79c.22-.13.31-.24.26-.48-.09-.49-.18-1-.26-1.47s0-.7.59-.7a2.18,2.18,0,0,0,1-.26,5,5,0,0,0,2.7-2.73c.11-.29.24-.56.4-.9.3.66.79.65,1.34.5a6,6,0,0,0,2.34-1.18c.14-.11.32-.25.23-.44s-.28-.13-.44-.13h-.44c-.83,0-.86,0-1-.84a2.44,2.44,0,0,0-.61-1.07c-.33-.44-.26-.61.26-.7a11,11,0,0,1,3,0,.74.74,0,0,1,.69.75c0,.55.39.67.79.73s.8.16,1-.18,0-.68-.19-1a2.38,2.38,0,0,0-1.23-1.23c-.22-.08-.12-.21,0-.28,1-.85.62-1.71.08-2.61A25.77,25.77,0,0,0,37,24c-.38-.5-.44-.49-.79,0-.53.74-1,.72-1.5-.07-.14-.27-.24-.56-.37-.84a1.08,1.08,0,0,0-1.2-.68l-.87.05c-.68,0-.92.19-1.09.85a11.76,11.76,0,0,0-.29,3c0,.9-.16,1.18-1,1.48a.77.77,0,0,0-.55.69c-.08.56-.17,1.11-.29,1.66-.05.22-.11.5-.39.55s-.43-.18-.58-.37a2.87,2.87,0,0,1-.54-2.23.63.63,0,0,0-.48-.79l-1.81-.65c-.95-.35-1.12-.65-.85-1.64a3.53,3.53,0,0,1,1.7-2.45,2.32,2.32,0,0,0,.88-1,1.94,1.94,0,0,1,1.84-1.13,1.54,1.54,0,0,0,1.41-1.85c-.07-.4-.38-.61-.86-.39a3,3,0,0,1-2.11.2,1.86,1.86,0,0,0-1.77.69,2.16,2.16,0,0,1-2,.73,1.08,1.08,0,0,0-1.2.48,1,1,0,0,1-.86.45,9.27,9.27,0,0,1-3-.19c-.45-.11-.47-.19-.17-.54s.64-.68.94-1,.33-.31.59,0a1.76,1.76,0,0,0,1,.51,1.26,1.26,0,0,0,1.54-.67c.24-.41.43-.82,1.06-.61.36.12.52-.18.49-.52A1.28,1.28,0,0,0,23.6,17a4.26,4.26,0,0,1-.42-1.57c0-.15.07-.2.16-.26A34.05,34.05,0,0,1,27,12.57l.11,0c.05.06,0,.1,0,.13a.46.46,0,0,0,.31.64c.19.09.37.2.56.27A.84.84,0,0,0,29.21,13c.3-.85.3-.85,1.21-.72a4.31,4.31,0,0,0,.61.1c.64,0,.95-.14,1.13-.74a1.91,1.91,0,0,1,.89-1.08A2.24,2.24,0,0,0,34.3,9.16a2.88,2.88,0,0,1,1.24-.5c.12.06.11.19.14.29a5.32,5.32,0,0,0,.41,1.18c.12.22.22.57.51.5s.79-.08.92-.49a.74.74,0,0,1,1-.56h.19c.87-.11,1.61,0,1.78,1.05,0,.23.27.4.47.54a.74.74,0,0,1,.28.89c-.09.36-.19.71-.27,1.07s0,.58.48.51a3,3,0,0,1,.52,0c.15,0,.32,0,.36.16a.34.34,0,0,1-.24.42c-.22.09-.45.15-.68.24s-.42.12-.43.38a.59.59,0,0,0,.3.57c.25.14.51.25.81.39l-.66.6a2.71,2.71,0,0,0-.6,3.38,8,8,0,0,0,2.48,2.77,1.25,1.25,0,0,0,1.85-.41,8,8,0,0,0,1.13-2.74c.3-1.09.29-1.12,1.43-1.21a1.07,1.07,0,0,0,1-.72A2.14,2.14,0,0,1,50,16.23c.48-.17.92-.44,1.39-.65a2.89,2.89,0,0,1,1.9-.33.84.84,0,0,0,.9-1.09c-.06-.21-.22-.22-.37-.24a15.87,15.87,0,0,0-1.67-.21c-.49,0-.53-.34-.54-.69s.07-.64.52-.62h.52a4.45,4.45,0,0,1,.82,0,.78.78,0,0,0,1-.6,6.31,6.31,0,0,0,.39-1.93c0-.39,0-.8,0-1.2s0-.69-.54-.57h-.05A.65.65,0,0,1,54,8.05M38.16,6.6A39.52,39.52,0,0,0,8.74,36a38.37,38.37,0,0,0-.61,13.92,38,38,0,0,0,8.15,18.8A40,40,0,0,0,55.07,82.91a38.16,38.16,0,0,0,18.44-8.84c10.4-9.13,15-20.62,13.45-34.42A36,36,0,0,0,79,20.7C70.9,10.7,60.31,5.79,47.53,5.49A41.47,41.47,0,0,0,38.16,6.6"/></clipPath><radialGradient id="radial-gradient" cx="-986.9" cy="6561.62" r="1" gradientTransform="matrix(39.41, 0, 0, -39.41, 38929.48, 258604.76)" gradientUnits="userSpaceOnUse"><stop offset="0" stop-color="#fff"/><stop offset="0.01" stop-color="#fff"/><stop offset="0.05" stop-color="#fbffbf"/><stop offset="0.15" stop-color="#e2f0a3"/><stop offset="0.32" stop-color="#c1dd80"/><stop offset="0.49" stop-color="#a8ce64"/><stop offset="0.66" stop-color="#95c351"/><stop offset="0.83" stop-color="#8bbd45"/><stop offset="1" stop-color="#87bb41"/></radialGradient></defs><title>Earth</title><g class="cls-2"><rect class="cls-3" width="81.03" height="80.16"/></g></svg>