<?xml version="1.0" encoding="utf-8"?>
<!-- Generator: Adobe Illustrator 23.0.5, SVG Export Plug-In . SVG Version: 6.00 Build 0)  -->
<svg version="1.1" id="Layer_1" xmlns="http://www.w3.org/2000/svg" xmlns:xlink="http://www.w3.org/1999/xlink" x="0px" y="0px"
	 viewBox="0 0 67.92 70.3" style="enable-background:new 0 0 67.92 70.3;" xml:space="preserve">
<style type="text/css">
	.st0{clip-path:url(#SVGID_1_);fill:url(#SVGID_2_);}
	.st1{clip-path:url(#SVGID_3_);fill:url(#SVGID_4_);}
	.st2{clip-path:url(#SVGID_5_);fill:url(#SVGID_6_);}
	.st3{clip-path:url(#SVGID_7_);fill:url(#SVGID_8_);}
	.st4{clip-path:url(#SVGID_9_);fill:url(#SVGID_10_);}
</style>
<g>
	<defs>
		<path id="SVGID_16_" d="M40.23,46.28c1.91,0.38,3.48,1.34,5.24,2.34c-1.75,0.78-3.34,1.48-5.24,2.33V46.28z M41.1,42.79
			c4.23-5.85,8.36-11.75,12.54-17.62c0.29-0.4,0.56-1.06,1.33-0.73c2.05,0.91,4.09,1.84,6.05,2.89c0.88,0.47,0,1.05-0.31,1.49
			c-4.05,5.74-8.16,11.47-12.19,17.22c-0.61,0.88-1.06,1.21-2.32,0.63c-1.47-0.68-0.7-1.29-0.2-1.98c2.94-4.16,5.9-8.32,8.8-12.5
			c0.48-0.69,1.88-1.58,0.33-2.29c-1.46-0.67-1.82,0.7-2.32,1.39c-2.94,4.07-5.8,8.18-8.73,12.25c-0.38,0.52-0.5,1.33-1.63,1.33
			C41.67,44.33,39.99,44.32,41.1,42.79 M61.46,25.28c-0.97-0.44-1.91-0.93-2.87-1.38c-2.82-1.33-3.03-3.27-0.52-4.91
			c0.2-0.14,0.44-0.24,0.7-0.38c2.15,1.04,4.61,1.76,6.19,3.14c1.11,0.97-1.05,2.17-1.58,3.32c-0.21,0.45-0.48,0.61-0.78,0.61
			C62.24,25.67,61.84,25.45,61.46,25.28 M39.63,10.65c1.35,1.21,2.78,2.49,4.11,3.68c-0.68,0.01-1.27,0.03-1.76,0.03
			C38.99,14.36,39.07,13.89,39.63,10.65 M34.96,8.5c1.87-0.01,2.3,0.58,2.14,1.88c-0.07,0.58-0.01,1.16-0.01,1.75
			c0.03,3.39,0.92,4.12,5.01,4.15c0.71,0.01,1.44,0.07,2.14-0.02c1.93-0.24,2.41,0.41,2.36,1.93c-0.13,3.9-0.08,7.81-0.02,11.72
			c0.02,1.04-0.33,1.92-0.99,2.8c-1.38,1.84-2.4,3.9-4.03,5.58c-3.93,4.03-4.3,8.55-3.73,13.38c0.22,1.89,0.94,2.16,2.84,1.26
			c1.75-0.83,3.58-1.56,5.87-2.55c0,2.85-0.06,5.33,0.02,7.8c0.04,1.37-0.76,1.67-2.25,1.67c-13.18-0.03-26.36-0.04-39.53,0.01
			c-2.05,0.01-2.31-0.8-2.3-2.17c0.03-15.71,0.04-31.42,0-47.13c0-1.48,0.52-2.06,2.44-2.05c5.19,0.03,10.38,0.05,15.56,0.05
			C25.32,8.55,30.14,8.53,34.96,8.5 M36.92,6.59c-3.1,0-6.19,0-9.29,0c-7.73,0-15.47-0.01-23.21,0.02
			c-3.05,0.01-4.28,1.03-4.29,3.53C0.11,26.19,0.11,42.24,0.15,58.29c0.01,2.46,1.3,3.46,4.37,3.46
			c13.39,0.03,26.77,0.03,40.16-0.01c2.99-0.01,4.2-1.06,4.26-3.54c0.06-2.58,0-5.15,0.03-7.73c0.01-0.8,0.04-1.55,0.62-2.35
			c5.58-7.69,11.05-15.43,16.56-23.15c2.44-3.42,2.35-3.7-1.84-5.85c-0.66-0.34-1.24-0.79-1.86-1.19c-3.07-1.94-5.59-1.55-7.45,1.11
			c-1.82,2.59-3.69,5.16-5.73,8.01c-0.18-0.46-0.29-0.6-0.29-0.75c-0.01-3.16-0.01-6.32-0.03-9.48C48.93,14.8,40,6.82,37.53,6.6
			c-0.09-0.01-0.18-0.01-0.28-0.01C37.14,6.59,37.03,6.59,36.92,6.59"/>
	</defs>
	<clipPath id="SVGID_1_">
		<use xlink:href="#SVGID_16_"  style="overflow:visible;"/>
	</clipPath>
	
		<linearGradient id="SVGID_2_" gradientUnits="userSpaceOnUse" x1="-964.0784" y1="6560.2339" x2="-963.0784" y2="6560.2339" gradientTransform="matrix(67.6458 0 0 -67.6458 65215.9648 443806.4688)">
		<stop  offset="0" style="stop-color:#045D80"/>
		<stop  offset="1" style="stop-color:#87BB41"/>
	</linearGradient>
	<rect x="0.11" y="6.59" class="st0" width="68.48" height="55.19"/>
</g>
<g>
	<defs>
		<path id="SVGID_19_" d="M17.05,25.94c-0.24-0.56,0.33-1.07,0.72-1.55c3.19-3.97,10.44-3.97,13.56,0.01
			c0.36,0.46,0.82,1.1,0.68,1.54c-0.16,0.52-0.75,0.46-1.3,0.41c-0.19-0.02-0.38-0.04-0.54-0.04c-1.92,0.04-3.85,0.02-5.78,0.02
			c-1.82,0-3.65,0.03-5.47-0.01c-0.17,0-0.35,0.02-0.54,0.04c-0.17,0.02-0.34,0.04-0.5,0.04C17.52,26.4,17.2,26.31,17.05,25.94
			 M24.27,19.43c-1.78-0.13-2.75-1.08-2.7-2.48c0.05-1.44,1.26-2.33,2.94-2.32c1.82,0.01,2.94,0.94,3.05,2.54
			c-0.32,1.38-1.22,2.28-2.92,2.28C24.52,19.44,24.4,19.44,24.27,19.43 M24.55,12.74c-2.67,0-5.84,1.79-5.11,3.66
			c1.36,3.5-1.4,4.91-3.54,6.88c-0.71,0.65-1.03,1.6-1.44,2.44c-0.85,1.76-0.29,2.63,2.26,2.58c2.16-0.05,4.32-0.04,6.48-0.03
			c2.22,0.01,4.45,0.02,6.67-0.04c0.46-0.01,0.98,0.05,1.5,0.11c1.34,0.15,2.71,0.31,3.31-0.72c0.97-1.66-0.57-3.32-1.8-4.74
			c-0.57-0.67-1.33-1.31-2.18-1.72c-1.46-0.7-2.05-1.21-1.19-2.79C30.98,15.64,28.22,12.74,24.55,12.74
			C24.56,12.74,24.56,12.74,24.55,12.74"/>
	</defs>
	<clipPath id="SVGID_3_">
		<use xlink:href="#SVGID_19_"  style="overflow:visible;"/>
	</clipPath>
	
		<linearGradient id="SVGID_4_" gradientUnits="userSpaceOnUse" x1="-958.3983" y1="6379.7988" x2="-957.3983" y2="6379.7988" gradientTransform="matrix(20.8906 0 0 -20.8906 20035.582 133298.3281)">
		<stop  offset="0" style="stop-color:#045D80"/>
		<stop  offset="1" style="stop-color:#87BB41"/>
	</linearGradient>
	<rect x="13.62" y="12.74" class="st1" width="22.04" height="15.91"/>
</g>
<g>
	<defs>
		<path id="SVGID_22_" d="M10.08,51.6c-0.91,0-2.09-0.04-2.07,0.98c0.02,0.92,0.98,0.91,1.82,0.9c0.11,0,0.21,0,0.31,0
			c3.97,0.01,7.95,0,11.92,0c4.07,0,8.15,0,12.22,0c0.06,0,0.13,0,0.19,0c0.77,0,1.63,0.01,1.7-0.83c0.09-1.1-1.06-1.04-1.96-1.05
			c-3.74-0.01-7.48-0.01-11.22-0.01C18.7,51.59,14.39,51.59,10.08,51.6"/>
	</defs>
	<clipPath id="SVGID_5_">
		<use xlink:href="#SVGID_22_"  style="overflow:visible;"/>
	</clipPath>
	
		<linearGradient id="SVGID_6_" gradientUnits="userSpaceOnUse" x1="-960.522" y1="6447.2329" x2="-959.522" y2="6447.2329" gradientTransform="matrix(28.1658 0 0 -28.1658 27061.9043 181644.3125)">
		<stop  offset="0" style="stop-color:#045D80"/>
		<stop  offset="1" style="stop-color:#87BB41"/>
	</linearGradient>
	<rect x="7.99" y="51.54" class="st2" width="28.28" height="1.96"/>
</g>
<g>
	<defs>
		<path id="SVGID_25_" d="M8.03,43.29c-0.06,1.06,1.02,1.04,1.96,1.04c3.98,0,7.95,0,11.93,0c4.08,0,8.16,0,12.23,0
			c0.93,0,2.02,0.04,2.01-1.02c-0.01-0.89-0.98-0.9-1.81-0.9c-8.16-0.01-16.31-0.01-24.47-0.01c-0.03,0-0.07,0-0.1,0
			C8.97,42.41,8.08,42.46,8.03,43.29"/>
	</defs>
	<clipPath id="SVGID_7_">
		<use xlink:href="#SVGID_25_"  style="overflow:visible;"/>
	</clipPath>
	
		<linearGradient id="SVGID_8_" gradientUnits="userSpaceOnUse" x1="-960.514" y1="6447.0088" x2="-959.514" y2="6447.0088" gradientTransform="matrix(28.1334 0 0 -28.1334 27030.5586 181419.7188)">
		<stop  offset="0" style="stop-color:#045D80"/>
		<stop  offset="1" style="stop-color:#87BB41"/>
	</linearGradient>
	<rect x="7.97" y="42.41" class="st3" width="28.2" height="1.97"/>
</g>
<g>
	<defs>
		<path id="SVGID_28_" d="M10.15,33.25c-0.9,0-2.11-0.11-2.13,0.91C8.01,35.11,9,35.1,9.85,35.09c0.09,0,0.18,0,0.28,0
			c4.7,0.02,9.4,0.01,14.1,0.01c1.63,0,3.27,0,4.9,0c3.27,0,6.54,0,9.81-0.01c0.1,0,0.21,0,0.31,0c0.83,0.01,1.79,0.03,1.81-0.91
			c0.01-0.95-0.96-0.94-1.8-0.93c-0.1,0-0.2,0-0.3,0c-4.34,0-8.67-0.01-13.01-0.01C20.69,33.24,15.42,33.25,10.15,33.25"/>
	</defs>
	<clipPath id="SVGID_9_">
		<use xlink:href="#SVGID_28_"  style="overflow:visible;"/>
	</clipPath>
	
		<linearGradient id="SVGID_10_" gradientUnits="userSpaceOnUse" x1="-961.4187" y1="6475.7339" x2="-960.4177" y2="6475.7339" gradientTransform="matrix(33.0274 0 0 -33.0274 31761.1328 213910.5625)">
		<stop  offset="0" style="stop-color:#045D80"/>
		<stop  offset="1" style="stop-color:#87BB41"/>
	</linearGradient>
	<rect x="8.01" y="33.14" class="st4" width="33.06" height="1.98"/>
</g>
</svg>
