<?xml version="1.0" encoding="utf-8"?>
<!-- Generator: Adobe Illustrator 23.0.5, SVG Export Plug-In . SVG Version: 6.00 Build 0)  -->
<svg version="1.1" id="Layer_1" xmlns="http://www.w3.org/2000/svg" xmlns:xlink="http://www.w3.org/1999/xlink" x="0px" y="0px"
	 viewBox="0 0 67.92 70.3" style="enable-background:new 0 0 67.92 70.3;" xml:space="preserve">
<style type="text/css">
	.st0{clip-path:url(#SVGID_1_);fill:url(#SVGID_2_);}
	.st1{clip-path:url(#SVGID_3_);fill:url(#SVGID_4_);}
	.st2{clip-path:url(#SVGID_5_);fill:url(#SVGID_6_);}
</style>
<g>
	<defs>
		<path id="SVGID_10_" d="M23.19,58.63c7.18-0.06,14.36-0.05,21.54,0c1.95,0.02,3.46,0.97,4.52,2.92H18.68
			C19.69,59.59,21.23,58.64,23.19,58.63 M38.03,53.67c0.67-0.01,1.1,0.15,1.38,0.79c0.37,0.86,0.84,1.68,1.34,2.66H27.33
			c0.21-1.16,0.95-2.03,1.38-3.04c0.22-0.5,0.7-0.39,1.12-0.39c0.84,0,1.68,0,2.52,0c0.63,0,1.26,0,1.89,0
			C35.51,53.69,36.77,53.69,38.03,53.67 M63.26,8.67c1.45,0,1.79,0.45,1.78,1.84c-0.05,13.26-0.06,26.51,0,39.77
			c0.01,1.53-0.37,2.01-1.95,1.99c-9.77-0.07-19.53-0.03-29.3-0.03c-9.66,0-19.32-0.04-28.98,0.03c-1.58,0.01-1.96-0.48-1.95-2
			c0.06-13.26,0.06-26.51,0-39.77c0-1.4,0.36-1.84,1.79-1.83C14.43,8.69,24.2,8.7,33.96,8.7C43.73,8.7,53.49,8.69,63.26,8.67
			 M4.17,7.26c-2.06,0-2.69,0.62-2.7,2.68c-0.01,13.69-0.01,27.38,0,41.07c0,2.05,0.65,2.67,2.71,2.67c7.09,0.01,14.17,0,21.26,0
			h1.58c-1.01,3.25-1.14,3.32-4.18,3.51c-2.5,0.16-4.34,1.4-5.48,3.64c-0.88,1.73-0.58,2.2,1.29,2.2c10.15,0,20.29,0,30.44,0
			c2.06,0,2.4-0.53,1.39-2.35c-1.34-2.42-3.44-3.56-6.22-3.54c-0.69,0.01-1.56,0.42-2.05-0.45c-0.51-0.92-0.96-1.87-1.53-3.01h1.79
			c7.09,0,14.17,0,21.26,0c2.07,0,2.72-0.62,2.72-2.67c0.01-13.69,0.01-27.38,0-41.07c0-2.07-0.63-2.69-2.69-2.69
			c-9.93,0-19.86,0-29.79,0C24.03,7.26,14.1,7.26,4.17,7.26"/>
	</defs>
	<clipPath id="SVGID_1_">
		<use xlink:href="#SVGID_10_"  style="overflow:visible;"/>
	</clipPath>
	
		<linearGradient id="SVGID_2_" gradientUnits="userSpaceOnUse" x1="-973.7007" y1="6556.9614" x2="-972.7007" y2="6556.9614" gradientTransform="matrix(64.9875 0 0 -64.9875 63279.8711 426155.9063)">
		<stop  offset="0" style="stop-color:#045D80"/>
		<stop  offset="1" style="stop-color:#87BB41"/>
	</linearGradient>
	<rect x="1.46" y="7.26" class="st0" width="64.99" height="55.78"/>
</g>
<g>
	<defs>
		<path id="SVGID_13_" d="M59,13.32c1.22,0,1.5,0.31,1.49,1.51c-0.05,10.41-0.05,20.82,0,31.23c0.01,1.29-0.36,1.58-1.6,1.57
			c-8.31-0.05-16.63-0.03-24.94-0.03c-8.32,0-16.63-0.03-24.95,0.03c-1.29,0.01-1.58-0.36-1.57-1.6
			c0.05-10.41,0.05-20.82-0.01-31.23c-0.01-1.25,0.35-1.48,1.52-1.48c8.34,0.02,16.69,0.03,25.03,0.03
			C42.31,13.36,50.66,13.35,59,13.32 M60.2,11.8c-17.49,0.04-34.98,0.04-52.47,0c-1.38,0-1.69,0.47-1.69,1.76
			C6.08,24.83,6.09,36.1,6.03,47.37c-0.01,1.48,0.5,1.78,1.85,1.77c8.64-0.05,17.28-0.03,25.91-0.03c8.75,0,17.49-0.02,26.24,0.03
			c1.34,0.01,1.87-0.27,1.86-1.77c-0.06-11.27-0.05-22.54-0.01-33.81c0.01-1.29-0.29-1.77-1.67-1.77C60.21,11.8,60.2,11.8,60.2,11.8
			"/>
	</defs>
	<clipPath id="SVGID_3_">
		<use xlink:href="#SVGID_13_"  style="overflow:visible;"/>
	</clipPath>
	
		<linearGradient id="SVGID_4_" gradientUnits="userSpaceOnUse" x1="-974.8578" y1="6543.2617" x2="-973.8575" y2="6543.2617" gradientTransform="matrix(55.8645 0 0 -55.8645 54466.0039 365566.8125)">
		<stop  offset="0" style="stop-color:#045D80"/>
		<stop  offset="1" style="stop-color:#87BB41"/>
	</linearGradient>
	<rect x="6.02" y="11.8" class="st1" width="55.88" height="37.36"/>
</g>
<g>
	<defs>
		<path id="SVGID_16_" d="M16.04,41.4c0.13-0.75-0.62-2.1,1.08-2.18c1.61-0.07,0.96,1.18,1.21,1.89c0.27,0.84-0.11,1.17-0.86,0.97
			c-0.16-0.04-0.37,0-0.58,0.03c-0.15,0.03-0.3,0.05-0.43,0.05C16.16,42.16,15.94,42.02,16.04,41.4 M16.52,37.09
			c0.29-0.69-0.19-2.01,0.68-1.99c0.91,0.01,0.24,1.37,0.63,1.88c0.17,0.74-0.15,0.85-0.66,0.86c-0.01,0-0.02,0-0.02,0
			C16.6,37.83,16.31,37.59,16.52,37.09 M26.82,40.34c-1.33-0.6-1.93-1.68-1.87-3.23c0.11-2.61,0.03-5.23,0.03-8.05
			c2.92,1.17,5.65,2.22,8.34,3.37c1.14,0.49,2.14,0.53,3.32,0.01c2.68-1.18,5.43-2.2,8.38-3.37c0,3.2,0.05,6.22-0.03,9.24
			c-0.03,0.99-0.91,1.6-1.73,1.98c-2.74,1.28-5.49,1.91-8.25,1.91C32.29,42.2,29.55,41.57,26.82,40.34 M34.34,31.2
			c-4.96-1.99-9.93-3.96-15.15-6.04c4.64-1.85,9.07-3.52,13.41-5.39c1.7-0.73,3.11-0.74,4.82,0c4.31,1.88,8.72,3.52,13.4,5.38
			c-5.34,2.13-10.31,4.1-15.26,6.09c-0.19,0.08-0.36,0.11-0.53,0.11C34.81,31.36,34.59,31.3,34.34,31.2 M34.12,17.6
			c-5.55,2.23-11.09,4.47-16.66,6.65c-0.78,0.31-1.01,0.74-1.06,1.54c-0.2,3.22,0.67,6.5-1.05,9.63c-0.65,1.18-0.4,2.83-0.62,4.26
			c-0.62,4.02-0.83,3.98,2.42,3.95c0.46-0.01,0.98-0.01,1.58-0.01c0.97,0.01,1.35-0.5,1.24-1.43c-0.16-1.28-0.35-2.54-0.48-3.82
			c-0.19-1.89-0.89-3.63-1.41-5.42c-0.59-2.01-0.14-4.33-0.14-6.69c1.64,0.66,3.1,1.31,4.6,1.83c0.75,0.26,0.96,0.64,0.95,1.39
			c-0.04,2.57,0.06,5.15-0.04,7.72c-0.08,2.02,0.75,3.47,2.47,4.31c6.06,2.93,12.17,2.92,18.22-0.04c1.67-0.81,2.46-2.25,2.39-4.2
			c-0.09-2.57,0.01-5.15-0.05-7.72c-0.02-0.85,0.29-1.24,1.04-1.52c1.65-0.61,3.28-1.3,4.92-1.94c0.49-0.2,1.09-0.28,1.04-1.01
			c-0.04-0.63-0.6-0.68-1.03-0.85c-5.55-2.22-11.11-4.43-16.65-6.67c-0.28-0.11-0.54-0.17-0.79-0.17
			C34.72,17.41,34.43,17.48,34.12,17.6"/>
	</defs>
	<clipPath id="SVGID_5_">
		<use xlink:href="#SVGID_16_"  style="overflow:visible;"/>
	</clipPath>
	
		<linearGradient id="SVGID_6_" gradientUnits="userSpaceOnUse" x1="-978.3823" y1="6501.5161" x2="-977.3823" y2="6501.5161" gradientTransform="matrix(39.1299 0 0 -39.1299 38298.3828 254434.7031)">
		<stop  offset="0" style="stop-color:#045D80"/>
		<stop  offset="1" style="stop-color:#87BB41"/>
	</linearGradient>
	<rect x="13.91" y="17.41" class="st2" width="39.63" height="27.04"/>
</g>
</svg>
