<?xml version="1.0" encoding="utf-8"?>
<!-- Generator: Adobe Illustrator 23.0.5, SVG Export Plug-In . SVG Version: 6.00 Build 0)  -->
<svg version="1.1" id="Layer_1" xmlns="http://www.w3.org/2000/svg" xmlns:xlink="http://www.w3.org/1999/xlink" x="0px" y="0px"
	 viewBox="0 0 50.21 45.74" style="enable-background:new 0 0 50.21 45.74;" xml:space="preserve">
<style type="text/css">
	.st0{fill:none;stroke:#06587C;stroke-width:0.75;stroke-miterlimit:10;}
	.st1{fill:#065D80;}
</style>
<path class="st0" d="M21.26,23.57c0.01-1.94,0.01-3.88,0.02-5.82c0-1.14,0.75-2.07,1.81-2.27c1.13-0.22,2.16,0.32,2.62,1.36
	c0.14,0.32,0.17,0.66,0.18,1c0,1.32,0,2.64,0,3.96c0,0.17-0.06,0.36,0.27,0.24c1.58-0.63,2.82-0.03,3.36,1.65
	c0.65-0.42,1.35-0.49,2.08-0.3c0.71,0.31,1.23,0.79,1.45,1.55c0.04,0.13,0.1,0.21,0.25,0.11c0.46-0.32,0.99-0.34,1.52-0.33
	c0.08,0.01,0.15,0.03,0.23,0.04c0.48,0.17,0.88,0.44,1.24,0.79c0.4,0.57,0.5,1.21,0.49,1.89c-0.02,2.98-0.01,5.96-0.01,8.94
	c0,2.91-2.13,5.06-5.04,5.05c-1.45,0-2.91,0.08-4.35-0.05c-2.05-0.19-3.83-1.01-5.28-2.47c-1.59-1.6-3.29-3.07-4.93-4.61
	c-0.97-0.91-1.97-1.79-2.95-2.7c-0.93-0.86-1.03-2.14-0.26-3.07c0.8-0.97,2.03-1.1,3.1-0.38c1.37,0.93,2.77,1.82,4.21,2.77v-5.47
	C21.26,24.82,21.26,24.19,21.26,23.57z M22.26,22.95c0,0.03,0,0.06,0,0.09c-0.01,0.68-0.07,1.36,0,2.04c0,2.18-0.01,4.36-0.01,6.54
	c0,0.26,0,0.52-0.27,0.66c-0.27,0.14-0.48-0.01-0.69-0.15c-1.61-1.07-3.23-2.14-4.84-3.22c-0.62-0.41-1.28-0.33-1.74,0.23
	c-0.44,0.54-0.39,1.25,0.15,1.75c0.42,0.39,0.86,0.77,1.28,1.17c2.2,2.07,4.51,4.03,6.64,6.18c1.22,1.24,2.73,1.97,4.47,2.16
	c1.64,0.18,3.29,0.13,4.93,0.05c1.97-0.09,3.62-1.85,3.62-3.72c0-3.19,0-6.37,0-9.56c0-0.19,0.01-0.38-0.06-0.57
	c-0.2-0.6-0.8-0.99-1.41-0.92c-0.68,0.08-1.18,0.63-1.19,1.33c-0.01,0.72,0,1.45-0.01,2.18c0,0.28-0.16,0.44-0.43,0.47
	c-0.28,0.03-0.45-0.12-0.51-0.39c-0.03-0.13-0.02-0.26-0.02-0.4c-0.01-1.14-0.02-2.28-0.03-3.42c0-0.51-0.27-0.84-0.71-1.05
	c-0.1-0.08-0.22-0.13-0.35-0.11c-0.41-0.14-0.76,0-1.07,0.27c-0.42,0.29-0.51,0.73-0.51,1.21c0,0.92,0.01,1.83-0.01,2.75
	c-0.01,0.42-0.35,0.64-0.68,0.47c-0.24-0.12-0.25-0.34-0.26-0.57c-0.01-0.96-0.02-1.92-0.03-2.88c0.05-0.61,0.09-1.23-0.04-1.84
	c-0.12-0.59-0.67-0.96-1.32-0.94c-0.66,0.02-1.19,0.42-1.26,1.02c-0.06,0.55-0.08,1.11,0,1.67c-0.01,0.75-0.02,1.51-0.02,2.26
	c0,0.36-0.12,0.64-0.51,0.63c-0.37-0.01-0.46-0.29-0.46-0.63c0.01-0.81-0.01-1.63-0.02-2.44c0-0.68,0-1.37,0.01-2.05
	c0-1.85,0.02-3.7,0.01-5.55c-0.01-0.73-0.61-1.26-1.34-1.27c-0.71,0-1.31,0.52-1.32,1.22c-0.01,1.72,0,3.43,0.01,5.15
	C22.26,22.83,22.26,22.89,22.26,22.95z"/>
<path class="st0" d="M25.11,4.29c4.55,0,9.1,0,13.65,0c2.31,0,4.06,1.39,4.53,3.55c0.08,0.35,0.09,0.71,0.09,1.06
	c0,1.76,0.01,3.53,0,5.29c-0.01,2.66-1.94,4.57-4.62,4.57c-3.05,0-6.11,0-9.16-0.01c-0.15,0-0.39,0.1-0.43-0.09
	c-0.06-0.25-0.05-0.54,0.01-0.79c0.04-0.15,0.26-0.07,0.4-0.07c3.05,0,6.11,0,9.16,0c2.22,0,3.69-1.48,3.69-3.71
	c0-1.72,0-3.44,0-5.16c0-2.19-1.5-3.68-3.69-3.68c-9.07,0-18.14,0-27.21,0c-2.28,0-3.74,1.47-3.75,3.76c0,1.69,0,3.38,0,5.07
	c0.01,2.26,1.47,3.72,3.73,3.72c2.06,0,4.12,0.01,6.18-0.01c0.43-0.01,0.4,0.2,0.39,0.48c-0.01,0.28,0.05,0.52-0.4,0.51
	c-2.12-0.03-4.24,0-6.36-0.01c-2.53-0.01-4.47-1.95-4.48-4.48c-0.01-1.81-0.01-3.62,0-5.42c0.01-2.66,1.9-4.55,4.57-4.56
	C15.98,4.28,20.54,4.29,25.11,4.29z"/>
<path class="st1" d="M26.06,12.47c0-1.03,0.01-1.96-0.01-2.89c-0.01-0.36,0.17-0.41,0.46-0.42c0.31,0,0.4,0.13,0.4,0.43
	c-0.01,1.21,0,2.43-0.01,3.64c0,0.24,0.09,0.53-0.24,0.64c-0.4,0.13-0.89,0-1.07-0.31c-0.39-0.7-0.76-1.4-1.13-2.11
	c-0.16-0.29-0.31-0.59-0.55-0.86v2.14c0,0.22,0,0.44,0,0.67c0,0.5-0.07,0.55-0.58,0.5c-0.2-0.02-0.28-0.1-0.28-0.3
	c0-1.33,0-2.67,0-4c0-0.16,0.03-0.29,0.19-0.36c0.42-0.21,1.09-0.02,1.31,0.4C25.04,10.55,25.53,11.48,26.06,12.47"/>
<path class="st0" d="M22.08,12.49c0,0.07,0,0.15,0,0.22c0,1.04,0,1.03-1.05,1.21c-0.47,0.08-0.95,0.06-1.41-0.07
	c-1.13-0.32-1.74-1.45-1.51-2.76c0.3-1.68,2.17-2.54,3.69-1.71c0.38,0.21,0.3,0.52,0.25,0.81c-0.04,0.21-0.21,0.08-0.32,0.03
	c-0.52-0.26-1.05-0.41-1.63-0.25c-0.75,0.21-1.18,1.01-1.03,1.92c0.15,0.86,0.73,1.34,1.53,1.28c0.34-0.03,0.57-0.13,0.5-0.54
	c-0.02-0.13-0.02-0.27,0-0.4c0.03-0.24-0.06-0.32-0.3-0.3c-0.12,0.01-0.24-0.01-0.35,0c-0.32,0.05-0.36-0.13-0.37-0.39
	c-0.01-0.28,0.11-0.35,0.38-0.34c0.4,0.02,0.8,0.01,1.2,0c0.28-0.01,0.41,0.11,0.4,0.39C22.07,11.89,22.08,12.19,22.08,12.49z"/>
<path class="st0" d="M33.42,10.92c0,0.46,0.02,0.92-0.01,1.38c-0.06,0.95-0.56,1.49-1.5,1.64c-0.46,0.07-0.91,0.04-1.35-0.13
	c-0.52-0.21-0.84-0.61-0.91-1.16c-0.13-1.06-0.05-2.13-0.05-3.19c0-0.38,0.32-0.26,0.53-0.28c0.24-0.02,0.43,0.02,0.42,0.35
	c-0.02,0.84-0.01,1.69,0,2.53c0,0.41,0.08,0.8,0.5,1.02c0.7,0.36,1.42-0.09,1.44-0.92c0.01-0.84,0.02-1.69-0.01-2.53
	c-0.01-0.37,0.13-0.46,0.46-0.46c0.34,0,0.52,0.09,0.49,0.48C33.4,10.06,33.43,10.49,33.42,10.92L33.42,10.92z"/>
<path class="st1" d="M34.44,11.57c0-0.64,0.01-1.27-0.01-1.91c-0.01-0.34,0.14-0.49,0.47-0.48c0.49,0.02,0.97-0.03,1.46,0.05
	c0.81,0.14,1.24,0.56,1.28,1.28c0.05,0.84-0.39,1.47-1.15,1.67c-0.16,0.04-0.32,0.06-0.48,0.08c-0.62,0.05-0.62,0.05-0.62,0.69
	c0,0.15-0.02,0.3,0,0.44c0.07,0.43-0.14,0.53-0.53,0.52c-0.35-0.01-0.46-0.13-0.44-0.47C34.46,12.81,34.44,12.19,34.44,11.57
	 M35.39,10.72c0,0.13,0.02,0.27,0,0.4c-0.05,0.34,0.1,0.46,0.42,0.41c0.09-0.01,0.18-0.02,0.26-0.04c0.4-0.09,0.64-0.47,0.57-0.92
	c-0.07-0.47-0.39-0.68-0.99-0.63c-0.53,0.05-0.15,0.46-0.26,0.69C35.38,10.65,35.39,10.69,35.39,10.72"/>
<path class="st0" d="M13.88,13.96c-0.3,0-0.58-0.07-0.87-0.16c-0.39-0.12-0.49-0.38-0.44-0.75c0.03-0.23,0.13-0.28,0.32-0.16
	c0.35,0.21,0.72,0.33,1.14,0.29c0.27-0.03,0.49-0.13,0.57-0.41c0.08-0.3-0.05-0.52-0.31-0.66c-0.23-0.13-0.48-0.23-0.72-0.35
	c-0.75-0.38-1.04-0.9-0.9-1.59c0.12-0.61,0.61-0.98,1.42-1.04C14.4,9.09,14.71,9.13,15,9.25c0.3,0.13,0.46,0.51,0.33,0.8
	c-0.08,0.18-0.19,0.09-0.29,0.04c-0.28-0.14-0.57-0.25-0.89-0.22c-0.24,0.02-0.44,0.11-0.51,0.35c-0.07,0.24,0.03,0.44,0.24,0.57
	c0.2,0.12,0.42,0.22,0.63,0.32c0.93,0.43,1.25,0.94,1.08,1.74C15.45,13.53,14.77,13.97,13.88,13.96z"/>
<path class="st0" d="M17.31,11.55c0,0.67-0.02,1.33,0.01,2c0.01,0.39-0.23,0.35-0.47,0.34c-0.23,0-0.49,0.06-0.49-0.33
	c0.01-1.35,0.01-2.7,0-4.05c0-0.41,0.26-0.35,0.51-0.36c0.27-0.01,0.45,0.04,0.44,0.38C17.29,10.22,17.31,10.88,17.31,11.55z"/>
</svg>
