<?xml version="1.0" encoding="utf-8"?>
<!-- Generator: Adobe Illustrator 23.0.5, SVG Export Plug-In . SVG Version: 6.00 Build 0)  -->
<svg version="1.1" id="Layer_1" xmlns="http://www.w3.org/2000/svg" xmlns:xlink="http://www.w3.org/1999/xlink" x="0px" y="0px"
	 viewBox="0 0 50.21 45.74" style="enable-background:new 0 0 50.21 45.74;" xml:space="preserve">
<style type="text/css">
	.st0{fill:#065D80;}
</style>
<path class="st0" d="M25.14,5.21c4.11,0,8.22,0.03,12.33-0.02c0.9-0.01,1.15,0.29,1.14,1.16c-0.04,3.75,0.01,7.51-0.04,11.27
	c-0.01,0.83,0.26,1.38,0.84,1.92c1.3,1.2,2.52,2.49,3.81,3.71c1.59,1.51,2.02,3.33,1.6,5.44c-0.35,1.74-0.66,3.48-0.96,5.22
	c-0.07,0.4-0.32,0.91,0.48,0.97c0.29,0.02,1.04,2.17,0.94,2.49c-0.07,0.22-0.22,0.37-0.46,0.38c-0.29,0.01-0.41-0.2-0.55-0.42
	c-0.27-0.41-0.03-1.2-0.71-1.25c-0.46-0.03-0.94,0.26-1.41,0.41c-1.88,0.6-3.75,1.23-5.64,1.8c-0.61,0.18-0.8,0.41-0.54,1.03
	c0.31,0.75,0.52,1.54,0.77,2.31c0.12,0.36,0.18,0.74-0.28,0.88c-0.39,0.12-0.64-0.17-0.68-0.49c-0.11-0.91-0.68-0.96-1.43-0.95
	c-6.2,0.02-12.4,0.02-18.6,0c-0.68,0-1.17,0.07-1.28,0.86c-0.05,0.37-0.27,0.72-0.72,0.57c-0.46-0.15-0.37-0.53-0.25-0.89
	c0.22-0.67,0.37-1.38,0.67-2.01c0.37-0.79,0.21-1.15-0.66-1.4c-2.11-0.61-4.19-1.29-6.26-2c-0.65-0.22-0.99-0.18-1.1,0.56
	C6.11,37,6,37.23,5.89,37.45c-0.12,0.25-0.35,0.37-0.62,0.26c-0.2-0.08-0.42-0.28-0.32-0.49c0.39-0.83,0.1-2.02,1.29-2.44
	c0.46-0.16,0.17-0.57,0.13-0.82c-0.28-1.75-0.57-3.49-0.93-5.22c-0.45-2.15-0.01-3.99,1.6-5.53c1.33-1.27,2.61-2.6,3.96-3.86
	c0.49-0.45,0.66-0.92,0.66-1.57c-0.03-3.79,0.01-7.58-0.03-11.37c-0.01-0.91,0.21-1.23,1.18-1.22C16.92,5.24,21.03,5.21,25.14,5.21
	 M37.32,25.61c0.22-0.4,0.19-0.74,0.19-1.07c0.03-5.77,0.04-11.55,0.1-17.32c0.01-0.81-0.23-1-1.01-1c-7.65,0.03-15.31,0.03-22.96,0
	c-0.78,0-1.02,0.2-1.01,1c0.06,6.06,0.06,12.11,0.09,18.17c0,0.21,0.05,0.41,0.07,0.65c0.26-0.22,0.18-0.49,0.22-0.72
	c0.15-0.8,0.24-1.62,0.48-2.39c0.36-1.13,1.27-1.69,2.35-1.59c0.97,0.08,1.61,0.73,1.88,1.87c0.15,0.63,0.19,1.28,0.02,1.9
	c-0.56,2.08-0.53,4.21-0.54,6.33c-0.01,1.28-0.32,2.43-1.08,3.48c-0.58,0.8-1.07,1.66-1.64,2.56c2.1,0.4,0.57,1.7,0.71,2.56h19.85
	c0.02-0.94-1.32-2.15,0.69-2.55c-0.39-0.63-0.68-1.25-1.1-1.76c-1.32-1.58-1.73-3.39-1.65-5.41c0.06-1.55,0.03-3.11-0.41-4.63
	c-0.21-0.71-0.27-1.46-0.14-2.21c0.23-1.31,0.92-2.05,2.01-2.12c1.16-0.08,2,0.54,2.37,1.84C37.04,23.94,37.15,24.74,37.32,25.61
	 M38.8,20.33c-0.3,0.26-0.2,0.52-0.2,0.75c-0.01,2.16,0,4.32-0.01,6.47c0,0.38,0.07,0.85-0.39,1.01c-0.43,0.15-0.72-0.21-1-0.46
	c-0.79-0.73-0.88-1.74-1.01-2.72c-0.11-0.8-0.15-1.62-0.53-2.37c-0.23-0.45-0.61-0.7-1.11-0.67c-0.51,0.03-0.82,0.35-0.99,0.83
	c-0.2,0.55-0.24,1.14-0.09,1.67c0.75,2.67,0.49,5.41,0.66,8.12c0.01,0.16-0.11,0.34,0.06,0.49c1.02,0.9,1.56,2.13,2.27,3.25
	c0.27,0.42,0.56,0.47,0.95,0.34c1.58-0.53,3.15-1.08,4.73-1.61c0.29-0.1,0.5-0.23,0.55-0.56c0.35-2.66,1.11-5.26,1.22-7.96
	c0.02-0.62-0.09-1.19-0.46-1.7C42.11,23.36,40.42,21.88,38.8,20.33 M11.54,20.39c-1.19,0.79-4.11,3.78-4.79,4.87
	c-0.3,0.47-0.37,0.98-0.37,1.52c-0.01,1.6,0.3,3.16,0.61,4.72c0.24,1.24,0.12,2.83,0.85,3.63c0.77,0.84,2.36,0.95,3.6,1.35
	c2.02,0.66,1.94,0.59,3.21-1.14c1.17-1.59,1.69-3.27,1.59-5.24c-0.09-1.62,0.01-3.25,0.48-4.84c0.19-0.65,0.2-1.33,0.02-1.99
	c-0.14-0.52-0.46-0.9-1.02-0.94c-0.55-0.04-0.95,0.26-1.17,0.75c-0.31,0.69-0.37,1.43-0.47,2.17c-0.12,0.83-0.13,1.71-0.68,2.42
	c-0.34,0.43-0.7,1.07-1.32,0.88c-0.64-0.2-0.4-0.9-0.41-1.4c-0.02-1.91,0-3.82-0.01-5.73C11.64,21.08,11.75,20.72,11.54,20.39"/>
<path class="st0" d="M25.12,4.21c-2.02,0-4.04,0-6.05,0c-0.38,0-0.89,0.09-0.92-0.45c-0.04-0.62,0.51-0.57,0.92-0.57
	c4.03,0,8.07,0,12.1,0c0.4,0,0.87,0,0.87,0.53c0,0.55-0.49,0.49-0.88,0.49C29.16,4.21,27.14,4.21,25.12,4.21"/>
<path class="st0" d="M13.12,39.82c-0.1,0.44-0.31,0.75-0.79,0.7c-0.39-0.04-0.65-0.29-0.62-0.71c0.03-0.45,0.3-0.73,0.76-0.69
	C12.86,39.15,13.08,39.43,13.12,39.82"/>
<path class="st0" d="M38.54,39.79c-0.03,0.44-0.25,0.7-0.65,0.73c-0.48,0.04-0.74-0.27-0.76-0.7c-0.02-0.45,0.3-0.73,0.74-0.71
	C38.27,39.13,38.49,39.42,38.54,39.79"/>
<path class="st0" d="M25.73,26.59c-2.32,0.18-4.28-0.63-6.02-2.1c-0.5-0.42-0.68-0.87-0.53-1.48c0.31-1.21,0.9-2.23,1.94-2.94
	c0.76-0.52,1.48-0.8,2.42-0.21c1.09,0.7,2.32,0.61,3.41-0.11c0.56-0.38,1.05-0.31,1.58-0.03c1.45,0.77,2.25,1.99,2.53,3.58
	c0.06,0.35,0.05,0.68-0.25,0.97C29.39,25.66,27.7,26.45,25.73,26.59 M21.66,24.78c0-0.71-0.01-1.13,0-1.54
	c0.01-0.35-0.06-0.78,0.46-0.8c0.58-0.02,0.52,0.45,0.54,0.84c0,0.07,0,0.14,0,0.21c0.03,1.89,0.1,1.97,1.99,2.1
	c0.42,0.03,0.85,0.02,1.27-0.03c1.71-0.21,1.71-0.22,1.71-1.92c0-0.21,0-0.42,0-0.64c0-0.32,0.11-0.56,0.47-0.57
	c0.36-0.01,0.51,0.23,0.52,0.54c0.02,0.51,0.01,1.02,0.01,1.61c1.59-0.94,1.7-1.4,0.81-2.74c-0.77-1.16-1.39-1.35-2.7-0.85
	c-1.22,0.47-2.42,0.41-3.6-0.16c-0.24-0.12-0.45-0.34-0.78-0.29c-0.74,0.12-1.85,1.37-2.1,2.38C20.01,23.98,20.99,24.07,21.66,24.78
	"/>
<path class="st0" d="M28.97,14.46c0.6,0.98-0.07,2.13-0.72,3.28c-0.69,1.22-1.67,2.07-3.12,2.06c-1.44-0.01-2.34-0.9-3.14-2.05
	c-1.1-1.58-0.78-3.24-0.46-4.88c0.22-1.1,1.13-1.75,2.18-1.95c1.19-0.23,2.37-0.35,3.59,0.33C28.5,11.92,28.89,12.83,28.97,14.46
	 M25.06,18.81c0.12-0.01,0.19-0.02,0.26-0.03c1.11-0.16,2.74-1.98,2.76-3.07c0.02-0.91-1-1.72-1.89-1.45
	c-0.82,0.24-1.6,0.17-2.4-0.08c-0.34-0.11-0.8-0.19-0.94,0.21c-0.18,0.54-0.88,0.9-0.58,1.59c0.23,0.51,0.48,1.02,0.78,1.5
	C23.53,18.23,24.2,18.72,25.06,18.81 M27.66,12.98c-0.53-1.19-1.64-1.26-2.7-1.26c-0.97,0-1.95,0.18-2.31,1.23
	C24.32,13.42,25.97,13.41,27.66,12.98"/>
<path class="st0" d="M25.04,36.09c-1.38,0-2.76,0-4.14,0.01c-0.38,0-0.77-0.04-0.76-0.51c0-0.47,0.39-0.51,0.77-0.51
	c2.79,0,5.59,0,8.38,0c0.38,0,0.75,0.04,0.76,0.52c0,0.5-0.39,0.5-0.76,0.5C27.87,36.08,26.45,36.09,25.04,36.09"/>
<path class="st0" d="M25.06,31.13c-1.34,0-2.69,0-4.03,0c-0.41,0-0.88,0-0.9-0.51c-0.02-0.52,0.44-0.53,0.85-0.53
	c2.72,0,5.45,0,8.17,0c0.38,0,0.87-0.1,0.88,0.48c0.01,0.64-0.53,0.54-0.94,0.54C27.75,31.14,26.41,31.13,25.06,31.13"/>
<path class="st0" d="M22.61,33.59c-0.63,0-1.27,0-1.9,0c-0.32,0-0.56-0.13-0.56-0.49c0-0.36,0.25-0.48,0.57-0.48
	c1.27,0,2.54,0,3.81,0c0.32,0,0.57,0.14,0.56,0.49c0,0.35-0.26,0.48-0.57,0.48C23.88,33.59,23.24,33.59,22.61,33.59"/>
<path class="st0" d="M27.58,33.59c-0.46,0-0.92,0-1.38,0c-0.31,0-0.58-0.12-0.6-0.46c-0.02-0.34,0.22-0.51,0.54-0.51
	c0.95-0.01,1.91-0.01,2.87,0c0.32,0,0.56,0.15,0.54,0.51c-0.02,0.36-0.29,0.46-0.59,0.46C28.5,33.59,28.04,33.59,27.58,33.59"/>
</svg>
