<?xml version="1.0" encoding="utf-8"?>
<!-- Generator: Adobe Illustrator 23.0.5, SVG Export Plug-In . SVG Version: 6.00 Build 0)  -->
<svg version="1.1" id="Layer_1" xmlns="http://www.w3.org/2000/svg" xmlns:xlink="http://www.w3.org/1999/xlink" x="0px" y="0px"
	 viewBox="0 0 67.92 70.3" style="enable-background:new 0 0 67.92 70.3;" xml:space="preserve">
<style type="text/css">
	.st0{clip-path:url(#SVGID_1_);fill:url(#SVGID_2_);}
	.st1{clip-path:url(#SVGID_3_);fill:url(#SVGID_4_);}
	.st2{clip-path:url(#SVGID_5_);fill:url(#SVGID_6_);}
	.st3{clip-path:url(#SVGID_7_);fill:url(#SVGID_8_);}
	.st4{clip-path:url(#SVGID_9_);fill:url(#SVGID_10_);}
	.st5{clip-path:url(#SVGID_11_);fill:url(#SVGID_12_);}
	.st6{clip-path:url(#SVGID_13_);fill:url(#SVGID_14_);}
	.st7{clip-path:url(#SVGID_15_);fill:url(#SVGID_16_);}
	.st8{clip-path:url(#SVGID_17_);fill:url(#SVGID_18_);}
	.st9{clip-path:url(#SVGID_19_);fill:url(#SVGID_20_);}
</style>
<g>
	<defs>
		<path id="SVGID_31_" d="M23,58.75c-1.91,0-3.46,1.55-3.46,3.46h28.84c0-1.91-1.55-3.46-3.46-3.46H23z"/>
	</defs>
	<clipPath id="SVGID_1_">
		<use xlink:href="#SVGID_31_"  style="overflow:visible;"/>
	</clipPath>
	
		<linearGradient id="SVGID_2_" gradientUnits="userSpaceOnUse" x1="-971.7595" y1="6451.792" x2="-970.7596" y2="6451.792" gradientTransform="matrix(28.8409 0 0 -28.8409 28045.9219 186135.7344)">
		<stop  offset="0" style="stop-color:#045D80"/>
		<stop  offset="1" style="stop-color:#87BB41"/>
	</linearGradient>
	<rect x="19.54" y="58.75" class="st0" width="28.84" height="3.46"/>
</g>
<g>
	<defs>
		<path id="SVGID_34_" d="M61.05,18.61c0.89,0,1.11,0.21,1.11,1.11c-0.04,10.99-0.04,21.97-0.01,32.96c0,0.75-0.16,0.96-0.92,0.95
			c-18.13-0.02-36.26-0.02-54.39,0c-0.69,0-0.91-0.16-0.91-0.88c0.03-11.05,0.03-22.11,0-33.16c0-0.87,0.31-0.96,1.04-0.96
			c9.06,0.02,18.13,0.01,27.2,0.01c3.77,0,7.55,0,11.32,0C50.67,18.64,55.86,18.63,61.05,18.61 M46.27,13.97
			c0-1.2,0.99-2.2,2.17-2.21c1.15-0.01,2.28,1.12,2.28,2.28c0,1.16-1.03,2.16-2.22,2.17c0,0-0.01,0-0.01,0
			C47.24,16.21,46.27,15.23,46.27,13.97 M58.14,13.98c0.01-1.19,0.98-2.18,2.17-2.21c1.22-0.03,2.28,0.98,2.3,2.19
			c0.02,1.22-0.99,2.24-2.23,2.25c0,0-0.01,0-0.01,0C59.14,16.21,58.13,15.2,58.14,13.98 M52.19,14c0-1.22,1.04-2.26,2.25-2.24
			c1.19,0.02,2.21,1.07,2.21,2.29c0,1.16-1.01,2.16-2.19,2.17c-0.01,0-0.02,0-0.02,0C53.23,16.23,52.19,15.2,52.19,14 M34.08,9.14
			c-9.54,0-19.08,0-28.62,0c-2.56,0-3.29,0.75-3.29,3.32C2.19,26.43,2.2,40.38,2.21,54.33c0,2.49,0.78,3.28,3.25,3.28
			c19.11,0,38.23,0,57.34,0c2.17,0,2.95-0.77,2.95-2.9c0-14.22,0-28.45,0-42.67c0-2.18-0.74-2.9-2.93-2.9
			C53.23,9.14,43.66,9.14,34.08,9.14"/>
	</defs>
	<clipPath id="SVGID_3_">
		<use xlink:href="#SVGID_34_"  style="overflow:visible;"/>
	</clipPath>
	
		<linearGradient id="SVGID_4_" gradientUnits="userSpaceOnUse" x1="-968.9499" y1="6555.0679" x2="-967.9498" y2="6555.0679" gradientTransform="matrix(63.5629 0 0 -63.5629 61591.4414 416692.5313)">
		<stop  offset="0" style="stop-color:#045D80"/>
		<stop  offset="1" style="stop-color:#87BB41"/>
	</linearGradient>
	<rect x="2.17" y="9.14" class="st1" width="63.57" height="48.48"/>
</g>
<g>
	<defs>
		<path id="SVGID_37_" d="M52.81,29.93c0.62,0,0.79,0.15,0.78,0.79c-0.03,3.54-0.04,7.08,0,10.62c0.01,0.75-0.17,0.95-0.93,0.94
			c-6.2-0.04-12.4-0.02-18.6-0.02c-6.17,0-12.34-0.02-18.51,0.02c-0.79,0-1.02-0.18-1.01-0.99c0.05-3.5,0.04-7.01,0.01-10.52
			c-0.01-0.68,0.2-0.84,0.85-0.84c6.24,0.01,12.47,0.01,18.71,0.01S46.58,29.94,52.81,29.93 M54.47,27.92
			c-6.8,0.05-13.61,0.03-20.42,0.03c-6.84,0-13.68,0.01-20.52-0.01c-0.7,0-0.99,0.1-0.98,0.91c0.05,4.82,0.04,9.64,0.01,14.46
			c-0.01,0.73,0.14,0.97,0.93,0.97c13.74-0.03,27.49-0.03,41.24,0c0.73,0,0.88-0.23,0.88-0.91c-0.03-4.75-0.04-9.5,0-14.25
			c0.01-0.87-0.15-1.18-1.1-1.18C54.49,27.92,54.48,27.92,54.47,27.92"/>
	</defs>
	<clipPath id="SVGID_5_">
		<use xlink:href="#SVGID_37_"  style="overflow:visible;"/>
	</clipPath>
	
		<linearGradient id="SVGID_6_" gradientUnits="userSpaceOnUse" x1="-970.062" y1="6514.1963" x2="-969.0616" y2="6514.1963" gradientTransform="matrix(43.0512 0 0 -43.0512 41774.8477 280479.875)">
		<stop  offset="0" style="stop-color:#045D80"/>
		<stop  offset="1" style="stop-color:#87BB41"/>
	</linearGradient>
	<rect x="12.55" y="27.92" class="st2" width="43.06" height="16.35"/>
</g>
<g>
	<defs>
		<path id="SVGID_40_" d="M42.66,37.3c-0.46,0.46-0.77,1.02-0.96,1.63c-0.19,0.57-0.15,0.96,0.65,0.92c1-0.06,2.01-0.01,3.03-0.01
			c0.64,0,1.28,0.04,1.91-0.01c0.19-0.02,0.4,0.01,0.62,0.04c0.47,0.06,0.94,0.13,1.14-0.29c0.31-0.69-0.29-1.38-0.72-1.98
			c-0.1-0.14-0.21-0.26-0.33-0.38c-0.43-0.4-0.81-0.7-1.44-0.22c-0.69,0.51-1.58,0.56-2.27,0.03c-0.26-0.2-0.48-0.28-0.68-0.28
			C43.24,36.74,42.96,37,42.66,37.3"/>
	</defs>
	<clipPath id="SVGID_7_">
		<use xlink:href="#SVGID_40_"  style="overflow:visible;"/>
	</clipPath>
	
		<linearGradient id="SVGID_8_" gradientUnits="userSpaceOnUse" x1="-986.3364" y1="5915.9956" x2="-985.3364" y2="5915.9956" gradientTransform="matrix(7.5223 0 0 -7.5223 7461.0864 44539.9414)">
		<stop  offset="0" style="stop-color:#045D80"/>
		<stop  offset="1" style="stop-color:#87BB41"/>
	</linearGradient>
	<rect x="41.51" y="36.52" class="st3" width="7.84" height="3.48"/>
</g>
<g>
	<defs>
		<path id="SVGID_43_" d="M35.22,33.39c-0.45,0.09-0.24,0.49-0.25,0.75c-0.02,1.35-0.02,2.7-0.01,4.04c0,0.33-0.08,0.67,0.47,0.68
			c0.59,0.01,0.55-0.32,0.55-0.71c-0.01-0.84,0-1.68,0-2.52c0.06-0.02,0.11-0.04,0.17-0.07c0.6,0.96,1.24,1.9,1.8,2.88
			c0.24,0.41,0.56,0.42,0.94,0.4c0.36-0.01,0.31-0.28,0.31-0.51c0-1.48-0.01-2.96,0.01-4.45c0-0.4-0.15-0.52-0.54-0.52
			c-0.44-0.01-0.48,0.22-0.47,0.56c0.01,0.86,0,1.72,0,2.57c-0.76-0.87-1.38-1.78-1.93-2.72c-0.19-0.33-0.44-0.42-0.71-0.42
			C35.44,33.35,35.33,33.36,35.22,33.39"/>
	</defs>
	<clipPath id="SVGID_9_">
		<use xlink:href="#SVGID_43_"  style="overflow:visible;"/>
	</clipPath>
	
		<linearGradient id="SVGID_10_" gradientUnits="userSpaceOnUse" x1="-1001.4002" y1="5362.2773" x2="-1000.4002" y2="5362.2773" gradientTransform="matrix(4.2646 0 0 -4.2646 4305.5234 22904.2031)">
		<stop  offset="0" style="stop-color:#045D80"/>
		<stop  offset="1" style="stop-color:#87BB41"/>
	</linearGradient>
	<rect x="34.77" y="33.35" class="st4" width="4.47" height="5.52"/>
</g>
<g>
	<defs>
		<path id="SVGID_46_" d="M45.36,32.36c-1.22,0.01-2.17,0.98-2.15,2.2c0.01,1.23,0.97,2.16,2.2,2.14c1.17-0.01,2.13-1.04,2.12-2.26
			c-0.01-1.14-0.99-2.09-2.15-2.09C45.37,32.36,45.37,32.36,45.36,32.36"/>
	</defs>
	<clipPath id="SVGID_11_">
		<use xlink:href="#SVGID_46_"  style="overflow:visible;"/>
	</clipPath>
	
		<linearGradient id="SVGID_12_" gradientUnits="userSpaceOnUse" x1="-1000.964" y1="5378.3101" x2="-999.964" y2="5378.3101" gradientTransform="matrix(4.3188 0 0 -4.3188 4366.1548 23262.2813)">
		<stop  offset="0" style="stop-color:#045D80"/>
		<stop  offset="1" style="stop-color:#87BB41"/>
	</linearGradient>
	<rect x="43.2" y="32.37" class="st5" width="4.35" height="4.36"/>
</g>
<g>
	<defs>
		<path id="SVGID_49_" d="M24.03,38c-0.8-0.04-1.4-0.88-1.39-1.93c0.02-1.07,0.64-1.87,1.45-1.86c0.86,0,1.45,0.82,1.41,1.97
			C25.47,37.27,24.9,38,24.1,38C24.08,38,24.06,38,24.03,38 M21.58,36.07c-0.03,1.65,0.92,2.79,2.37,2.83
			c1.56,0.04,2.62-1.07,2.66-2.78c0.04-1.66-0.98-2.83-2.48-2.84c-0.01,0-0.01,0-0.02,0C22.64,33.28,21.61,34.42,21.58,36.07"/>
	</defs>
	<clipPath id="SVGID_13_">
		<use xlink:href="#SVGID_49_"  style="overflow:visible;"/>
	</clipPath>
	
		<linearGradient id="SVGID_14_" gradientUnits="userSpaceOnUse" x1="-996.0744" y1="5558.0361" x2="-995.0744" y2="5558.0361" gradientTransform="matrix(5.0356 0 0 -5.0356 5037.4409 28024.3027)">
		<stop  offset="0" style="stop-color:#045D80"/>
		<stop  offset="1" style="stop-color:#87BB41"/>
	</linearGradient>
	<rect x="21.56" y="33.28" class="st6" width="5.1" height="5.66"/>
</g>
<g>
	<defs>
		<path id="SVGID_52_" d="M27.84,34.25c-0.71,0.8-0.87,2.2-0.38,3.23c0.56,1.15,1.94,1.63,3.51,1.33c1.1-0.21,0.67-1.02,0.76-1.58
			c0-1.49,0-1.5-1.38-1.43c-0.06,0-0.12-0.01-0.19-0.02c-0.22-0.03-0.45-0.06-0.48,0.35c-0.04,0.47,0.16,0.59,0.58,0.55
			c0.55-0.04,0.42,0.38,0.45,0.7c0.03,0.37-0.12,0.54-0.5,0.59c-0.93,0.11-1.75-0.48-1.92-1.4c-0.29-1.62,0.75-2.54,2.51-2.21
			c0.32,0.06,0.58,0.15,0.7-0.29c0.11-0.4-0.08-0.53-0.41-0.64c-0.28-0.09-0.58-0.14-0.89-0.14C29.32,33.29,28.37,33.65,27.84,34.25
			"/>
	</defs>
	<clipPath id="SVGID_15_">
		<use xlink:href="#SVGID_52_"  style="overflow:visible;"/>
	</clipPath>
	
		<linearGradient id="SVGID_16_" gradientUnits="userSpaceOnUse" x1="-999.1141" y1="5446.2866" x2="-998.1141" y2="5446.2866" gradientTransform="matrix(4.5646 0 0 -4.5646 4587.7583 24896.4414)">
		<stop  offset="0" style="stop-color:#045D80"/>
		<stop  offset="1" style="stop-color:#87BB41"/>
	</linearGradient>
	<rect x="26.97" y="33.29" class="st7" width="5.1" height="5.82"/>
</g>
<g>
	<defs>
		<path id="SVGID_55_" d="M18.71,33.36c-0.39,0-0.54,0.12-0.53,0.52c0.02,0.74,0.01,1.48,0.01,2.22c0,0.27,0,0.54,0,0.8
			c0,1.94,0,1.97,1.92,1.92c0.11,0,0.24,0.03,0.38,0.05c0.4,0.08,0.85,0.16,0.89-0.46c0.04-0.77-0.43-0.67-0.86-0.56
			c-0.16,0.04-0.3,0.08-0.41,0.07c-0.69-0.03-0.94-0.19-0.9-0.91c0.06-1.04,0-2.08,0.02-3.12c0-0.39-0.12-0.52-0.51-0.52
			C18.72,33.36,18.72,33.36,18.71,33.36"/>
	</defs>
	<clipPath id="SVGID_17_">
		<use xlink:href="#SVGID_55_"  style="overflow:visible;"/>
	</clipPath>
	
		<linearGradient id="SVGID_18_" gradientUnits="userSpaceOnUse" x1="-1012.8986" y1="4939.6118" x2="-1011.8986" y2="4939.6118" gradientTransform="matrix(3.2051 0 0 -3.2051 3264.647 15868.2627)">
		<stop  offset="0" style="stop-color:#045D80"/>
		<stop  offset="1" style="stop-color:#87BB41"/>
	</linearGradient>
	<rect x="18.17" y="33.36" class="st8" width="3.26" height="5.67"/>
</g>
<g>
	<defs>
		<path id="SVGID_58_" d="M33.33,33.36c-0.42,0-0.61,0.12-0.59,0.57c0.03,0.71,0.01,1.41,0.01,2.12c0,0.74,0.02,1.48-0.01,2.22
			c-0.02,0.44,0.14,0.58,0.57,0.58c0.46,0.01,0.47-0.24,0.47-0.57c-0.01-1.45-0.01-2.9,0-4.34C33.78,33.62,33.8,33.36,33.33,33.36
			C33.34,33.36,33.33,33.36,33.33,33.36"/>
	</defs>
	<clipPath id="SVGID_19_">
		<use xlink:href="#SVGID_58_"  style="overflow:visible;"/>
	</clipPath>
	
		<linearGradient id="SVGID_20_" gradientUnits="userSpaceOnUse" x1="-1108.5288" y1="1424.5061" x2="-1107.5288" y2="1424.5061" gradientTransform="matrix(1.0453 0 0 -1.0453 1191.4829 1525.1423)">
		<stop  offset="0" style="stop-color:#045D80"/>
		<stop  offset="1" style="stop-color:#87BB41"/>
	</linearGradient>
	<rect x="32.72" y="33.36" class="st9" width="1.08" height="5.51"/>
</g>
</svg>
