<?xml version="1.0" encoding="utf-8"?>
<!-- Generator: Adobe Illustrator 23.0.5, SVG Export Plug-In . SVG Version: 6.00 Build 0)  -->
<svg version="1.1" id="Layer_1" xmlns="http://www.w3.org/2000/svg" xmlns:xlink="http://www.w3.org/1999/xlink" x="0px" y="0px"
	 viewBox="0 0 50.21 45.74" style="enable-background:new 0 0 50.21 45.74;" xml:space="preserve">
<style type="text/css">
	.st0{fill:#065D80;}
</style>
<path class="st0" d="M31.78,16.31c1.44-0.45,2.43-1.38,4.04-1.5c-1.65-1.34-2.65-2.69-2.47-4.64c0.11-1.2,0.6-2.17,1.49-2.96
	c1.88-1.67,4.77-1.46,6.39,0.46c1.8,2.13,1.32,4.83-1.32,6.97c0.28,0.12,0.51,0.25,0.75,0.33c2.84,0.94,4.11,2.52,4.21,5.47
	c0.07,2.15,0.02,4.31,0.01,6.47c-0.01,1.42-0.54,2.57-1.89,3.15c-0.67,0.29-0.74,0.73-0.72,1.34c0.03,1.02,0.01,2.04,0.01,3.07
	c0,0.96,0.02,1.93,0,2.89c-0.04,1.68-1.14,3.09-2.56,2.64c-1.89-0.61-3.92,0.95-5.62-0.61c-0.59-0.54-0.75-1.22-0.75-2
	c0.01-4.77,0.02-9.53-0.02-14.3c0-0.39,0.44-1.19-0.46-1.15c-0.61,0.02-1.22,0.35-1.09,1.19c0.26,1.62-0.61,1.86-1.98,1.83
	c-3.29-0.08-6.58,0.04-9.87-0.06c-1.24-0.04-1.63,0.37-1.43,1.51c0.01,0.06,0.01,0.11,0,0.17c-0.71,4.63,0.44,8.56,4.31,11.48
	c0.51,0.38,1.22,1.02,0.54,1.69c-0.77,0.76-1.3-0.07-1.79-0.6c-0.88-0.94-1.75-1.89-2.74-2.97c-0.5,0.81-0.24,1.54-0.31,2.22
	c-0.07,0.63,0.26,1.56-0.77,1.58c-1.11,0.02-0.87-0.96-0.9-1.66c-0.03-0.68-0.01-1.36-0.01-2.42c-1.24,1.33-2.26,2.42-3.26,3.52
	c-0.41,0.46-0.89,0.88-1.44,0.43c-0.66-0.54-0.22-1.1,0.23-1.59c1-1.08,1.91-2.27,3.01-3.24c1.23-1.08,1.58-2.34,1.48-3.91
	c-0.11-1.64-0.1-3.29,0-4.93c0.07-1.1-0.33-1.3-1.34-1.29c-3.46,0.06-6.92-0.01-10.38,0.05c-1.2,0.02-1.59-0.43-1.58-1.59
	c0.04-5.33,0.04-10.67,0-16C3.53,6.13,3.9,5.63,5.19,5.63c8.34,0.04,16.68,0.04,25.02,0c1.16,0,1.61,0.37,1.58,1.58
	C31.73,10.2,31.78,13.19,31.78,16.31 M30.15,22.8c-1.81,0-3.38,0-4.95,0c-1.19,0-2.27-0.42-2.52-1.6c-0.24-1.18-0.98-1.86-1.71-2.62
	c-1.34-1.38-2.7-2.75-4.04-4.14c-0.41-0.42-0.81-0.88-0.21-1.44c0.62-0.58,1.03-0.09,1.42,0.31c1.43,1.46,2.85,2.93,4.29,4.37
	c0.3,0.3,0.55,0.92,1.05,0.7c1.65-0.72,3.36-0.26,5.04-0.35c1.13-0.05,1.62-0.46,1.59-1.64c-0.06-2.61-0.07-5.22,0.01-7.83
	c0.04-1.12-0.4-1.28-1.38-1.27C21.38,7.32,14.01,7.33,6.63,7.28C5.53,7.27,5.18,7.55,5.2,8.69c0.07,4.37,0.07,8.74,0,13.1
	c-0.02,1.23,0.37,1.49,1.53,1.48c7.26-0.05,14.52-0.02,21.78-0.04C28.97,23.23,29.5,23.45,30.15,22.8 M42.27,28.56
	c0.71-0.54,0.93-0.94,0.93-1.39c0-2.44,0.04-4.88-0.07-7.32c-0.06-1.4-0.82-2.52-2.16-3.01c-2.15-0.78-4.5-1.01-6.45,0.11
	c-2.94,1.69-5.78,3.3-9.35,2.71c-0.44-0.07-0.94,0.08-0.94,0.71c0,0.6,0.43,0.75,0.93,0.75c2.64-0.03,5.3,0.32,7.8-1.06
	c1.69-0.93,2.06-0.61,2.07,1.3c0.01,5.16,0.01,10.33,0.01,15.49c0,0.76-0.05,1.6,1.03,1.55c0.95-0.04,0.91-0.82,0.91-1.52
	c-0.01-2.27-0.03-4.54,0-6.81c0.01-0.68-0.29-1.71,0.78-1.76c1.15-0.05,0.83,1,0.84,1.67c0.03,2.21,0.01,4.43,0.01,6.64
	c0,0.79-0.16,1.76,1,1.78c1.2,0.02,0.98-0.99,0.98-1.76c0-4.71,0-9.42,0-14.13c0-0.64-0.05-1.41,0.78-1.46
	c0.99-0.06,0.9,0.79,0.9,1.47C42.27,24.44,42.27,26.35,42.27,28.56 M37.85,13.37c1.54-0.02,2.77-1.29,2.74-2.85
	c-0.02-1.56-1.3-2.79-2.84-2.75c-1.58,0.04-2.76,1.27-2.73,2.85C35.05,12.19,36.28,13.39,37.85,13.37"/>
<path class="st0" d="M11.68,10.53c1.18,0,2.37,0.01,3.55-0.01c0.57,0,1.07,0.15,1.09,0.78c0.03,0.64-0.47,0.85-1.03,0.85
	c-2.43,0.01-4.85,0.01-7.28,0c-0.57,0-1.04-0.23-1-0.87c0.04-0.64,0.54-0.77,1.1-0.76C9.31,10.54,10.49,10.53,11.68,10.53"/>
<path class="st0" d="M11.77,14.66c1.19,0,2.37,0,3.56,0c0.5,0,0.93,0.16,0.99,0.7c0.07,0.65-0.39,0.94-0.94,0.95
	c-2.48,0.03-4.97,0.02-7.45,0.01c-0.52,0-0.9-0.32-0.91-0.82c-0.01-0.62,0.43-0.84,1.03-0.84C9.29,14.67,10.53,14.66,11.77,14.66"/>
</svg>
