<?xml version="1.0" encoding="utf-8"?>
<!-- Generator: Adobe Illustrator 23.0.5, SVG Export Plug-In . SVG Version: 6.00 Build 0)  -->
<svg version="1.1" id="Layer_1" xmlns="http://www.w3.org/2000/svg" xmlns:xlink="http://www.w3.org/1999/xlink" x="0px" y="0px"
	 viewBox="0 0 90.38 87.98" style="enable-background:new 0 0 90.38 87.98;" xml:space="preserve">
<style type="text/css">
	.st0{clip-path:url(#SVGID_2_);fill:url(#SVGID_3_);}
	.st1{clip-path:url(#SVGID_5_);fill:none;stroke:#8DC63F;stroke-miterlimit:10;}
	.st2{clip-path:url(#SVGID_7_);fill:url(#SVGID_8_);}
	.st3{clip-path:url(#SVGID_10_);fill:none;stroke:#8DC63F;stroke-miterlimit:10;}
	.st4{clip-path:url(#SVGID_12_);fill:url(#SVGID_13_);}
	.st5{clip-path:url(#SVGID_15_);fill:none;stroke:#8DC63F;stroke-miterlimit:10;}
	.st6{clip-path:url(#SVGID_17_);fill:url(#SVGID_18_);}
	.st7{clip-path:url(#SVGID_20_);fill:none;stroke:#8DC63F;stroke-miterlimit:10;}
	.st8{clip-path:url(#SVGID_22_);fill:url(#SVGID_23_);}
	.st9{clip-path:url(#SVGID_25_);fill:none;stroke:#8DC63F;stroke-miterlimit:10;}
	.st10{clip-path:url(#SVGID_27_);fill:url(#SVGID_28_);}
	.st11{clip-path:url(#SVGID_30_);fill:none;stroke:#8DC63F;stroke-miterlimit:10;}
	.st12{clip-path:url(#SVGID_32_);fill:url(#SVGID_33_);}
	.st13{clip-path:url(#SVGID_35_);fill:url(#SVGID_36_);}
	.st14{clip-path:url(#SVGID_38_);fill:url(#SVGID_39_);}
	.st15{clip-path:url(#SVGID_41_);fill:url(#SVGID_42_);}
	.st16{clip-path:url(#SVGID_44_);fill:url(#SVGID_45_);}
	.st17{clip-path:url(#SVGID_47_);fill:url(#SVGID_48_);}
	.st18{clip-path:url(#SVGID_50_);fill:url(#SVGID_51_);}
	.st19{clip-path:url(#SVGID_53_);fill:url(#SVGID_54_);}
	.st20{clip-path:url(#SVGID_56_);fill:url(#SVGID_57_);}
	.st21{clip-path:url(#SVGID_59_);fill:url(#SVGID_60_);}
</style>
<g>
	<defs>
		<path id="SVGID_1_" d="M119.37-4049.45c0.73,0,0.84,0.22,0.84,0.88c-0.02,11.59-0.01,23.18-0.01,34.77c0,0.23,0,0.46,0,0.69
			c0,0.62-0.25,0.87-0.93,0.86c-24.41-0.02-48.82-0.01-73.22-0.01c-0.98,0-1.17-0.19-1.18-1.23c-0.01-2.57,0-5.14,0-7.71
			c0-9.15,0.01-18.29-0.01-27.44c0-0.7,0.2-0.81,0.84-0.81c12.28,0.02,24.56,0.01,36.84,0.01c4.47,0,8.93,0,13.4,0
			C103.74-4049.43,111.56-4049.43,119.37-4049.45 M44.86-4051.44c0.08-0.63-0.26-1.45,0.13-1.83c0.27-0.27,0.76-0.22,1.24-0.16
			c0.21,0.03,0.41,0.05,0.6,0.05c11.9-0.01,23.8,0,35.7,0c12.28,0,24.56,0.01,36.84-0.02c0.7,0,0.93,0.19,0.84,0.87
			c-0.08,0.6,0.25,1.39-0.13,1.77c-0.38,0.38-1.16,0.12-1.76,0.12c-24.23,0-48.47,0-72.7,0.02
			C44.97-4050.63,44.79-4050.82,44.86-4051.44 M55.39-4059.98c1.73-0.02,3-1.38,3.02-3.25c0.01-1.02,0.02-2.04,0-3.06
			c-0.01-0.39,0.1-0.56,0.51-0.51c0.27,0.03,0.56,0.01,0.83,0.01c15.31,0,30.61,0,45.91-0.01c0.68,0,0.95,0.14,0.88,0.86
			c-0.07,0.73-0.04,1.48,0,2.21c0.09,1.65,1.36,2.86,2.97,2.89c1.61,0.03,2.92-1.15,3.05-2.79c0.07-0.86,0.04-1.73,0.03-2.6
			c-0.01-0.42,0.1-0.57,0.55-0.57c2.16,0.02,4.32,0.02,6.47,0c0.49-0.01,0.59,0.2,0.59,0.63c-0.01,3.67-0.02,7.34,0.01,11.01
			c0.01,0.61-0.31,0.55-0.7,0.55c-6.55,0-13.1,0-19.64,0H82.51c-12.18,0-24.36,0-36.55,0c-1.09,0-1.09,0-1.09-1.14
			c0-3.39,0.02-6.78-0.01-10.17c-0.01-0.66,0.16-0.9,0.84-0.89c2.03,0.03,4.06,0.02,6.09,0c0.44-0.01,0.56,0.13,0.55,0.56
			c-0.03,1.02-0.02,2.04,0,3.06c0.03,1.86,1.32,3.21,3.02,3.21C55.37-4059.98,55.38-4059.98,55.39-4059.98 M53.57-4063.17
			c-0.01-1.4,0-2.8,0-4.19c0-1.37-0.01-2.74,0-4.12c0.01-1.16,0.74-1.93,1.79-1.95c1.04-0.01,1.81,0.76,1.82,1.92
			c0.02,2.8,0.02,5.59,0,8.39c-0.01,1.1-0.77,1.91-1.76,1.92c-0.01,0-0.02,0-0.03,0C54.34-4061.21,53.58-4062.01,53.57-4063.17
			 M107.76-4064.01c-0.02-1.42-0.01-2.84-0.01-4.27c0-1.35-0.01-2.69,0.01-4.04c0.01-1.15,0.75-1.96,1.77-1.98
			c1.06-0.03,1.84,0.78,1.84,1.98c0.01,2.77,0.01,5.54,0,8.31c-0.01,1.17-0.74,1.93-1.8,1.93
			C108.52-4062.08,107.78-4062.85,107.76-4064.01 M109.52-4075.53c-1.67,0.02-2.95,1.35-2.98,3.12c-0.02,1.09-0.01,2.19-0.01,3.29
			s0,1.1-1.06,1.1c-11.26,0-22.53,0-33.8,0c-4.19,0-8.37-0.01-12.56,0.01c-0.55,0-0.73-0.11-0.72-0.7c0.03-1.12,0.12-2.25-0.05-3.36
			c-0.25-1.64-1.58-2.68-3.23-2.57c-1.52,0.1-2.7,1.33-2.77,2.92c-0.03,0.81-0.02,1.63-0.01,2.44c0,1.25,0,1.25-1.21,1.25
			c-1.85,0-3.7-0.01-5.56,0c-1.43,0.02-1.91,0.53-1.91,1.94c0,17.53,0,35.05,0,52.58c0,1.78,0.71,2.48,2.49,2.48h36.46h35.02
			c0.71,0,1.42,0,2.13,0c0.72-0.01,1.18-0.38,1.45-1.02c0.19-0.46,0.21-0.94,0.21-1.43c0-17.55,0-35.1-0.01-52.65
			c0-1.5-0.4-1.9-1.9-1.9c-2.11,0-4.21-0.01-6.32,0.01c-0.46,0.01-0.61-0.1-0.6-0.59c0.04-1.27,0.03-2.54,0.01-3.82
			c-0.03-1.78-1.35-3.11-3.03-3.11C109.55-4075.53,109.54-4075.53,109.52-4075.53"/>
	</defs>
	<clipPath id="SVGID_2_">
		<use xlink:href="#SVGID_1_"  style="overflow:visible;"/>
	</clipPath>
	
		<radialGradient id="SVGID_3_" cx="-995.9937" cy="6665.356" r="1" gradientTransform="matrix(35.7219 0 0 -35.7219 35661.3203 234055.9063)" gradientUnits="userSpaceOnUse">
		<stop  offset="0" style="stop-color:#FFFFFF"/>
		<stop  offset="0.0134" style="stop-color:#FFFFFF"/>
		<stop  offset="0.0453" style="stop-color:#FBFFBF"/>
		<stop  offset="0.1543" style="stop-color:#E2F0A3"/>
		<stop  offset="0.3203" style="stop-color:#C1DD80"/>
		<stop  offset="0.4883" style="stop-color:#A8CE64"/>
		<stop  offset="0.6571" style="stop-color:#95C351"/>
		<stop  offset="0.8271" style="stop-color:#8BBD45"/>
		<stop  offset="1" style="stop-color:#87BB41"/>
		<stop  offset="1" style="stop-color:#87BB41"/>
	</radialGradient>
	<rect x="43.65" y="-4075.53" class="st0" width="77.76" height="64.51"/>
</g>
<g>
	<defs>
		<rect id="SVGID_4_" x="-931.5" y="-6536" width="2002.66" height="13200"/>
	</defs>
	<clipPath id="SVGID_5_">
		<use xlink:href="#SVGID_4_"  style="overflow:visible;"/>
	</clipPath>
	<path class="st1" d="M82.61-4011.02H46.14c-1.78,0-2.49-0.7-2.49-2.48c0-17.53,0-35.05,0-52.58c0-1.42,0.49-1.93,1.92-1.94
		c1.85-0.02,3.7,0,5.56,0c1.21,0,1.21,0,1.21-1.25c0-0.81-0.02-1.63,0.01-2.44c0.07-1.59,1.25-2.83,2.77-2.92
		c1.65-0.11,2.98,0.93,3.23,2.57c0.17,1.11,0.08,2.24,0.05,3.36c-0.02,0.59,0.17,0.71,0.72,0.7c4.19-0.02,8.37-0.01,12.56-0.01
		c11.27,0,22.53,0,33.8,0c1.06,0,1.06,0,1.06-1.1c0-1.09-0.01-2.19,0.01-3.29c0.03-1.77,1.31-3.1,2.98-3.12
		c1.7-0.02,3.04,1.31,3.07,3.11c0.02,1.27,0.03,2.55-0.01,3.82c-0.01,0.48,0.14,0.59,0.6,0.59c2.11-0.02,4.21-0.01,6.32-0.01
		c1.5,0,1.9,0.39,1.9,1.9c0,17.55,0,35.1,0.01,52.66c0,0.48-0.02,0.97-0.21,1.43c-0.27,0.65-0.74,1.02-1.45,1.03
		c-0.71,0-1.42,0-2.13,0H82.61z M82.53-4049.43c-12.28,0-24.56,0-36.84-0.01c-0.64,0-0.84,0.11-0.84,0.81
		c0.03,9.14,0.02,18.29,0.02,27.43c0,2.57,0,5.15,0,7.72c0,1.03,0.2,1.22,1.18,1.22c24.41,0,48.82,0,73.23,0.01
		c0.68,0,0.93-0.24,0.93-0.86c0-0.23,0-0.46,0-0.69c0-11.59-0.01-23.18,0.01-34.77c0-0.66-0.12-0.89-0.84-0.89
		C107.09-4049.42,94.81-4049.43,82.53-4049.43z M82.51-4054.61h17.36c6.55,0,13.09,0,19.64,0c0.39,0,0.71,0.06,0.7-0.55
		c-0.03-3.67-0.02-7.34-0.01-11.01c0-0.44-0.09-0.64-0.59-0.63c-2.16,0.02-4.31,0.02-6.47,0c-0.45,0-0.56,0.15-0.55,0.57
		c0.02,0.87,0.04,1.74-0.03,2.6c-0.13,1.65-1.45,2.82-3.05,2.79c-1.61-0.03-2.88-1.24-2.97-2.88c-0.04-0.74-0.07-1.48,0-2.22
		c0.07-0.73-0.21-0.86-0.88-0.86c-15.3,0.02-30.61,0.01-45.91,0.01c-0.28,0-0.56,0.03-0.84,0c-0.41-0.05-0.52,0.12-0.51,0.51
		c0.02,1.02,0.01,2.04,0,3.06c-0.02,1.87-1.29,3.24-3.02,3.25c-1.72,0.01-3.02-1.34-3.05-3.21c-0.02-1.02-0.02-2.04,0-3.06
		c0.01-0.43-0.11-0.56-0.55-0.56c-2.03,0.02-4.06,0.03-6.09,0c-0.68-0.01-0.84,0.23-0.84,0.89c0.03,3.39,0.01,6.78,0.01,10.17
		c0,1.14,0,1.14,1.1,1.14C58.15-4054.61,70.33-4054.61,82.51-4054.61z M82.52-4053.39c-11.9,0-23.8,0-35.7,0
		c-0.63,0-1.44-0.28-1.83,0.11c-0.39,0.39-0.05,1.21-0.13,1.83c-0.07,0.62,0.11,0.81,0.77,0.81c24.23-0.02,48.47-0.01,72.7-0.02
		c0.6,0,1.38,0.26,1.76-0.12s0.05-1.17,0.13-1.77c0.09-0.68-0.14-0.87-0.84-0.87C107.08-4053.38,94.8-4053.39,82.52-4053.39z
		 M53.57-4067.37c0,1.4-0.01,2.8,0,4.19c0.01,1.17,0.79,1.98,1.86,1.97c0.98-0.01,1.75-0.82,1.75-1.92c0.01-2.8,0.02-5.59,0-8.39
		c-0.01-1.16-0.77-1.94-1.82-1.92c-1.05,0.01-1.78,0.79-1.79,1.95C53.56-4070.11,53.57-4068.74,53.57-4067.37z M107.76-4068.28
		c0,1.42-0.02,2.85,0,4.27c0.02,1.16,0.76,1.93,1.81,1.92c1.06,0,1.8-0.76,1.8-1.93c0.02-2.77,0.02-5.54,0-8.31
		c-0.01-1.19-0.79-2-1.85-1.98c-1.02,0.02-1.75,0.83-1.77,1.98C107.75-4070.97,107.76-4069.63,107.76-4068.28z"/>
</g>
<g>
	<defs>
		<path id="SVGID_6_" d="M99.61-4060.13c-0.2,0.01-0.41,0-0.61,0H82.48H65.81c-0.2,0-0.4,0.01-0.61,0
			c-0.39-0.01-0.57,0.25-0.58,0.57c-0.02,0.33,0.19,0.58,0.55,0.61c0.2,0.02,0.4,0.01,0.61,0.01c10.98,0,21.97,0,32.96,0
			c0.28,0,0.56-0.02,0.83,0c0.42,0.02,0.72-0.16,0.74-0.59c0.02-0.42-0.26-0.61-0.66-0.61
			C99.64-4060.13,99.62-4060.13,99.61-4060.13"/>
	</defs>
	<clipPath id="SVGID_7_">
		<use xlink:href="#SVGID_6_"  style="overflow:visible;"/>
	</clipPath>
	
		<radialGradient id="SVGID_8_" cx="-992.5959" cy="6665.4238" r="1.0009" gradientTransform="matrix(12.6257 0 0 -12.6257 12614.7236 80096.3906)" gradientUnits="userSpaceOnUse">
		<stop  offset="0" style="stop-color:#FFFFFF"/>
		<stop  offset="0.0134" style="stop-color:#FFFFFF"/>
		<stop  offset="0.0453" style="stop-color:#FBFFBF"/>
		<stop  offset="0.1543" style="stop-color:#E2F0A3"/>
		<stop  offset="0.3203" style="stop-color:#C1DD80"/>
		<stop  offset="0.4883" style="stop-color:#A8CE64"/>
		<stop  offset="0.6571" style="stop-color:#95C351"/>
		<stop  offset="0.8271" style="stop-color:#8BBD45"/>
		<stop  offset="1" style="stop-color:#87BB41"/>
		<stop  offset="1" style="stop-color:#87BB41"/>
	</radialGradient>
	<rect x="64.6" y="-4060.14" class="st2" width="35.72" height="1.22"/>
</g>
<g>
	<defs>
		<rect id="SVGID_9_" x="-931.5" y="-6536" width="2002.66" height="13200"/>
	</defs>
	<clipPath id="SVGID_10_">
		<use xlink:href="#SVGID_9_"  style="overflow:visible;"/>
	</clipPath>
	<path class="st3" d="M82.48-4060.13H99c0.2,0,0.41,0.01,0.61,0c0.42-0.01,0.72,0.17,0.7,0.61c-0.02,0.43-0.31,0.61-0.73,0.59
		c-0.28-0.01-0.56,0-0.84,0c-10.99,0-21.97,0-32.96,0c-0.2,0-0.41,0.01-0.61-0.01c-0.36-0.04-0.57-0.28-0.55-0.62
		c0.01-0.32,0.2-0.58,0.59-0.57c0.2,0,0.41,0,0.61,0H82.48z"/>
</g>
<text transform="matrix(1 0 0 1.004 55.7403 -4024.2588)"><tspan x="0" y="0" style="fill:#8DC63F; font-family:'Poppins-Medium'; font-size:16.729px; letter-spacing:1;">Y</tspan><tspan x="11.14" y="0" style="fill:#8DC63F; font-family:'Poppins-Medium'; font-size:16.729px; letter-spacing:1;">E</tspan><tspan x="20.91" y="0" style="fill:#8DC63F; font-family:'Poppins-Medium'; font-size:16.729px; letter-spacing:1;">AR</tspan><tspan x="45.18" y="0" style="fill:#8DC63F; font-family:'Poppins-Medium'; font-size:16.729px;">S</tspan></text>
<g>
	<defs>
		<path id="SVGID_11_" d="M79.37-4051.45c0.73,0,0.84,0.22,0.84,0.88c-0.02,11.59-0.01,23.18-0.01,34.77c0,0.23,0,0.46,0,0.69
			c0,0.62-0.25,0.87-0.93,0.86c-24.41-0.02-48.82-0.01-73.22-0.01c-0.98,0-1.17-0.19-1.18-1.23c-0.01-2.57,0-5.14,0-7.71
			c0-9.15,0.01-18.29-0.01-27.44c0-0.7,0.2-0.81,0.84-0.81c12.28,0.02,24.56,0.01,36.84,0.01c4.47,0,8.93,0,13.4,0
			C63.74-4051.43,71.56-4051.43,79.37-4051.45 M4.86-4053.44c0.08-0.63-0.26-1.45,0.13-1.83c0.27-0.27,0.76-0.22,1.24-0.16
			c0.21,0.03,0.41,0.05,0.6,0.05c11.9-0.01,23.8,0,35.7,0c12.28,0,24.56,0.01,36.84-0.02c0.7,0,0.93,0.19,0.84,0.87
			c-0.08,0.6,0.25,1.39-0.13,1.77c-0.38,0.38-1.16,0.12-1.76,0.12c-24.23,0-48.47,0-72.7,0.02
			C4.97-4052.63,4.79-4052.82,4.86-4053.44 M15.39-4061.98c1.73-0.02,3-1.38,3.02-3.25c0.01-1.02,0.02-2.04,0-3.06
			c-0.01-0.39,0.1-0.56,0.51-0.51c0.27,0.03,0.56,0.01,0.83,0.01c15.31,0,30.61,0,45.91-0.01c0.68,0,0.95,0.14,0.88,0.86
			c-0.07,0.73-0.04,1.48,0,2.21c0.09,1.65,1.36,2.86,2.97,2.89c1.61,0.03,2.92-1.15,3.05-2.79c0.07-0.86,0.04-1.73,0.03-2.6
			c-0.01-0.42,0.1-0.57,0.55-0.57c2.16,0.02,4.32,0.02,6.47,0c0.49-0.01,0.59,0.2,0.59,0.63c-0.01,3.67-0.02,7.34,0.01,11.01
			c0.01,0.61-0.31,0.55-0.7,0.55c-6.55,0-13.1,0-19.64,0H42.51c-12.18,0-24.36,0-36.55,0c-1.09,0-1.09,0-1.09-1.14
			c0-3.39,0.02-6.78-0.01-10.17c-0.01-0.66,0.16-0.9,0.84-0.89c2.03,0.03,4.06,0.02,6.09,0c0.44-0.01,0.56,0.13,0.55,0.56
			c-0.03,1.02-0.02,2.04,0,3.06c0.03,1.86,1.32,3.21,3.02,3.21C15.37-4061.98,15.38-4061.98,15.39-4061.98 M13.57-4065.17
			c-0.01-1.4,0-2.8,0-4.19c0-1.37-0.01-2.74,0-4.12c0.01-1.16,0.74-1.93,1.79-1.95c1.04-0.01,1.81,0.76,1.82,1.92
			c0.02,2.8,0.02,5.59,0,8.39c-0.01,1.1-0.77,1.91-1.76,1.92c-0.01,0-0.02,0-0.03,0C14.34-4063.21,13.58-4064.01,13.57-4065.17
			 M67.76-4066.01c-0.02-1.42-0.01-2.84-0.01-4.27c0-1.35-0.01-2.69,0.01-4.04c0.01-1.15,0.75-1.96,1.77-1.98
			c1.06-0.03,1.84,0.78,1.84,1.98c0.01,2.77,0.01,5.54,0,8.31c-0.01,1.17-0.74,1.93-1.8,1.93
			C68.52-4064.08,67.78-4064.85,67.76-4066.01 M69.52-4077.53c-1.67,0.02-2.95,1.35-2.98,3.12c-0.02,1.09-0.01,2.19-0.01,3.29
			s0,1.1-1.06,1.1c-11.26,0-22.53,0-33.8,0c-4.19,0-8.37-0.01-12.56,0.01c-0.55,0-0.73-0.11-0.72-0.7c0.03-1.12,0.12-2.25-0.05-3.36
			c-0.25-1.64-1.58-2.68-3.23-2.57c-1.52,0.1-2.7,1.33-2.77,2.92c-0.03,0.81-0.02,1.63-0.01,2.44c0,1.25,0,1.25-1.21,1.25
			c-1.85,0-3.7-0.01-5.56,0c-1.43,0.02-1.91,0.53-1.91,1.94c0,17.53,0,35.05,0,52.58c0,1.78,0.71,2.48,2.49,2.48h36.46h35.02
			c0.71,0,1.42,0,2.13,0c0.72-0.01,1.18-0.38,1.45-1.02c0.19-0.46,0.21-0.94,0.21-1.43c0-17.55,0-35.1-0.01-52.65
			c0-1.5-0.4-1.9-1.9-1.9c-2.11,0-4.21-0.01-6.32,0.01c-0.46,0.01-0.61-0.1-0.6-0.59c0.04-1.27,0.03-2.54,0.01-3.82
			c-0.03-1.78-1.35-3.11-3.03-3.11C69.55-4077.53,69.54-4077.53,69.52-4077.53"/>
	</defs>
	<clipPath id="SVGID_12_">
		<use xlink:href="#SVGID_11_"  style="overflow:visible;"/>
	</clipPath>
	
		<radialGradient id="SVGID_13_" cx="-997.1134" cy="6665.4121" r="1" gradientTransform="matrix(35.7219 0 0 -35.7219 35661.3203 234055.9063)" gradientUnits="userSpaceOnUse">
		<stop  offset="0" style="stop-color:#FFFFFF"/>
		<stop  offset="0.0134" style="stop-color:#FFFFFF"/>
		<stop  offset="0.0453" style="stop-color:#FBFFBF"/>
		<stop  offset="0.1543" style="stop-color:#E2F0A3"/>
		<stop  offset="0.3203" style="stop-color:#C1DD80"/>
		<stop  offset="0.4883" style="stop-color:#A8CE64"/>
		<stop  offset="0.6571" style="stop-color:#95C351"/>
		<stop  offset="0.8271" style="stop-color:#8BBD45"/>
		<stop  offset="1" style="stop-color:#87BB41"/>
		<stop  offset="1" style="stop-color:#87BB41"/>
	</radialGradient>
	<rect x="3.65" y="-4077.53" class="st4" width="77.76" height="64.51"/>
</g>
<g>
	<defs>
		<rect id="SVGID_14_" x="-971.5" y="-6538" width="2002.66" height="13200"/>
	</defs>
	<clipPath id="SVGID_15_">
		<use xlink:href="#SVGID_14_"  style="overflow:visible;"/>
	</clipPath>
	<path class="st5" d="M42.61-4013.02H6.14c-1.78,0-2.49-0.7-2.49-2.48c0-17.53,0-35.05,0-52.58c0-1.42,0.49-1.93,1.92-1.94
		c1.85-0.02,3.7,0,5.56,0c1.21,0,1.21,0,1.21-1.25c0-0.81-0.02-1.63,0.01-2.44c0.07-1.59,1.25-2.83,2.77-2.92
		c1.65-0.11,2.98,0.93,3.23,2.57c0.17,1.11,0.08,2.24,0.05,3.36c-0.02,0.59,0.17,0.71,0.72,0.7c4.19-0.02,8.37-0.01,12.56-0.01
		c11.27,0,22.53,0,33.8,0c1.06,0,1.06,0,1.06-1.1c0-1.09-0.01-2.19,0.01-3.29c0.03-1.77,1.31-3.1,2.98-3.12
		c1.7-0.02,3.04,1.31,3.07,3.11c0.02,1.27,0.03,2.55-0.01,3.82c-0.01,0.48,0.14,0.59,0.6,0.59c2.11-0.02,4.21-0.01,6.32-0.01
		c1.5,0,1.9,0.39,1.9,1.9c0,17.55,0,35.1,0.01,52.66c0,0.48-0.02,0.97-0.21,1.43c-0.27,0.65-0.74,1.02-1.45,1.03
		c-0.71,0-1.42,0-2.13,0H42.61z M42.53-4051.43c-12.28,0-24.56,0-36.84-0.01c-0.64,0-0.84,0.11-0.84,0.81
		c0.03,9.14,0.02,18.29,0.02,27.43c0,2.57,0,5.15,0,7.72c0,1.03,0.2,1.22,1.18,1.22c24.41,0,48.82,0,73.23,0.01
		c0.68,0,0.93-0.24,0.93-0.86c0-0.23,0-0.46,0-0.69c0-11.59-0.01-23.18,0.01-34.77c0-0.66-0.12-0.89-0.84-0.89
		C67.09-4051.42,54.81-4051.43,42.53-4051.43z M42.51-4056.61h17.36c6.55,0,13.09,0,19.64,0c0.39,0,0.71,0.06,0.7-0.55
		c-0.03-3.67-0.02-7.34-0.01-11.01c0-0.44-0.09-0.64-0.59-0.63c-2.16,0.02-4.31,0.02-6.47,0c-0.45,0-0.56,0.15-0.55,0.57
		c0.02,0.87,0.04,1.74-0.03,2.6c-0.13,1.65-1.45,2.82-3.05,2.79c-1.61-0.03-2.88-1.24-2.97-2.88c-0.04-0.74-0.07-1.48,0-2.22
		c0.07-0.73-0.21-0.86-0.88-0.86c-15.3,0.02-30.61,0.01-45.91,0.01c-0.28,0-0.56,0.03-0.84,0c-0.41-0.05-0.52,0.12-0.51,0.51
		c0.02,1.02,0.01,2.04,0,3.06c-0.02,1.87-1.29,3.24-3.02,3.25c-1.72,0.01-3.02-1.34-3.05-3.21c-0.02-1.02-0.02-2.04,0-3.06
		c0.01-0.43-0.11-0.56-0.55-0.56c-2.03,0.02-4.06,0.03-6.09,0c-0.68-0.01-0.84,0.23-0.84,0.89c0.03,3.39,0.01,6.78,0.01,10.17
		c0,1.14,0,1.14,1.1,1.14C18.15-4056.61,30.33-4056.61,42.51-4056.61z M42.52-4055.39c-11.9,0-23.8,0-35.7,0
		c-0.63,0-1.44-0.28-1.83,0.11c-0.39,0.39-0.05,1.21-0.13,1.83c-0.07,0.62,0.11,0.81,0.77,0.81c24.23-0.02,48.47-0.01,72.7-0.02
		c0.6,0,1.38,0.26,1.76-0.12s0.05-1.17,0.13-1.77c0.09-0.68-0.14-0.87-0.84-0.87C67.08-4055.38,54.8-4055.39,42.52-4055.39z
		 M13.57-4069.37c0,1.4-0.01,2.8,0,4.19c0.01,1.17,0.79,1.98,1.86,1.97c0.98-0.01,1.75-0.82,1.75-1.92c0.01-2.8,0.02-5.59,0-8.39
		c-0.01-1.16-0.77-1.94-1.82-1.92c-1.05,0.01-1.78,0.79-1.79,1.95C13.56-4072.11,13.57-4070.74,13.57-4069.37z M67.76-4070.28
		c0,1.42-0.02,2.85,0,4.27c0.02,1.16,0.76,1.93,1.81,1.92c1.06,0,1.8-0.76,1.8-1.93c0.02-2.77,0.02-5.54,0-8.31
		c-0.01-1.19-0.79-2-1.85-1.98c-1.02,0.02-1.75,0.83-1.77,1.98C67.75-4072.97,67.76-4071.63,67.76-4070.28z"/>
</g>
<g>
	<defs>
		<path id="SVGID_16_" d="M59.61-4062.13c-0.2,0.01-0.41,0-0.61,0H42.48H25.81c-0.2,0-0.4,0.01-0.61,0
			c-0.39-0.01-0.57,0.25-0.58,0.57c-0.02,0.33,0.19,0.58,0.55,0.61c0.2,0.02,0.4,0.01,0.61,0.01c10.98,0,21.97,0,32.96,0
			c0.28,0,0.56-0.02,0.83,0c0.42,0.02,0.72-0.16,0.74-0.59c0.02-0.42-0.26-0.61-0.66-0.61
			C59.64-4062.13,59.62-4062.13,59.61-4062.13"/>
	</defs>
	<clipPath id="SVGID_17_">
		<use xlink:href="#SVGID_16_"  style="overflow:visible;"/>
	</clipPath>
	
		<radialGradient id="SVGID_18_" cx="-995.764" cy="6665.582" r="1.0009" gradientTransform="matrix(12.6257 0 0 -12.6257 12614.7236 80096.3906)" gradientUnits="userSpaceOnUse">
		<stop  offset="0" style="stop-color:#FFFFFF"/>
		<stop  offset="0.0134" style="stop-color:#FFFFFF"/>
		<stop  offset="0.0453" style="stop-color:#FBFFBF"/>
		<stop  offset="0.1543" style="stop-color:#E2F0A3"/>
		<stop  offset="0.3203" style="stop-color:#C1DD80"/>
		<stop  offset="0.4883" style="stop-color:#A8CE64"/>
		<stop  offset="0.6571" style="stop-color:#95C351"/>
		<stop  offset="0.8271" style="stop-color:#8BBD45"/>
		<stop  offset="1" style="stop-color:#87BB41"/>
		<stop  offset="1" style="stop-color:#87BB41"/>
	</radialGradient>
	<rect x="24.6" y="-4062.14" class="st6" width="35.72" height="1.22"/>
</g>
<g>
	<defs>
		<rect id="SVGID_19_" x="-971.5" y="-6538" width="2002.66" height="13200"/>
	</defs>
	<clipPath id="SVGID_20_">
		<use xlink:href="#SVGID_19_"  style="overflow:visible;"/>
	</clipPath>
	<path class="st7" d="M42.48-4062.13H59c0.2,0,0.41,0.01,0.61,0c0.42-0.01,0.72,0.17,0.7,0.61c-0.02,0.43-0.31,0.61-0.73,0.59
		c-0.28-0.01-0.56,0-0.84,0c-10.99,0-21.97,0-32.96,0c-0.2,0-0.41,0.01-0.61-0.01c-0.36-0.04-0.57-0.28-0.55-0.62
		c0.01-0.32,0.2-0.58,0.59-0.57c0.2,0,0.41,0,0.61,0H42.48z"/>
</g>
<text transform="matrix(1 0 0 1.004 15.7403 -4026.2588)"><tspan x="0" y="0" style="fill:#8DC63F; font-family:'Poppins-Medium'; font-size:16.729px; letter-spacing:1;">Y</tspan><tspan x="11.14" y="0" style="fill:#8DC63F; font-family:'Poppins-Medium'; font-size:16.729px; letter-spacing:1;">E</tspan><tspan x="20.91" y="0" style="fill:#8DC63F; font-family:'Poppins-Medium'; font-size:16.729px; letter-spacing:1;">AR</tspan><tspan x="45.18" y="0" style="fill:#8DC63F; font-family:'Poppins-Medium'; font-size:16.729px;">S</tspan></text>
<g>
	<defs>
		<path id="SVGID_21_" d="M66.37-4110.45c0.73,0,0.84,0.22,0.84,0.88c-0.02,11.59-0.01,23.18-0.01,34.77c0,0.23,0,0.46,0,0.69
			c0,0.62-0.25,0.87-0.93,0.86c-24.41-0.02-48.82-0.01-73.22-0.01c-0.98,0-1.17-0.19-1.18-1.23c-0.01-2.57,0-5.14,0-7.71
			c0-9.15,0.01-18.29-0.01-27.44c0-0.7,0.2-0.81,0.84-0.81c12.28,0.02,24.56,0.01,36.84,0.01c4.47,0,8.93,0,13.4,0
			C50.74-4110.43,58.56-4110.43,66.37-4110.45 M-8.14-4112.44c0.08-0.63-0.26-1.45,0.13-1.83c0.27-0.27,0.76-0.22,1.24-0.16
			c0.21,0.03,0.41,0.05,0.6,0.05c11.9-0.01,23.8,0,35.7,0c12.28,0,24.56,0.01,36.84-0.02c0.7,0,0.93,0.19,0.84,0.87
			c-0.08,0.6,0.25,1.39-0.13,1.77c-0.38,0.38-1.16,0.12-1.76,0.12c-24.23,0-48.47,0-72.7,0.02
			C-8.03-4111.63-8.21-4111.82-8.14-4112.44 M2.39-4120.98c1.73-0.02,3-1.38,3.02-3.25c0.01-1.02,0.02-2.04,0-3.06
			c-0.01-0.39,0.1-0.56,0.51-0.51c0.27,0.03,0.56,0.01,0.83,0.01c15.31,0,30.61,0,45.91-0.01c0.68,0,0.95,0.14,0.88,0.86
			c-0.07,0.73-0.04,1.48,0,2.21c0.09,1.65,1.36,2.86,2.97,2.89c1.61,0.03,2.92-1.15,3.05-2.79c0.07-0.86,0.04-1.73,0.03-2.6
			c-0.01-0.42,0.1-0.57,0.55-0.57c2.16,0.02,4.32,0.02,6.47,0c0.49-0.01,0.59,0.2,0.59,0.63c-0.01,3.67-0.02,7.34,0.01,11.01
			c0.01,0.61-0.31,0.55-0.7,0.55c-6.55,0-13.1,0-19.64,0H29.51c-12.18,0-24.36,0-36.55,0c-1.09,0-1.09,0-1.09-1.14
			c0-3.39,0.02-6.78-0.01-10.17c-0.01-0.66,0.16-0.9,0.84-0.89c2.03,0.03,4.06,0.02,6.09,0c0.44-0.01,0.56,0.13,0.55,0.56
			c-0.03,1.02-0.02,2.04,0,3.06c0.03,1.86,1.32,3.21,3.02,3.21C2.37-4120.98,2.38-4120.98,2.39-4120.98 M0.57-4124.17
			c-0.01-1.4,0-2.8,0-4.19c0-1.37-0.01-2.74,0-4.12c0.01-1.16,0.74-1.93,1.79-1.95c1.04-0.01,1.81,0.76,1.82,1.92
			c0.02,2.8,0.02,5.59,0,8.39c-0.01,1.1-0.77,1.91-1.76,1.92c-0.01,0-0.02,0-0.03,0C1.34-4122.21,0.58-4123.01,0.57-4124.17
			 M54.76-4125.01c-0.02-1.42-0.01-2.84-0.01-4.27c0-1.35-0.01-2.69,0.01-4.04c0.01-1.15,0.75-1.96,1.77-1.98
			c1.06-0.03,1.84,0.78,1.84,1.98c0.01,2.77,0.01,5.54,0,8.31c-0.01,1.17-0.74,1.93-1.8,1.93
			C55.52-4123.08,54.78-4123.85,54.76-4125.01 M56.52-4136.53c-1.67,0.02-2.95,1.35-2.98,3.12c-0.02,1.09-0.01,2.19-0.01,3.29
			s0,1.1-1.06,1.1c-11.26,0-22.53,0-33.8,0c-4.19,0-8.37-0.01-12.56,0.01c-0.55,0-0.73-0.11-0.72-0.7c0.03-1.12,0.12-2.25-0.05-3.36
			c-0.25-1.64-1.58-2.68-3.23-2.57c-1.52,0.1-2.7,1.33-2.77,2.92c-0.03,0.81-0.02,1.63-0.01,2.44c0,1.25,0,1.25-1.21,1.25
			c-1.85,0-3.7-0.01-5.56,0c-1.43,0.02-1.91,0.53-1.91,1.94c0,17.53,0,35.05,0,52.58c0,1.78,0.71,2.48,2.49,2.48h36.46h35.02
			c0.71,0,1.42,0,2.13,0c0.72-0.01,1.18-0.38,1.45-1.02c0.19-0.46,0.21-0.94,0.21-1.43c0-17.55,0-35.1-0.01-52.65
			c0-1.5-0.4-1.9-1.9-1.9c-2.11,0-4.21-0.01-6.32,0.01c-0.46,0.01-0.61-0.1-0.6-0.59c0.04-1.27,0.03-2.54,0.01-3.82
			c-0.03-1.78-1.35-3.11-3.03-3.11C56.55-4136.53,56.54-4136.53,56.52-4136.53"/>
	</defs>
	<clipPath id="SVGID_22_">
		<use xlink:href="#SVGID_21_"  style="overflow:visible;"/>
	</clipPath>
	
		<radialGradient id="SVGID_23_" cx="-997.4774" cy="6667.0635" r="1" gradientTransform="matrix(35.7219 0 0 -35.7219 35661.3203 234055.9063)" gradientUnits="userSpaceOnUse">
		<stop  offset="0" style="stop-color:#FFFFFF"/>
		<stop  offset="0.0134" style="stop-color:#FFFFFF"/>
		<stop  offset="0.0453" style="stop-color:#FBFFBF"/>
		<stop  offset="0.1543" style="stop-color:#E2F0A3"/>
		<stop  offset="0.3203" style="stop-color:#C1DD80"/>
		<stop  offset="0.4883" style="stop-color:#A8CE64"/>
		<stop  offset="0.6571" style="stop-color:#95C351"/>
		<stop  offset="0.8271" style="stop-color:#8BBD45"/>
		<stop  offset="1" style="stop-color:#87BB41"/>
		<stop  offset="1" style="stop-color:#87BB41"/>
	</radialGradient>
	<rect x="-9.35" y="-4136.53" class="st8" width="77.76" height="64.51"/>
</g>
<g>
	<defs>
		<rect id="SVGID_24_" x="-984.5" y="-6597" width="2002.66" height="13200"/>
	</defs>
	<clipPath id="SVGID_25_">
		<use xlink:href="#SVGID_24_"  style="overflow:visible;"/>
	</clipPath>
	<path class="st9" d="M29.61-4072.02H-6.86c-1.78,0-2.49-0.7-2.49-2.48c0-17.53,0-35.05,0-52.58c0-1.42,0.49-1.93,1.92-1.94
		c1.85-0.02,3.7,0,5.56,0c1.21,0,1.21,0,1.21-1.25c0-0.81-0.02-1.63,0.01-2.44c0.07-1.59,1.25-2.83,2.77-2.92
		c1.65-0.11,2.98,0.93,3.23,2.57c0.17,1.11,0.08,2.24,0.05,3.36c-0.02,0.59,0.17,0.71,0.72,0.7c4.19-0.02,8.37-0.01,12.56-0.01
		c11.27,0,22.53,0,33.8,0c1.06,0,1.06,0,1.06-1.1c0-1.09-0.01-2.19,0.01-3.29c0.03-1.77,1.31-3.1,2.98-3.12
		c1.7-0.02,3.04,1.31,3.07,3.11c0.02,1.27,0.03,2.55-0.01,3.82c-0.01,0.48,0.14,0.59,0.6,0.59c2.11-0.02,4.21-0.01,6.32-0.01
		c1.5,0,1.9,0.39,1.9,1.9c0,17.55,0,35.1,0.01,52.66c0,0.48-0.02,0.97-0.21,1.43c-0.27,0.65-0.74,1.02-1.45,1.03
		c-0.71,0-1.42,0-2.13,0H29.61z M29.53-4110.43c-12.28,0-24.56,0-36.84-0.01c-0.64,0-0.84,0.11-0.84,0.81
		c0.03,9.14,0.02,18.29,0.02,27.43c0,2.57,0,5.15,0,7.72c0,1.03,0.2,1.22,1.18,1.22c24.41,0,48.82,0,73.23,0.01
		c0.68,0,0.93-0.24,0.93-0.86c0-0.23,0-0.46,0-0.69c0-11.59-0.01-23.18,0.01-34.77c0-0.66-0.12-0.89-0.84-0.89
		C54.09-4110.42,41.81-4110.43,29.53-4110.43z M29.51-4115.61h17.36c6.55,0,13.09,0,19.64,0c0.39,0,0.71,0.06,0.7-0.55
		c-0.03-3.67-0.02-7.34-0.01-11.01c0-0.44-0.09-0.64-0.59-0.63c-2.16,0.02-4.31,0.02-6.47,0c-0.45,0-0.56,0.15-0.55,0.57
		c0.02,0.87,0.04,1.74-0.03,2.6c-0.13,1.65-1.45,2.82-3.05,2.79c-1.61-0.03-2.88-1.24-2.97-2.88c-0.04-0.74-0.07-1.48,0-2.22
		c0.07-0.73-0.21-0.86-0.88-0.86c-15.3,0.02-30.61,0.01-45.91,0.01c-0.28,0-0.56,0.03-0.84,0c-0.41-0.05-0.52,0.12-0.51,0.51
		c0.02,1.02,0.01,2.04,0,3.06c-0.02,1.87-1.29,3.24-3.02,3.25c-1.72,0.01-3.02-1.34-3.05-3.21c-0.02-1.02-0.02-2.04,0-3.06
		c0.01-0.43-0.11-0.56-0.55-0.56c-2.03,0.02-4.06,0.03-6.09,0c-0.68-0.01-0.84,0.23-0.84,0.89c0.03,3.39,0.01,6.78,0.01,10.17
		c0,1.14,0,1.14,1.1,1.14C5.15-4115.61,17.33-4115.61,29.51-4115.61z M29.52-4114.39c-11.9,0-23.8,0-35.7,0
		c-0.63,0-1.44-0.28-1.83,0.11c-0.39,0.39-0.05,1.21-0.13,1.83c-0.07,0.62,0.11,0.81,0.77,0.81c24.23-0.02,48.47-0.01,72.7-0.02
		c0.6,0,1.38,0.26,1.76-0.12s0.05-1.17,0.13-1.77c0.09-0.68-0.14-0.87-0.84-0.87C54.08-4114.38,41.8-4114.39,29.52-4114.39z
		 M0.57-4128.37c0,1.4-0.01,2.8,0,4.19c0.01,1.17,0.79,1.98,1.86,1.97c0.98-0.01,1.75-0.82,1.75-1.92c0.01-2.8,0.02-5.59,0-8.39
		c-0.01-1.16-0.77-1.94-1.82-1.92c-1.05,0.01-1.78,0.79-1.79,1.95C0.56-4131.11,0.57-4129.74,0.57-4128.37z M54.76-4129.28
		c0,1.42-0.02,2.85,0,4.27c0.02,1.16,0.76,1.93,1.81,1.92c1.06,0,1.8-0.76,1.8-1.93c0.02-2.77,0.02-5.54,0-8.31
		c-0.01-1.19-0.79-2-1.85-1.98c-1.02,0.02-1.75,0.83-1.77,1.98C54.75-4131.97,54.76-4130.63,54.76-4129.28z"/>
</g>
<g>
	<defs>
		<path id="SVGID_26_" d="M46.61-4121.13c-0.2,0.01-0.41,0-0.61,0H29.48H12.81c-0.2,0-0.4,0.01-0.61,0
			c-0.39-0.01-0.57,0.25-0.58,0.57c-0.02,0.33,0.19,0.58,0.55,0.61c0.2,0.02,0.4,0.01,0.61,0.01c10.98,0,21.97,0,32.96,0
			c0.28,0,0.56-0.02,0.83,0c0.42,0.02,0.72-0.16,0.74-0.59c0.02-0.42-0.26-0.61-0.66-0.61
			C46.64-4121.13,46.62-4121.13,46.61-4121.13"/>
	</defs>
	<clipPath id="SVGID_27_">
		<use xlink:href="#SVGID_26_"  style="overflow:visible;"/>
	</clipPath>
	
		<radialGradient id="SVGID_28_" cx="-996.7937" cy="6670.2549" r="1.0009" gradientTransform="matrix(12.6257 0 0 -12.6257 12614.7236 80096.3906)" gradientUnits="userSpaceOnUse">
		<stop  offset="0" style="stop-color:#FFFFFF"/>
		<stop  offset="0.0134" style="stop-color:#FFFFFF"/>
		<stop  offset="0.0453" style="stop-color:#FBFFBF"/>
		<stop  offset="0.1543" style="stop-color:#E2F0A3"/>
		<stop  offset="0.3203" style="stop-color:#C1DD80"/>
		<stop  offset="0.4883" style="stop-color:#A8CE64"/>
		<stop  offset="0.6571" style="stop-color:#95C351"/>
		<stop  offset="0.8271" style="stop-color:#8BBD45"/>
		<stop  offset="1" style="stop-color:#87BB41"/>
		<stop  offset="1" style="stop-color:#87BB41"/>
	</radialGradient>
	<rect x="11.6" y="-4121.14" class="st10" width="35.72" height="1.22"/>
</g>
<g>
	<defs>
		<rect id="SVGID_29_" x="-984.5" y="-6597" width="2002.66" height="13200"/>
	</defs>
	<clipPath id="SVGID_30_">
		<use xlink:href="#SVGID_29_"  style="overflow:visible;"/>
	</clipPath>
	<path class="st11" d="M29.48-4121.13H46c0.2,0,0.41,0.01,0.61,0c0.42-0.01,0.72,0.17,0.7,0.61c-0.02,0.43-0.31,0.61-0.73,0.59
		c-0.28-0.01-0.56,0-0.84,0c-10.99,0-21.97,0-32.96,0c-0.2,0-0.41,0.01-0.61-0.01c-0.36-0.04-0.57-0.28-0.55-0.62
		c0.01-0.32,0.2-0.58,0.59-0.57c0.2,0,0.41,0,0.61,0H29.48z"/>
</g>
<text transform="matrix(1 0 0 1.004 2.7403 -4085.2588)"><tspan x="0" y="0" style="fill:#8DC63F; font-family:'Poppins-Medium'; font-size:16.729px; letter-spacing:1;">Y</tspan><tspan x="11.14" y="0" style="fill:#8DC63F; font-family:'Poppins-Medium'; font-size:16.729px; letter-spacing:1;">E</tspan><tspan x="20.91" y="0" style="fill:#8DC63F; font-family:'Poppins-Medium'; font-size:16.729px; letter-spacing:1;">AR</tspan><tspan x="45.18" y="0" style="fill:#8DC63F; font-family:'Poppins-Medium'; font-size:16.729px;">S</tspan></text>
<g>
	<defs>
		<path id="SVGID_31_" d="M47.47,7.78c-10.46,0-20.92,0-31.37,0c-1.26,0-1.74,0.35-1.74,1.32c-0.01,1.54-0.02,3.07,0,4.61
			c0.01,0.78,0.58,1.22,1.43,1.2c0.81-0.02,1.29-0.46,1.3-1.22c0.02-1.01,0.06-2.02-0.01-3.02c-0.05-0.63,0.24-0.73,0.96-0.73
			c19.58,0.02,39.16,0.02,58.75,0c0.75,0,0.94,0.14,0.94,0.74c-0.03,10.83-0.03,21.65,0,32.48c0,0.65-0.22,0.79-1.01,0.78
			c-11.67-0.02-23.34-0.01-35.01-0.01c-0.31,0-0.61-0.02-0.91,0.01c-0.73,0.08-1.15,0.45-1.19,1.01c-0.04,0.53,0.32,0.92,0.98,1.07
			c0.31,0.07,0.66,0.07,0.99,0.07c12.28,0,24.55,0,36.83,0c1.66,0,2.04-0.3,2.04-1.61c0-11.71,0-23.43,0-35.14
			c0-1.27-0.37-1.56-1.98-1.56H47.47z"/>
	</defs>
	<clipPath id="SVGID_32_">
		<use xlink:href="#SVGID_31_"  style="overflow:visible;"/>
	</clipPath>
	
		<radialGradient id="SVGID_33_" cx="-1006.8726" cy="6514.1953" r="1.0001" gradientTransform="matrix(27.0198 0 0 -27.0198 27252.9355 176039.4688)" gradientUnits="userSpaceOnUse">
		<stop  offset="0" style="stop-color:#FFFFFF"/>
		<stop  offset="0.0134" style="stop-color:#FFFFFF"/>
		<stop  offset="0.0453" style="stop-color:#FBFFBF"/>
		<stop  offset="0.1543" style="stop-color:#E2F0A3"/>
		<stop  offset="0.3203" style="stop-color:#C1DD80"/>
		<stop  offset="0.4883" style="stop-color:#A8CE64"/>
		<stop  offset="0.6571" style="stop-color:#95C351"/>
		<stop  offset="0.8271" style="stop-color:#8BBD45"/>
		<stop  offset="1" style="stop-color:#87BB41"/>
		<stop  offset="1" style="stop-color:#87BB41"/>
	</radialGradient>
	<rect x="14.33" y="7.78" class="st12" width="66.14" height="38.31"/>
</g>
<g>
	<defs>
		<path id="SVGID_34_" d="M47.8,27.09c-3.4,3-6.82,5.99-10.21,9c-0.44,0.39-0.74,0.54-1.39,0.24c-1.1-0.51-2.35-0.52-3.53-0.23
			c-2.42,0.6-4.81,1.27-7.21,1.93c-0.47,0.13-0.64,0.07-0.79-0.33c-1.43-3.66-5.66-5.79-10.36-5.24C9.76,33,6.46,36.11,6.45,39.89
			c-0.01,2.45,0,4.9,0,7.35c0,2.71-0.01,5.43,0,8.14c0,0.75,0.53,1.18,1.35,1.18c0.81-0.01,1.34-0.46,1.38-1.17
			c0.01-0.19,0-0.38,0-0.58c0-5.06-0.03-10.13,0.02-15.2c0.02-2.49,2.46-4.63,5.52-4.98c3.29-0.37,6.29,1.08,7.28,3.49
			c0.22,0.55,0.19,0.84-0.64,1.01c-1.05,0.21-1.46,0.94-1.02,1.59c0.36,0.54,1,0.68,1.98,0.42c3.65-0.95,7.29-1.92,10.94-2.86
			c1.38-0.35,2.49,0.04,2.88,0.98c0.39,0.94-0.23,1.77-1.62,2.13c-3.82,1-7.65,1.98-11.46,3c-1.11,0.3-1.97,0.13-2.81-0.51
			c-1.47-1.11-2.98-2.19-4.49-3.27c-0.73-0.52-1.53-0.54-2.09-0.08c-0.57,0.47-0.5,1.13,0.21,1.65c1.62,1.19,3.25,2.38,4.9,3.55
			c1.38,0.97,2.99,1.25,4.74,0.8c4.06-1.03,8.11-2.09,12.16-3.16c2.42-0.64,3.72-2.47,3.17-4.44c-0.13-0.47,0.02-0.74,0.39-1.06
			c2.07-1.79,4.11-3.6,6.15-5.4c1.52-1.34,3.05-2.67,4.56-4.02c0.81-0.73,0.55-1.69-0.49-1.89c-0.13-0.03-0.25-0.04-0.36-0.04
			C48.58,26.52,48.18,26.76,47.8,27.09"/>
	</defs>
	<clipPath id="SVGID_35_">
		<use xlink:href="#SVGID_34_"  style="overflow:visible;"/>
	</clipPath>
	
		<radialGradient id="SVGID_36_" cx="-1010.7961" cy="6448.4668" r="1.0001" gradientTransform="matrix(18.8301 0 0 -18.8301 19061.7891 121466.5547)" gradientUnits="userSpaceOnUse">
		<stop  offset="0" style="stop-color:#FFFFFF"/>
		<stop  offset="0.0134" style="stop-color:#FFFFFF"/>
		<stop  offset="0.0453" style="stop-color:#FBFFBF"/>
		<stop  offset="0.1543" style="stop-color:#E2F0A3"/>
		<stop  offset="0.3203" style="stop-color:#C1DD80"/>
		<stop  offset="0.4883" style="stop-color:#A8CE64"/>
		<stop  offset="0.6571" style="stop-color:#95C351"/>
		<stop  offset="0.8271" style="stop-color:#8BBD45"/>
		<stop  offset="1" style="stop-color:#87BB41"/>
		<stop  offset="1" style="stop-color:#87BB41"/>
	</radialGradient>
	<rect x="6.44" y="26.52" class="st13" width="44.32" height="30.03"/>
</g>
<g>
	<defs>
		<path id="SVGID_37_" d="M9.42,24.65c-0.01-2.74,2.84-5,6.31-5c3.46-0.01,6.3,2.25,6.32,4.99c0.01,2.74-2.84,5-6.31,5
			C12.26,29.63,9.43,27.39,9.42,24.65 M6.68,24.67c0.01,3.92,4.09,7.14,9.05,7.13c5.01-0.01,9.11-3.25,9.07-7.19
			c-0.04-3.94-4.09-7.14-9.05-7.14C10.73,17.48,6.67,20.71,6.68,24.67"/>
	</defs>
	<clipPath id="SVGID_38_">
		<use xlink:href="#SVGID_37_"  style="overflow:visible;"/>
	</clipPath>
	
		<radialGradient id="SVGID_39_" cx="-1027.7019" cy="6165.2329" r="0.9991" gradientTransform="matrix(8.1653 0 0 -8.1653 8407.2168 50365.4609)" gradientUnits="userSpaceOnUse">
		<stop  offset="0" style="stop-color:#FFFFFF"/>
		<stop  offset="0.0134" style="stop-color:#FFFFFF"/>
		<stop  offset="0.0453" style="stop-color:#FBFFBF"/>
		<stop  offset="0.1543" style="stop-color:#E2F0A3"/>
		<stop  offset="0.3203" style="stop-color:#C1DD80"/>
		<stop  offset="0.4883" style="stop-color:#A8CE64"/>
		<stop  offset="0.6571" style="stop-color:#95C351"/>
		<stop  offset="0.8271" style="stop-color:#8BBD45"/>
		<stop  offset="1" style="stop-color:#87BB41"/>
		<stop  offset="1" style="stop-color:#87BB41"/>
	</radialGradient>
	<rect x="6.67" y="17.48" class="st14" width="18.16" height="14.33"/>
</g>
<g>
	<defs>
		<path id="SVGID_40_" d="M18.65,66.56c-3.47-0.03-6.26-2.29-6.23-5.05c0.03-2.75,2.91-4.99,6.36-4.95c3.47,0.04,6.27,2.3,6.24,5.05
			c-0.03,2.72-2.88,4.95-6.3,4.95C18.7,66.56,18.67,66.56,18.65,66.56 M9.68,61.53c-0.02,3.95,4,7.17,8.96,7.2
			c5,0.03,9.1-3.19,9.12-7.15c0.01-3.96-4.05-7.2-9.06-7.2C13.74,54.39,9.7,57.59,9.68,61.53"/>
	</defs>
	<clipPath id="SVGID_41_">
		<use xlink:href="#SVGID_40_"  style="overflow:visible;"/>
	</clipPath>
	
		<radialGradient id="SVGID_42_" cx="-1027.7279" cy="6164.8296" r="1.0017" gradientTransform="matrix(8.1587 0 0 -8.1587 8403.665 50358.6953)" gradientUnits="userSpaceOnUse">
		<stop  offset="0" style="stop-color:#FFFFFF"/>
		<stop  offset="0.0134" style="stop-color:#FFFFFF"/>
		<stop  offset="0.0453" style="stop-color:#FBFFBF"/>
		<stop  offset="0.1543" style="stop-color:#E2F0A3"/>
		<stop  offset="0.3203" style="stop-color:#C1DD80"/>
		<stop  offset="0.4883" style="stop-color:#A8CE64"/>
		<stop  offset="0.6571" style="stop-color:#95C351"/>
		<stop  offset="0.8271" style="stop-color:#8BBD45"/>
		<stop  offset="1" style="stop-color:#87BB41"/>
		<stop  offset="1" style="stop-color:#87BB41"/>
	</radialGradient>
	<rect x="9.67" y="54.38" class="st15" width="18.1" height="14.37"/>
</g>
<g>
	<defs>
		<path id="SVGID_43_" d="M41.05,61.56c0-2.74,2.83-4.99,6.3-5.01c3.45-0.01,6.3,2.24,6.3,5c0,2.76-2.82,5-6.29,5c0,0,0,0-0.01,0
			C43.9,66.56,41.05,64.3,41.05,61.56 M38.32,61.56c0.01,3.94,4.05,7.15,9.01,7.17c4.99,0.02,9.07-3.21,9.07-7.18
			c0-3.94-4.03-7.15-9-7.17c-0.02,0-0.04,0-0.05,0C42.39,54.38,38.31,57.63,38.32,61.56"/>
	</defs>
	<clipPath id="SVGID_44_">
		<use xlink:href="#SVGID_43_"  style="overflow:visible;"/>
	</clipPath>
	
		<radialGradient id="SVGID_45_" cx="-1027.7241" cy="6164.8945" r="1.0009" gradientTransform="matrix(8.1598 0 0 -8.1598 8433.3535 50365.7305)" gradientUnits="userSpaceOnUse">
		<stop  offset="0" style="stop-color:#FFFFFF"/>
		<stop  offset="0.0134" style="stop-color:#FFFFFF"/>
		<stop  offset="0.0453" style="stop-color:#FBFFBF"/>
		<stop  offset="0.1543" style="stop-color:#E2F0A3"/>
		<stop  offset="0.3203" style="stop-color:#C1DD80"/>
		<stop  offset="0.4883" style="stop-color:#A8CE64"/>
		<stop  offset="0.6571" style="stop-color:#95C351"/>
		<stop  offset="0.8271" style="stop-color:#8BBD45"/>
		<stop  offset="1" style="stop-color:#87BB41"/>
		<stop  offset="1" style="stop-color:#87BB41"/>
	</radialGradient>
	<rect x="38.31" y="54.38" class="st16" width="18.09" height="14.37"/>
</g>
<g>
	<defs>
		<path id="SVGID_46_" d="M69.79,61.58c-0.01-2.74,2.8-5,6.27-5.03c3.46-0.02,6.31,2.22,6.33,4.97c0.02,2.76-2.79,5.02-6.26,5.03
			c-0.01,0-0.03,0-0.04,0C72.65,66.56,69.8,64.31,69.79,61.58 M67.05,61.57c-0.03,3.91,4.04,7.14,9.01,7.17
			c4.95,0.02,9.03-3.17,9.07-7.11c0.04-3.94-3.98-7.21-8.91-7.23c-0.02,0-0.04,0-0.06,0C71.12,54.39,67.08,57.56,67.05,61.57"/>
	</defs>
	<clipPath id="SVGID_47_">
		<use xlink:href="#SVGID_46_"  style="overflow:visible;"/>
	</clipPath>
	
		<radialGradient id="SVGID_48_" cx="-1027.7257" cy="6164.8491" r="1.0002" gradientTransform="matrix(8.159 0 0 -8.159 8461.3457 50360.7773)" gradientUnits="userSpaceOnUse">
		<stop  offset="0" style="stop-color:#FFFFFF"/>
		<stop  offset="0.0134" style="stop-color:#FFFFFF"/>
		<stop  offset="0.0453" style="stop-color:#FBFFBF"/>
		<stop  offset="0.1543" style="stop-color:#E2F0A3"/>
		<stop  offset="0.3203" style="stop-color:#C1DD80"/>
		<stop  offset="0.4883" style="stop-color:#A8CE64"/>
		<stop  offset="0.6571" style="stop-color:#95C351"/>
		<stop  offset="0.8271" style="stop-color:#8BBD45"/>
		<stop  offset="1" style="stop-color:#87BB41"/>
		<stop  offset="1" style="stop-color:#87BB41"/>
	</radialGradient>
	<rect x="67.02" y="54.39" class="st17" width="18.15" height="14.37"/>
</g>
<g>
	<defs>
		<path id="SVGID_49_" d="M76.13,70.05L76.13,70.05c-2.82,0-5.64-0.01-8.45,0.01c-2.59,0.02-4.75,1.69-4.8,3.67
			c-0.02,0.74,0.45,1.21,1.26,1.25c0.81,0.04,1.34-0.35,1.47-1.09c0.19-1.12,0.94-1.66,2.36-1.67c5.4-0.01,10.79-0.01,16.18-0.01
			c1.5,0,2.19,0.5,2.42,1.69c0.14,0.73,0.69,1.12,1.5,1.07c0.81-0.05,1.27-0.52,1.24-1.27c-0.08-2-2.22-3.64-4.81-3.65
			c-1.11,0-2.23-0.01-3.34-0.01C79.48,70.04,77.8,70.05,76.13,70.05"/>
	</defs>
	<clipPath id="SVGID_50_">
		<use xlink:href="#SVGID_49_"  style="overflow:visible;"/>
	</clipPath>
	
		<radialGradient id="SVGID_51_" cx="-1023.4938" cy="6235.748" r="0.9996" gradientTransform="matrix(9.5056 0 0 -9.5056 9805.0479 59347.2031)" gradientUnits="userSpaceOnUse">
		<stop  offset="0" style="stop-color:#FFFFFF"/>
		<stop  offset="0.0134" style="stop-color:#FFFFFF"/>
		<stop  offset="0.0453" style="stop-color:#FBFFBF"/>
		<stop  offset="0.1543" style="stop-color:#E2F0A3"/>
		<stop  offset="0.3203" style="stop-color:#C1DD80"/>
		<stop  offset="0.4883" style="stop-color:#A8CE64"/>
		<stop  offset="0.6571" style="stop-color:#95C351"/>
		<stop  offset="0.8271" style="stop-color:#8BBD45"/>
		<stop  offset="1" style="stop-color:#87BB41"/>
		<stop  offset="1" style="stop-color:#87BB41"/>
	</radialGradient>
	<rect x="62.86" y="70.03" class="st18" width="26.48" height="4.99"/>
</g>
<g>
	<defs>
		<path id="SVGID_52_" d="M38.95,70.05c-2.59,0.02-4.75,1.67-4.82,3.66c-0.02,0.73,0.45,1.21,1.25,1.26
			c0.81,0.05,1.36-0.34,1.48-1.08c0.19-1.16,0.94-1.68,2.44-1.68c5.36,0,10.73,0,16.09,0c1.51,0,2.2,0.49,2.43,1.68
			c0.16,0.76,0.74,1.16,1.58,1.07c0.78-0.08,1.2-0.56,1.15-1.32c-0.13-1.98-2.23-3.57-4.79-3.59c-2.82-0.02-5.64,0-8.45,0
			c-1.74,0-3.49-0.01-5.23-0.01C41.04,70.04,40,70.05,38.95,70.05"/>
	</defs>
	<clipPath id="SVGID_53_">
		<use xlink:href="#SVGID_52_"  style="overflow:visible;"/>
	</clipPath>
	
		<radialGradient id="SVGID_54_" cx="-1023.4911" cy="6235.7813" r="0.9991" gradientTransform="matrix(9.5064 0 0 -9.5064 9777.0352 59352.0742)" gradientUnits="userSpaceOnUse">
		<stop  offset="0" style="stop-color:#FFFFFF"/>
		<stop  offset="0.0134" style="stop-color:#FFFFFF"/>
		<stop  offset="0.0453" style="stop-color:#FBFFBF"/>
		<stop  offset="0.1543" style="stop-color:#E2F0A3"/>
		<stop  offset="0.3203" style="stop-color:#C1DD80"/>
		<stop  offset="0.4883" style="stop-color:#A8CE64"/>
		<stop  offset="0.6571" style="stop-color:#95C351"/>
		<stop  offset="0.8271" style="stop-color:#8BBD45"/>
		<stop  offset="1" style="stop-color:#87BB41"/>
		<stop  offset="1" style="stop-color:#87BB41"/>
	</radialGradient>
	<rect x="34.11" y="70.04" class="st19" width="26.5" height="5.01"/>
</g>
<g>
	<defs>
		<path id="SVGID_55_" d="M10.22,70.06c-2.57,0.02-4.71,1.74-4.72,3.72c0,0.69,0.47,1.14,1.24,1.19c0.78,0.05,1.34-0.33,1.49-1
			c0.3-1.35,0.9-1.75,2.61-1.75c5.27,0,10.54,0,15.82,0c1.63,0,2.31,0.47,2.54,1.75c0.13,0.72,0.81,1.15,1.65,0.99
			c0.75-0.14,1.08-0.56,1.08-1.16c0.01-1.99-2.18-3.71-4.81-3.73c-2.79-0.02-5.58,0-8.36,0c-1.71,0-3.42-0.01-5.13-0.01
			C12.5,70.04,11.36,70.05,10.22,70.06"/>
	</defs>
	<clipPath id="SVGID_56_">
		<use xlink:href="#SVGID_55_"  style="overflow:visible;"/>
	</clipPath>
	
		<radialGradient id="SVGID_57_" cx="-1023.4863" cy="6235.8779" r="1.0006" gradientTransform="matrix(9.5085 0 0 -9.5085 9750.542 59366.3398)" gradientUnits="userSpaceOnUse">
		<stop  offset="0" style="stop-color:#FFFFFF"/>
		<stop  offset="0.0134" style="stop-color:#FFFFFF"/>
		<stop  offset="0.0453" style="stop-color:#FBFFBF"/>
		<stop  offset="0.1543" style="stop-color:#E2F0A3"/>
		<stop  offset="0.3203" style="stop-color:#C1DD80"/>
		<stop  offset="0.4883" style="stop-color:#A8CE64"/>
		<stop  offset="0.6571" style="stop-color:#95C351"/>
		<stop  offset="0.8271" style="stop-color:#8BBD45"/>
		<stop  offset="1" style="stop-color:#87BB41"/>
		<stop  offset="1" style="stop-color:#87BB41"/>
	</radialGradient>
	<rect x="5.5" y="70.03" class="st20" width="26.45" height="5.07"/>
</g>
<g>
	<defs>
		<path id="SVGID_58_" d="M22.3,49.25c-0.03,0.38-0.01,0.76-0.01,1.15c0,0.41-0.02,0.82,0,1.23c0.04,0.64,0.65,1.11,1.39,1.1
			c0.71-0.01,1.31-0.46,1.33-1.07c0.04-0.82,0.04-1.63,0-2.45c-0.03-0.62-0.61-1.04-1.33-1.05c-0.01,0-0.02,0-0.03,0
			C22.91,48.16,22.35,48.59,22.3,49.25"/>
	</defs>
	<clipPath id="SVGID_59_">
		<use xlink:href="#SVGID_58_"  style="overflow:visible;"/>
	</clipPath>
	
		<radialGradient id="SVGID_60_" cx="-1127.0903" cy="4500.3301" r="1" gradientTransform="matrix(1.8861 0 0 -1.8861 2149.4458 8538.416)" gradientUnits="userSpaceOnUse">
		<stop  offset="0" style="stop-color:#FFFFFF"/>
		<stop  offset="0.0134" style="stop-color:#FFFFFF"/>
		<stop  offset="0.0453" style="stop-color:#FBFFBF"/>
		<stop  offset="0.1543" style="stop-color:#E2F0A3"/>
		<stop  offset="0.3203" style="stop-color:#C1DD80"/>
		<stop  offset="0.4883" style="stop-color:#A8CE64"/>
		<stop  offset="0.6571" style="stop-color:#95C351"/>
		<stop  offset="0.8271" style="stop-color:#8BBD45"/>
		<stop  offset="1" style="stop-color:#87BB41"/>
		<stop  offset="1" style="stop-color:#87BB41"/>
	</radialGradient>
	<rect x="22.27" y="48.16" class="st21" width="2.78" height="4.58"/>
</g>
</svg>
