<?xml version="1.0" encoding="utf-8"?>
<!-- Generator: Adobe Illustrator 23.0.5, SVG Export Plug-In . SVG Version: 6.00 Build 0)  -->
<svg version="1.1" id="Layer_1" xmlns="http://www.w3.org/2000/svg" xmlns:xlink="http://www.w3.org/1999/xlink" x="0px" y="0px"
	 viewBox="0 0 90.38 87.98" style="enable-background:new 0 0 90.38 87.98;" xml:space="preserve">
<style type="text/css">
	.st0{clip-path:url(#SVGID_2_);fill:url(#SVGID_3_);}
	.st1{clip-path:url(#SVGID_5_);fill:none;stroke:#8DC63F;stroke-miterlimit:10;}
	.st2{clip-path:url(#SVGID_7_);fill:url(#SVGID_8_);}
	.st3{clip-path:url(#SVGID_10_);fill:none;stroke:#8DC63F;stroke-miterlimit:10;}
	.st4{clip-path:url(#SVGID_12_);fill:url(#SVGID_13_);}
	.st5{clip-path:url(#SVGID_15_);fill:none;stroke:#8DC63F;stroke-miterlimit:10;}
	.st6{clip-path:url(#SVGID_17_);fill:url(#SVGID_18_);}
	.st7{clip-path:url(#SVGID_20_);fill:none;stroke:#8DC63F;stroke-miterlimit:10;}
	.st8{clip-path:url(#SVGID_22_);fill:url(#SVGID_23_);}
	.st9{clip-path:url(#SVGID_25_);fill:none;stroke:#8DC63F;stroke-miterlimit:10;}
	.st10{clip-path:url(#SVGID_27_);fill:url(#SVGID_28_);}
	.st11{clip-path:url(#SVGID_30_);fill:none;stroke:#8DC63F;stroke-miterlimit:10;}
	.st12{clip-path:url(#SVGID_32_);fill:url(#SVGID_33_);}
	.st13{fill:none;stroke:#8DC63F;stroke-miterlimit:10;}
	.st14{clip-path:url(#SVGID_35_);fill:url(#SVGID_36_);}
	.st15{fill:#8DC63F;}
	.st16{font-family:'Poppins-Medium';}
	.st17{font-size:16.729px;}
	.st18{letter-spacing:1;}
</style>
<g>
	<defs>
		<path id="SVGID_1_" d="M119.37-4049.45c0.73,0,0.84,0.22,0.84,0.88c-0.02,11.59-0.01,23.18-0.01,34.77c0,0.23,0,0.46,0,0.69
			c0,0.62-0.25,0.87-0.93,0.86c-24.41-0.02-48.82-0.01-73.22-0.01c-0.98,0-1.17-0.19-1.18-1.23c-0.01-2.57,0-5.14,0-7.71
			c0-9.15,0.01-18.29-0.01-27.44c0-0.7,0.2-0.81,0.84-0.81c12.28,0.02,24.56,0.01,36.84,0.01c4.47,0,8.93,0,13.4,0
			C103.74-4049.43,111.56-4049.43,119.37-4049.45 M44.86-4051.44c0.08-0.63-0.26-1.45,0.13-1.83c0.27-0.27,0.76-0.22,1.24-0.16
			c0.21,0.03,0.41,0.05,0.6,0.05c11.9-0.01,23.8,0,35.7,0c12.28,0,24.56,0.01,36.84-0.02c0.7,0,0.93,0.19,0.84,0.87
			c-0.08,0.6,0.25,1.39-0.13,1.77c-0.38,0.38-1.16,0.12-1.76,0.12c-24.23,0-48.47,0-72.7,0.02
			C44.97-4050.63,44.79-4050.82,44.86-4051.44 M55.39-4059.98c1.73-0.02,3-1.38,3.02-3.25c0.01-1.02,0.02-2.04,0-3.06
			c-0.01-0.39,0.1-0.56,0.51-0.51c0.27,0.03,0.56,0.01,0.83,0.01c15.31,0,30.61,0,45.91-0.01c0.68,0,0.95,0.14,0.88,0.86
			c-0.07,0.73-0.04,1.48,0,2.21c0.09,1.65,1.36,2.86,2.97,2.89c1.61,0.03,2.92-1.15,3.05-2.79c0.07-0.86,0.04-1.73,0.03-2.6
			c-0.01-0.42,0.1-0.57,0.55-0.57c2.16,0.02,4.32,0.02,6.47,0c0.49-0.01,0.59,0.2,0.59,0.63c-0.01,3.67-0.02,7.34,0.01,11.01
			c0.01,0.61-0.31,0.55-0.7,0.55c-6.55,0-13.1,0-19.64,0H82.51c-12.18,0-24.36,0-36.55,0c-1.09,0-1.09,0-1.09-1.14
			c0-3.39,0.02-6.78-0.01-10.17c-0.01-0.66,0.16-0.9,0.84-0.89c2.03,0.03,4.06,0.02,6.09,0c0.44-0.01,0.56,0.13,0.55,0.56
			c-0.03,1.02-0.02,2.04,0,3.06c0.03,1.86,1.32,3.21,3.02,3.21C55.37-4059.98,55.38-4059.98,55.39-4059.98 M53.57-4063.17
			c-0.01-1.4,0-2.8,0-4.19c0-1.37-0.01-2.74,0-4.12c0.01-1.16,0.74-1.93,1.79-1.95c1.04-0.01,1.81,0.76,1.82,1.92
			c0.02,2.8,0.02,5.59,0,8.39c-0.01,1.1-0.77,1.91-1.76,1.92c-0.01,0-0.02,0-0.03,0C54.34-4061.21,53.58-4062.01,53.57-4063.17
			 M107.76-4064.01c-0.02-1.42-0.01-2.84-0.01-4.27c0-1.35-0.01-2.69,0.01-4.04c0.01-1.15,0.75-1.96,1.77-1.98
			c1.06-0.03,1.84,0.78,1.84,1.98c0.01,2.77,0.01,5.54,0,8.31c-0.01,1.17-0.74,1.93-1.8,1.93
			C108.52-4062.08,107.78-4062.85,107.76-4064.01 M109.52-4075.53c-1.67,0.02-2.95,1.35-2.98,3.12c-0.02,1.09-0.01,2.19-0.01,3.29
			s0,1.1-1.06,1.1c-11.26,0-22.53,0-33.8,0c-4.19,0-8.37-0.01-12.56,0.01c-0.55,0-0.73-0.11-0.72-0.7c0.03-1.12,0.12-2.25-0.05-3.36
			c-0.25-1.64-1.58-2.68-3.23-2.57c-1.52,0.1-2.7,1.33-2.77,2.92c-0.03,0.81-0.02,1.63-0.01,2.44c0,1.25,0,1.25-1.21,1.25
			c-1.85,0-3.7-0.01-5.56,0c-1.43,0.02-1.91,0.53-1.91,1.94c0,17.53,0,35.05,0,52.58c0,1.78,0.71,2.48,2.49,2.48h36.46h35.02
			c0.71,0,1.42,0,2.13,0c0.72-0.01,1.18-0.38,1.45-1.02c0.19-0.46,0.21-0.94,0.21-1.43c0-17.55,0-35.1-0.01-52.65
			c0-1.5-0.4-1.9-1.9-1.9c-2.11,0-4.21-0.01-6.32,0.01c-0.46,0.01-0.61-0.1-0.6-0.59c0.04-1.27,0.03-2.54,0.01-3.82
			c-0.03-1.78-1.35-3.11-3.03-3.11C109.55-4075.53,109.54-4075.53,109.52-4075.53"/>
	</defs>
	<clipPath id="SVGID_2_">
		<use xlink:href="#SVGID_1_"  style="overflow:visible;"/>
	</clipPath>
	
		<radialGradient id="SVGID_3_" cx="-995.9937" cy="6665.356" r="1" gradientTransform="matrix(35.7219 0 0 -35.7219 35661.3203 234055.9063)" gradientUnits="userSpaceOnUse">
		<stop  offset="0" style="stop-color:#FFFFFF"/>
		<stop  offset="0.0134" style="stop-color:#FFFFFF"/>
		<stop  offset="0.0453" style="stop-color:#FBFFBF"/>
		<stop  offset="0.1543" style="stop-color:#E2F0A3"/>
		<stop  offset="0.3203" style="stop-color:#C1DD80"/>
		<stop  offset="0.4883" style="stop-color:#A8CE64"/>
		<stop  offset="0.6571" style="stop-color:#95C351"/>
		<stop  offset="0.8271" style="stop-color:#8BBD45"/>
		<stop  offset="1" style="stop-color:#87BB41"/>
		<stop  offset="1" style="stop-color:#87BB41"/>
	</radialGradient>
	<rect x="43.65" y="-4075.53" class="st0" width="77.76" height="64.51"/>
</g>
<g>
	<defs>
		<rect id="SVGID_4_" x="-931.5" y="-6536" width="2002.66" height="13200"/>
	</defs>
	<clipPath id="SVGID_5_">
		<use xlink:href="#SVGID_4_"  style="overflow:visible;"/>
	</clipPath>
	<path class="st1" d="M82.61-4011.02H46.14c-1.78,0-2.49-0.7-2.49-2.48c0-17.53,0-35.05,0-52.58c0-1.42,0.49-1.93,1.92-1.94
		c1.85-0.02,3.7,0,5.56,0c1.21,0,1.21,0,1.21-1.25c0-0.81-0.02-1.63,0.01-2.44c0.07-1.59,1.25-2.83,2.77-2.92
		c1.65-0.11,2.98,0.93,3.23,2.57c0.17,1.11,0.08,2.24,0.05,3.36c-0.02,0.59,0.17,0.71,0.72,0.7c4.19-0.02,8.37-0.01,12.56-0.01
		c11.27,0,22.53,0,33.8,0c1.06,0,1.06,0,1.06-1.1c0-1.09-0.01-2.19,0.01-3.29c0.03-1.77,1.31-3.1,2.98-3.12
		c1.7-0.02,3.04,1.31,3.07,3.11c0.02,1.27,0.03,2.55-0.01,3.82c-0.01,0.48,0.14,0.59,0.6,0.59c2.11-0.02,4.21-0.01,6.32-0.01
		c1.5,0,1.9,0.39,1.9,1.9c0,17.55,0,35.1,0.01,52.66c0,0.48-0.02,0.97-0.21,1.43c-0.27,0.65-0.74,1.02-1.45,1.03
		c-0.71,0-1.42,0-2.13,0H82.61z M82.53-4049.43c-12.28,0-24.56,0-36.84-0.01c-0.64,0-0.84,0.11-0.84,0.81
		c0.03,9.14,0.02,18.29,0.02,27.43c0,2.57,0,5.15,0,7.72c0,1.03,0.2,1.22,1.18,1.22c24.41,0,48.82,0,73.23,0.01
		c0.68,0,0.93-0.24,0.93-0.86c0-0.23,0-0.46,0-0.69c0-11.59-0.01-23.18,0.01-34.77c0-0.66-0.12-0.89-0.84-0.89
		C107.09-4049.42,94.81-4049.43,82.53-4049.43z M82.51-4054.61h17.36c6.55,0,13.09,0,19.64,0c0.39,0,0.71,0.06,0.7-0.55
		c-0.03-3.67-0.02-7.34-0.01-11.01c0-0.44-0.09-0.64-0.59-0.63c-2.16,0.02-4.31,0.02-6.47,0c-0.45,0-0.56,0.15-0.55,0.57
		c0.02,0.87,0.04,1.74-0.03,2.6c-0.13,1.65-1.45,2.82-3.05,2.79c-1.61-0.03-2.88-1.24-2.97-2.88c-0.04-0.74-0.07-1.48,0-2.22
		c0.07-0.73-0.21-0.86-0.88-0.86c-15.3,0.02-30.61,0.01-45.91,0.01c-0.28,0-0.56,0.03-0.84,0c-0.41-0.05-0.52,0.12-0.51,0.51
		c0.02,1.02,0.01,2.04,0,3.06c-0.02,1.87-1.29,3.24-3.02,3.25c-1.72,0.01-3.02-1.34-3.05-3.21c-0.02-1.02-0.02-2.04,0-3.06
		c0.01-0.43-0.11-0.56-0.55-0.56c-2.03,0.02-4.06,0.03-6.09,0c-0.68-0.01-0.84,0.23-0.84,0.89c0.03,3.39,0.01,6.78,0.01,10.17
		c0,1.14,0,1.14,1.1,1.14C58.15-4054.61,70.33-4054.61,82.51-4054.61z M82.52-4053.39c-11.9,0-23.8,0-35.7,0
		c-0.63,0-1.44-0.28-1.83,0.11c-0.39,0.39-0.05,1.21-0.13,1.83c-0.07,0.62,0.11,0.81,0.77,0.81c24.23-0.02,48.47-0.01,72.7-0.02
		c0.6,0,1.38,0.26,1.76-0.12s0.05-1.17,0.13-1.77c0.09-0.68-0.14-0.87-0.84-0.87C107.08-4053.38,94.8-4053.39,82.52-4053.39z
		 M53.57-4067.37c0,1.4-0.01,2.8,0,4.19c0.01,1.17,0.79,1.98,1.86,1.97c0.98-0.01,1.75-0.82,1.75-1.92c0.01-2.8,0.02-5.59,0-8.39
		c-0.01-1.16-0.77-1.94-1.82-1.92c-1.05,0.01-1.78,0.79-1.79,1.95C53.56-4070.11,53.57-4068.74,53.57-4067.37z M107.76-4068.28
		c0,1.42-0.02,2.85,0,4.27c0.02,1.16,0.76,1.93,1.81,1.92c1.06,0,1.8-0.76,1.8-1.93c0.02-2.77,0.02-5.54,0-8.31
		c-0.01-1.19-0.79-2-1.85-1.98c-1.02,0.02-1.75,0.83-1.77,1.98C107.75-4070.97,107.76-4069.63,107.76-4068.28z"/>
</g>
<g>
	<defs>
		<path id="SVGID_6_" d="M99.61-4060.13c-0.2,0.01-0.41,0-0.61,0H82.48H65.81c-0.2,0-0.4,0.01-0.61,0
			c-0.39-0.01-0.57,0.25-0.58,0.57c-0.02,0.33,0.19,0.58,0.55,0.61c0.2,0.02,0.4,0.01,0.61,0.01c10.98,0,21.97,0,32.96,0
			c0.28,0,0.56-0.02,0.83,0c0.42,0.02,0.72-0.16,0.74-0.59c0.02-0.42-0.26-0.61-0.66-0.61
			C99.64-4060.13,99.62-4060.13,99.61-4060.13"/>
	</defs>
	<clipPath id="SVGID_7_">
		<use xlink:href="#SVGID_6_"  style="overflow:visible;"/>
	</clipPath>
	
		<radialGradient id="SVGID_8_" cx="-992.5959" cy="6665.4238" r="1.0009" gradientTransform="matrix(12.6257 0 0 -12.6257 12614.7236 80096.3906)" gradientUnits="userSpaceOnUse">
		<stop  offset="0" style="stop-color:#FFFFFF"/>
		<stop  offset="0.0134" style="stop-color:#FFFFFF"/>
		<stop  offset="0.0453" style="stop-color:#FBFFBF"/>
		<stop  offset="0.1543" style="stop-color:#E2F0A3"/>
		<stop  offset="0.3203" style="stop-color:#C1DD80"/>
		<stop  offset="0.4883" style="stop-color:#A8CE64"/>
		<stop  offset="0.6571" style="stop-color:#95C351"/>
		<stop  offset="0.8271" style="stop-color:#8BBD45"/>
		<stop  offset="1" style="stop-color:#87BB41"/>
		<stop  offset="1" style="stop-color:#87BB41"/>
	</radialGradient>
	<rect x="64.6" y="-4060.14" class="st2" width="35.72" height="1.22"/>
</g>
<g>
	<defs>
		<rect id="SVGID_9_" x="-931.5" y="-6536" width="2002.66" height="13200"/>
	</defs>
	<clipPath id="SVGID_10_">
		<use xlink:href="#SVGID_9_"  style="overflow:visible;"/>
	</clipPath>
	<path class="st3" d="M82.48-4060.13H99c0.2,0,0.41,0.01,0.61,0c0.42-0.01,0.72,0.17,0.7,0.61c-0.02,0.43-0.31,0.61-0.73,0.59
		c-0.28-0.01-0.56,0-0.84,0c-10.99,0-21.97,0-32.96,0c-0.2,0-0.41,0.01-0.61-0.01c-0.36-0.04-0.57-0.28-0.55-0.62
		c0.01-0.32,0.2-0.58,0.59-0.57c0.2,0,0.41,0,0.61,0H82.48z"/>
</g>
<text transform="matrix(1 0 0 1.004 55.7403 -4024.2588)"><tspan x="0" y="0" class="st15 st16 st17 st18">Y</tspan><tspan x="11.14" y="0" class="st15 st16 st17 st18">E</tspan><tspan x="20.91" y="0" class="st15 st16 st17 st18">AR</tspan><tspan x="45.18" y="0" class="st15 st16 st17">S</tspan></text>
<g>
	<defs>
		<path id="SVGID_11_" d="M79.37-4051.45c0.73,0,0.84,0.22,0.84,0.88c-0.02,11.59-0.01,23.18-0.01,34.77c0,0.23,0,0.46,0,0.69
			c0,0.62-0.25,0.87-0.93,0.86c-24.41-0.02-48.82-0.01-73.22-0.01c-0.98,0-1.17-0.19-1.18-1.23c-0.01-2.57,0-5.14,0-7.71
			c0-9.15,0.01-18.29-0.01-27.44c0-0.7,0.2-0.81,0.84-0.81c12.28,0.02,24.56,0.01,36.84,0.01c4.47,0,8.93,0,13.4,0
			C63.74-4051.43,71.56-4051.43,79.37-4051.45 M4.86-4053.44c0.08-0.63-0.26-1.45,0.13-1.83c0.27-0.27,0.76-0.22,1.24-0.16
			c0.21,0.03,0.41,0.05,0.6,0.05c11.9-0.01,23.8,0,35.7,0c12.28,0,24.56,0.01,36.84-0.02c0.7,0,0.93,0.19,0.84,0.87
			c-0.08,0.6,0.25,1.39-0.13,1.77c-0.38,0.38-1.16,0.12-1.76,0.12c-24.23,0-48.47,0-72.7,0.02
			C4.97-4052.63,4.79-4052.82,4.86-4053.44 M15.39-4061.98c1.73-0.02,3-1.38,3.02-3.25c0.01-1.02,0.02-2.04,0-3.06
			c-0.01-0.39,0.1-0.56,0.51-0.51c0.27,0.03,0.56,0.01,0.83,0.01c15.31,0,30.61,0,45.91-0.01c0.68,0,0.95,0.14,0.88,0.86
			c-0.07,0.73-0.04,1.48,0,2.21c0.09,1.65,1.36,2.86,2.97,2.89c1.61,0.03,2.92-1.15,3.05-2.79c0.07-0.86,0.04-1.73,0.03-2.6
			c-0.01-0.42,0.1-0.57,0.55-0.57c2.16,0.02,4.32,0.02,6.47,0c0.49-0.01,0.59,0.2,0.59,0.63c-0.01,3.67-0.02,7.34,0.01,11.01
			c0.01,0.61-0.31,0.55-0.7,0.55c-6.55,0-13.1,0-19.64,0H42.51c-12.18,0-24.36,0-36.55,0c-1.09,0-1.09,0-1.09-1.14
			c0-3.39,0.02-6.78-0.01-10.17c-0.01-0.66,0.16-0.9,0.84-0.89c2.03,0.03,4.06,0.02,6.09,0c0.44-0.01,0.56,0.13,0.55,0.56
			c-0.03,1.02-0.02,2.04,0,3.06c0.03,1.86,1.32,3.21,3.02,3.21C15.37-4061.98,15.38-4061.98,15.39-4061.98 M13.57-4065.17
			c-0.01-1.4,0-2.8,0-4.19c0-1.37-0.01-2.74,0-4.12c0.01-1.16,0.74-1.93,1.79-1.95c1.04-0.01,1.81,0.76,1.82,1.92
			c0.02,2.8,0.02,5.59,0,8.39c-0.01,1.1-0.77,1.91-1.76,1.92c-0.01,0-0.02,0-0.03,0C14.34-4063.21,13.58-4064.01,13.57-4065.17
			 M67.76-4066.01c-0.02-1.42-0.01-2.84-0.01-4.27c0-1.35-0.01-2.69,0.01-4.04c0.01-1.15,0.75-1.96,1.77-1.98
			c1.06-0.03,1.84,0.78,1.84,1.98c0.01,2.77,0.01,5.54,0,8.31c-0.01,1.17-0.74,1.93-1.8,1.93
			C68.52-4064.08,67.78-4064.85,67.76-4066.01 M69.52-4077.53c-1.67,0.02-2.95,1.35-2.98,3.12c-0.02,1.09-0.01,2.19-0.01,3.29
			s0,1.1-1.06,1.1c-11.26,0-22.53,0-33.8,0c-4.19,0-8.37-0.01-12.56,0.01c-0.55,0-0.73-0.11-0.72-0.7c0.03-1.12,0.12-2.25-0.05-3.36
			c-0.25-1.64-1.58-2.68-3.23-2.57c-1.52,0.1-2.7,1.33-2.77,2.92c-0.03,0.81-0.02,1.63-0.01,2.44c0,1.25,0,1.25-1.21,1.25
			c-1.85,0-3.7-0.01-5.56,0c-1.43,0.02-1.91,0.53-1.91,1.94c0,17.53,0,35.05,0,52.58c0,1.78,0.71,2.48,2.49,2.48h36.46h35.02
			c0.71,0,1.42,0,2.13,0c0.72-0.01,1.18-0.38,1.45-1.02c0.19-0.46,0.21-0.94,0.21-1.43c0-17.55,0-35.1-0.01-52.65
			c0-1.5-0.4-1.9-1.9-1.9c-2.11,0-4.21-0.01-6.32,0.01c-0.46,0.01-0.61-0.1-0.6-0.59c0.04-1.27,0.03-2.54,0.01-3.82
			c-0.03-1.78-1.35-3.11-3.03-3.11C69.55-4077.53,69.54-4077.53,69.52-4077.53"/>
	</defs>
	<clipPath id="SVGID_12_">
		<use xlink:href="#SVGID_11_"  style="overflow:visible;"/>
	</clipPath>
	
		<radialGradient id="SVGID_13_" cx="-997.1134" cy="6665.4121" r="1" gradientTransform="matrix(35.7219 0 0 -35.7219 35661.3203 234055.9063)" gradientUnits="userSpaceOnUse">
		<stop  offset="0" style="stop-color:#FFFFFF"/>
		<stop  offset="0.0134" style="stop-color:#FFFFFF"/>
		<stop  offset="0.0453" style="stop-color:#FBFFBF"/>
		<stop  offset="0.1543" style="stop-color:#E2F0A3"/>
		<stop  offset="0.3203" style="stop-color:#C1DD80"/>
		<stop  offset="0.4883" style="stop-color:#A8CE64"/>
		<stop  offset="0.6571" style="stop-color:#95C351"/>
		<stop  offset="0.8271" style="stop-color:#8BBD45"/>
		<stop  offset="1" style="stop-color:#87BB41"/>
		<stop  offset="1" style="stop-color:#87BB41"/>
	</radialGradient>
	<rect x="3.65" y="-4077.53" class="st4" width="77.76" height="64.51"/>
</g>
<g>
	<defs>
		<rect id="SVGID_14_" x="-971.5" y="-6538" width="2002.66" height="13200"/>
	</defs>
	<clipPath id="SVGID_15_">
		<use xlink:href="#SVGID_14_"  style="overflow:visible;"/>
	</clipPath>
	<path class="st5" d="M42.61-4013.02H6.14c-1.78,0-2.49-0.7-2.49-2.48c0-17.53,0-35.05,0-52.58c0-1.42,0.49-1.93,1.92-1.94
		c1.85-0.02,3.7,0,5.56,0c1.21,0,1.21,0,1.21-1.25c0-0.81-0.02-1.63,0.01-2.44c0.07-1.59,1.25-2.83,2.77-2.92
		c1.65-0.11,2.98,0.93,3.23,2.57c0.17,1.11,0.08,2.24,0.05,3.36c-0.02,0.59,0.17,0.71,0.72,0.7c4.19-0.02,8.37-0.01,12.56-0.01
		c11.27,0,22.53,0,33.8,0c1.06,0,1.06,0,1.06-1.1c0-1.09-0.01-2.19,0.01-3.29c0.03-1.77,1.31-3.1,2.98-3.12
		c1.7-0.02,3.04,1.31,3.07,3.11c0.02,1.27,0.03,2.55-0.01,3.82c-0.01,0.48,0.14,0.59,0.6,0.59c2.11-0.02,4.21-0.01,6.32-0.01
		c1.5,0,1.9,0.39,1.9,1.9c0,17.55,0,35.1,0.01,52.66c0,0.48-0.02,0.97-0.21,1.43c-0.27,0.65-0.74,1.02-1.45,1.03
		c-0.71,0-1.42,0-2.13,0H42.61z M42.53-4051.43c-12.28,0-24.56,0-36.84-0.01c-0.64,0-0.84,0.11-0.84,0.81
		c0.03,9.14,0.02,18.29,0.02,27.43c0,2.57,0,5.15,0,7.72c0,1.03,0.2,1.22,1.18,1.22c24.41,0,48.82,0,73.23,0.01
		c0.68,0,0.93-0.24,0.93-0.86c0-0.23,0-0.46,0-0.69c0-11.59-0.01-23.18,0.01-34.77c0-0.66-0.12-0.89-0.84-0.89
		C67.09-4051.42,54.81-4051.43,42.53-4051.43z M42.51-4056.61h17.36c6.55,0,13.09,0,19.64,0c0.39,0,0.71,0.06,0.7-0.55
		c-0.03-3.67-0.02-7.34-0.01-11.01c0-0.44-0.09-0.64-0.59-0.63c-2.16,0.02-4.31,0.02-6.47,0c-0.45,0-0.56,0.15-0.55,0.57
		c0.02,0.87,0.04,1.74-0.03,2.6c-0.13,1.65-1.45,2.82-3.05,2.79c-1.61-0.03-2.88-1.24-2.97-2.88c-0.04-0.74-0.07-1.48,0-2.22
		c0.07-0.73-0.21-0.86-0.88-0.86c-15.3,0.02-30.61,0.01-45.91,0.01c-0.28,0-0.56,0.03-0.84,0c-0.41-0.05-0.52,0.12-0.51,0.51
		c0.02,1.02,0.01,2.04,0,3.06c-0.02,1.87-1.29,3.24-3.02,3.25c-1.72,0.01-3.02-1.34-3.05-3.21c-0.02-1.02-0.02-2.04,0-3.06
		c0.01-0.43-0.11-0.56-0.55-0.56c-2.03,0.02-4.06,0.03-6.09,0c-0.68-0.01-0.84,0.23-0.84,0.89c0.03,3.39,0.01,6.78,0.01,10.17
		c0,1.14,0,1.14,1.1,1.14C18.15-4056.61,30.33-4056.61,42.51-4056.61z M42.52-4055.39c-11.9,0-23.8,0-35.7,0
		c-0.63,0-1.44-0.28-1.83,0.11c-0.39,0.39-0.05,1.21-0.13,1.83c-0.07,0.62,0.11,0.81,0.77,0.81c24.23-0.02,48.47-0.01,72.7-0.02
		c0.6,0,1.38,0.26,1.76-0.12s0.05-1.17,0.13-1.77c0.09-0.68-0.14-0.87-0.84-0.87C67.08-4055.38,54.8-4055.39,42.52-4055.39z
		 M13.57-4069.37c0,1.4-0.01,2.8,0,4.19c0.01,1.17,0.79,1.98,1.86,1.97c0.98-0.01,1.75-0.82,1.75-1.92c0.01-2.8,0.02-5.59,0-8.39
		c-0.01-1.16-0.77-1.94-1.82-1.92c-1.05,0.01-1.78,0.79-1.79,1.95C13.56-4072.11,13.57-4070.74,13.57-4069.37z M67.76-4070.28
		c0,1.42-0.02,2.85,0,4.27c0.02,1.16,0.76,1.93,1.81,1.92c1.06,0,1.8-0.76,1.8-1.93c0.02-2.77,0.02-5.54,0-8.31
		c-0.01-1.19-0.79-2-1.85-1.98c-1.02,0.02-1.75,0.83-1.77,1.98C67.75-4072.97,67.76-4071.63,67.76-4070.28z"/>
</g>
<g>
	<defs>
		<path id="SVGID_16_" d="M59.61-4062.13c-0.2,0.01-0.41,0-0.61,0H42.48H25.81c-0.2,0-0.4,0.01-0.61,0
			c-0.39-0.01-0.57,0.25-0.58,0.57c-0.02,0.33,0.19,0.58,0.55,0.61c0.2,0.02,0.4,0.01,0.61,0.01c10.98,0,21.97,0,32.96,0
			c0.28,0,0.56-0.02,0.83,0c0.42,0.02,0.72-0.16,0.74-0.59c0.02-0.42-0.26-0.61-0.66-0.61
			C59.64-4062.13,59.62-4062.13,59.61-4062.13"/>
	</defs>
	<clipPath id="SVGID_17_">
		<use xlink:href="#SVGID_16_"  style="overflow:visible;"/>
	</clipPath>
	
		<radialGradient id="SVGID_18_" cx="-995.764" cy="6665.582" r="1.0009" gradientTransform="matrix(12.6257 0 0 -12.6257 12614.7236 80096.3906)" gradientUnits="userSpaceOnUse">
		<stop  offset="0" style="stop-color:#FFFFFF"/>
		<stop  offset="0.0134" style="stop-color:#FFFFFF"/>
		<stop  offset="0.0453" style="stop-color:#FBFFBF"/>
		<stop  offset="0.1543" style="stop-color:#E2F0A3"/>
		<stop  offset="0.3203" style="stop-color:#C1DD80"/>
		<stop  offset="0.4883" style="stop-color:#A8CE64"/>
		<stop  offset="0.6571" style="stop-color:#95C351"/>
		<stop  offset="0.8271" style="stop-color:#8BBD45"/>
		<stop  offset="1" style="stop-color:#87BB41"/>
		<stop  offset="1" style="stop-color:#87BB41"/>
	</radialGradient>
	<rect x="24.6" y="-4062.14" class="st6" width="35.72" height="1.22"/>
</g>
<g>
	<defs>
		<rect id="SVGID_19_" x="-971.5" y="-6538" width="2002.66" height="13200"/>
	</defs>
	<clipPath id="SVGID_20_">
		<use xlink:href="#SVGID_19_"  style="overflow:visible;"/>
	</clipPath>
	<path class="st7" d="M42.48-4062.13H59c0.2,0,0.41,0.01,0.61,0c0.42-0.01,0.72,0.17,0.7,0.61c-0.02,0.43-0.31,0.61-0.73,0.59
		c-0.28-0.01-0.56,0-0.84,0c-10.99,0-21.97,0-32.96,0c-0.2,0-0.41,0.01-0.61-0.01c-0.36-0.04-0.57-0.28-0.55-0.62
		c0.01-0.32,0.2-0.58,0.59-0.57c0.2,0,0.41,0,0.61,0H42.48z"/>
</g>
<text transform="matrix(1 0 0 1.004 15.7403 -4026.2588)"><tspan x="0" y="0" class="st15 st16 st17 st18">Y</tspan><tspan x="11.14" y="0" class="st15 st16 st17 st18">E</tspan><tspan x="20.91" y="0" class="st15 st16 st17 st18">AR</tspan><tspan x="45.18" y="0" class="st15 st16 st17">S</tspan></text>
<g>
	<defs>
		<path id="SVGID_21_" d="M66.37-4110.45c0.73,0,0.84,0.22,0.84,0.88c-0.02,11.59-0.01,23.18-0.01,34.77c0,0.23,0,0.46,0,0.69
			c0,0.62-0.25,0.87-0.93,0.86c-24.41-0.02-48.82-0.01-73.22-0.01c-0.98,0-1.17-0.19-1.18-1.23c-0.01-2.57,0-5.14,0-7.71
			c0-9.15,0.01-18.29-0.01-27.44c0-0.7,0.2-0.81,0.84-0.81c12.28,0.02,24.56,0.01,36.84,0.01c4.47,0,8.93,0,13.4,0
			C50.74-4110.43,58.56-4110.43,66.37-4110.45 M-8.14-4112.44c0.08-0.63-0.26-1.45,0.13-1.83c0.27-0.27,0.76-0.22,1.24-0.16
			c0.21,0.03,0.41,0.05,0.6,0.05c11.9-0.01,23.8,0,35.7,0c12.28,0,24.56,0.01,36.84-0.02c0.7,0,0.93,0.19,0.84,0.87
			c-0.08,0.6,0.25,1.39-0.13,1.77c-0.38,0.38-1.16,0.12-1.76,0.12c-24.23,0-48.47,0-72.7,0.02
			C-8.03-4111.63-8.21-4111.82-8.14-4112.44 M2.39-4120.98c1.73-0.02,3-1.38,3.02-3.25c0.01-1.02,0.02-2.04,0-3.06
			c-0.01-0.39,0.1-0.56,0.51-0.51c0.27,0.03,0.56,0.01,0.83,0.01c15.31,0,30.61,0,45.91-0.01c0.68,0,0.95,0.14,0.88,0.86
			c-0.07,0.73-0.04,1.48,0,2.21c0.09,1.65,1.36,2.86,2.97,2.89c1.61,0.03,2.92-1.15,3.05-2.79c0.07-0.86,0.04-1.73,0.03-2.6
			c-0.01-0.42,0.1-0.57,0.55-0.57c2.16,0.02,4.32,0.02,6.47,0c0.49-0.01,0.59,0.2,0.59,0.63c-0.01,3.67-0.02,7.34,0.01,11.01
			c0.01,0.61-0.31,0.55-0.7,0.55c-6.55,0-13.1,0-19.64,0H29.51c-12.18,0-24.36,0-36.55,0c-1.09,0-1.09,0-1.09-1.14
			c0-3.39,0.02-6.78-0.01-10.17c-0.01-0.66,0.16-0.9,0.84-0.89c2.03,0.03,4.06,0.02,6.09,0c0.44-0.01,0.56,0.13,0.55,0.56
			c-0.03,1.02-0.02,2.04,0,3.06c0.03,1.86,1.32,3.21,3.02,3.21C2.37-4120.98,2.38-4120.98,2.39-4120.98 M0.57-4124.17
			c-0.01-1.4,0-2.8,0-4.19c0-1.37-0.01-2.74,0-4.12c0.01-1.16,0.74-1.93,1.79-1.95c1.04-0.01,1.81,0.76,1.82,1.92
			c0.02,2.8,0.02,5.59,0,8.39c-0.01,1.1-0.77,1.91-1.76,1.92c-0.01,0-0.02,0-0.03,0C1.34-4122.21,0.58-4123.01,0.57-4124.17
			 M54.76-4125.01c-0.02-1.42-0.01-2.84-0.01-4.27c0-1.35-0.01-2.69,0.01-4.04c0.01-1.15,0.75-1.96,1.77-1.98
			c1.06-0.03,1.84,0.78,1.84,1.98c0.01,2.77,0.01,5.54,0,8.31c-0.01,1.17-0.74,1.93-1.8,1.93
			C55.52-4123.08,54.78-4123.85,54.76-4125.01 M56.52-4136.53c-1.67,0.02-2.95,1.35-2.98,3.12c-0.02,1.09-0.01,2.19-0.01,3.29
			s0,1.1-1.06,1.1c-11.26,0-22.53,0-33.8,0c-4.19,0-8.37-0.01-12.56,0.01c-0.55,0-0.73-0.11-0.72-0.7c0.03-1.12,0.12-2.25-0.05-3.36
			c-0.25-1.64-1.58-2.68-3.23-2.57c-1.52,0.1-2.7,1.33-2.77,2.92c-0.03,0.81-0.02,1.63-0.01,2.44c0,1.25,0,1.25-1.21,1.25
			c-1.85,0-3.7-0.01-5.56,0c-1.43,0.02-1.91,0.53-1.91,1.94c0,17.53,0,35.05,0,52.58c0,1.78,0.71,2.48,2.49,2.48h36.46h35.02
			c0.71,0,1.42,0,2.13,0c0.72-0.01,1.18-0.38,1.45-1.02c0.19-0.46,0.21-0.94,0.21-1.43c0-17.55,0-35.1-0.01-52.65
			c0-1.5-0.4-1.9-1.9-1.9c-2.11,0-4.21-0.01-6.32,0.01c-0.46,0.01-0.61-0.1-0.6-0.59c0.04-1.27,0.03-2.54,0.01-3.82
			c-0.03-1.78-1.35-3.11-3.03-3.11C56.55-4136.53,56.54-4136.53,56.52-4136.53"/>
	</defs>
	<clipPath id="SVGID_22_">
		<use xlink:href="#SVGID_21_"  style="overflow:visible;"/>
	</clipPath>
	
		<radialGradient id="SVGID_23_" cx="-997.4774" cy="6667.0635" r="1" gradientTransform="matrix(35.7219 0 0 -35.7219 35661.3203 234055.9063)" gradientUnits="userSpaceOnUse">
		<stop  offset="0" style="stop-color:#FFFFFF"/>
		<stop  offset="0.0134" style="stop-color:#FFFFFF"/>
		<stop  offset="0.0453" style="stop-color:#FBFFBF"/>
		<stop  offset="0.1543" style="stop-color:#E2F0A3"/>
		<stop  offset="0.3203" style="stop-color:#C1DD80"/>
		<stop  offset="0.4883" style="stop-color:#A8CE64"/>
		<stop  offset="0.6571" style="stop-color:#95C351"/>
		<stop  offset="0.8271" style="stop-color:#8BBD45"/>
		<stop  offset="1" style="stop-color:#87BB41"/>
		<stop  offset="1" style="stop-color:#87BB41"/>
	</radialGradient>
	<rect x="-9.35" y="-4136.53" class="st8" width="77.76" height="64.51"/>
</g>
<g>
	<defs>
		<rect id="SVGID_24_" x="-984.5" y="-6597" width="2002.66" height="13200"/>
	</defs>
	<clipPath id="SVGID_25_">
		<use xlink:href="#SVGID_24_"  style="overflow:visible;"/>
	</clipPath>
	<path class="st9" d="M29.61-4072.02H-6.86c-1.78,0-2.49-0.7-2.49-2.48c0-17.53,0-35.05,0-52.58c0-1.42,0.49-1.93,1.92-1.94
		c1.85-0.02,3.7,0,5.56,0c1.21,0,1.21,0,1.21-1.25c0-0.81-0.02-1.63,0.01-2.44c0.07-1.59,1.25-2.83,2.77-2.92
		c1.65-0.11,2.98,0.93,3.23,2.57c0.17,1.11,0.08,2.24,0.05,3.36c-0.02,0.59,0.17,0.71,0.72,0.7c4.19-0.02,8.37-0.01,12.56-0.01
		c11.27,0,22.53,0,33.8,0c1.06,0,1.06,0,1.06-1.1c0-1.09-0.01-2.19,0.01-3.29c0.03-1.77,1.31-3.1,2.98-3.12
		c1.7-0.02,3.04,1.31,3.07,3.11c0.02,1.27,0.03,2.55-0.01,3.82c-0.01,0.48,0.14,0.59,0.6,0.59c2.11-0.02,4.21-0.01,6.32-0.01
		c1.5,0,1.9,0.39,1.9,1.9c0,17.55,0,35.1,0.01,52.66c0,0.48-0.02,0.97-0.21,1.43c-0.27,0.65-0.74,1.02-1.45,1.03
		c-0.71,0-1.42,0-2.13,0H29.61z M29.53-4110.43c-12.28,0-24.56,0-36.84-0.01c-0.64,0-0.84,0.11-0.84,0.81
		c0.03,9.14,0.02,18.29,0.02,27.43c0,2.57,0,5.15,0,7.72c0,1.03,0.2,1.22,1.18,1.22c24.41,0,48.82,0,73.23,0.01
		c0.68,0,0.93-0.24,0.93-0.86c0-0.23,0-0.46,0-0.69c0-11.59-0.01-23.18,0.01-34.77c0-0.66-0.12-0.89-0.84-0.89
		C54.09-4110.42,41.81-4110.43,29.53-4110.43z M29.51-4115.61h17.36c6.55,0,13.09,0,19.64,0c0.39,0,0.71,0.06,0.7-0.55
		c-0.03-3.67-0.02-7.34-0.01-11.01c0-0.44-0.09-0.64-0.59-0.63c-2.16,0.02-4.31,0.02-6.47,0c-0.45,0-0.56,0.15-0.55,0.57
		c0.02,0.87,0.04,1.74-0.03,2.6c-0.13,1.65-1.45,2.82-3.05,2.79c-1.61-0.03-2.88-1.24-2.97-2.88c-0.04-0.74-0.07-1.48,0-2.22
		c0.07-0.73-0.21-0.86-0.88-0.86c-15.3,0.02-30.61,0.01-45.91,0.01c-0.28,0-0.56,0.03-0.84,0c-0.41-0.05-0.52,0.12-0.51,0.51
		c0.02,1.02,0.01,2.04,0,3.06c-0.02,1.87-1.29,3.24-3.02,3.25c-1.72,0.01-3.02-1.34-3.05-3.21c-0.02-1.02-0.02-2.04,0-3.06
		c0.01-0.43-0.11-0.56-0.55-0.56c-2.03,0.02-4.06,0.03-6.09,0c-0.68-0.01-0.84,0.23-0.84,0.89c0.03,3.39,0.01,6.78,0.01,10.17
		c0,1.14,0,1.14,1.1,1.14C5.15-4115.61,17.33-4115.61,29.51-4115.61z M29.52-4114.39c-11.9,0-23.8,0-35.7,0
		c-0.63,0-1.44-0.28-1.83,0.11c-0.39,0.39-0.05,1.21-0.13,1.83c-0.07,0.62,0.11,0.81,0.77,0.81c24.23-0.02,48.47-0.01,72.7-0.02
		c0.6,0,1.38,0.26,1.76-0.12s0.05-1.17,0.13-1.77c0.09-0.68-0.14-0.87-0.84-0.87C54.08-4114.38,41.8-4114.39,29.52-4114.39z
		 M0.57-4128.37c0,1.4-0.01,2.8,0,4.19c0.01,1.17,0.79,1.98,1.86,1.97c0.98-0.01,1.75-0.82,1.75-1.92c0.01-2.8,0.02-5.59,0-8.39
		c-0.01-1.16-0.77-1.94-1.82-1.92c-1.05,0.01-1.78,0.79-1.79,1.95C0.56-4131.11,0.57-4129.74,0.57-4128.37z M54.76-4129.28
		c0,1.42-0.02,2.85,0,4.27c0.02,1.16,0.76,1.93,1.81,1.92c1.06,0,1.8-0.76,1.8-1.93c0.02-2.77,0.02-5.54,0-8.31
		c-0.01-1.19-0.79-2-1.85-1.98c-1.02,0.02-1.75,0.83-1.77,1.98C54.75-4131.97,54.76-4130.63,54.76-4129.28z"/>
</g>
<g>
	<defs>
		<path id="SVGID_26_" d="M46.61-4121.13c-0.2,0.01-0.41,0-0.61,0H29.48H12.81c-0.2,0-0.4,0.01-0.61,0
			c-0.39-0.01-0.57,0.25-0.58,0.57c-0.02,0.33,0.19,0.58,0.55,0.61c0.2,0.02,0.4,0.01,0.61,0.01c10.98,0,21.97,0,32.96,0
			c0.28,0,0.56-0.02,0.83,0c0.42,0.02,0.72-0.16,0.74-0.59c0.02-0.42-0.26-0.61-0.66-0.61
			C46.64-4121.13,46.62-4121.13,46.61-4121.13"/>
	</defs>
	<clipPath id="SVGID_27_">
		<use xlink:href="#SVGID_26_"  style="overflow:visible;"/>
	</clipPath>
	
		<radialGradient id="SVGID_28_" cx="-996.7937" cy="6670.2549" r="1.0009" gradientTransform="matrix(12.6257 0 0 -12.6257 12614.7236 80096.3906)" gradientUnits="userSpaceOnUse">
		<stop  offset="0" style="stop-color:#FFFFFF"/>
		<stop  offset="0.0134" style="stop-color:#FFFFFF"/>
		<stop  offset="0.0453" style="stop-color:#FBFFBF"/>
		<stop  offset="0.1543" style="stop-color:#E2F0A3"/>
		<stop  offset="0.3203" style="stop-color:#C1DD80"/>
		<stop  offset="0.4883" style="stop-color:#A8CE64"/>
		<stop  offset="0.6571" style="stop-color:#95C351"/>
		<stop  offset="0.8271" style="stop-color:#8BBD45"/>
		<stop  offset="1" style="stop-color:#87BB41"/>
		<stop  offset="1" style="stop-color:#87BB41"/>
	</radialGradient>
	<rect x="11.6" y="-4121.14" class="st10" width="35.72" height="1.22"/>
</g>
<g>
	<defs>
		<rect id="SVGID_29_" x="-984.5" y="-6597" width="2002.66" height="13200"/>
	</defs>
	<clipPath id="SVGID_30_">
		<use xlink:href="#SVGID_29_"  style="overflow:visible;"/>
	</clipPath>
	<path class="st11" d="M29.48-4121.13H46c0.2,0,0.41,0.01,0.61,0c0.42-0.01,0.72,0.17,0.7,0.61c-0.02,0.43-0.31,0.61-0.73,0.59
		c-0.28-0.01-0.56,0-0.84,0c-10.99,0-21.97,0-32.96,0c-0.2,0-0.41,0.01-0.61-0.01c-0.36-0.04-0.57-0.28-0.55-0.62
		c0.01-0.32,0.2-0.58,0.59-0.57c0.2,0,0.41,0,0.61,0H29.48z"/>
</g>
<text transform="matrix(1 0 0 1.004 2.7403 -4085.2588)"><tspan x="0" y="0" class="st15 st16 st17 st18">Y</tspan><tspan x="11.14" y="0" class="st15 st16 st17 st18">E</tspan><tspan x="20.91" y="0" class="st15 st16 st17 st18">AR</tspan><tspan x="45.18" y="0" class="st15 st16 st17">S</tspan></text>
<g>
	<defs>
		<path id="SVGID_31_" d="M82.22,35.8c0.73,0,0.84,0.22,0.84,0.88c-0.02,11.59-0.01,23.18-0.01,34.77c0,0.23,0,0.46,0,0.69
			c0,0.62-0.25,0.87-0.93,0.86c-24.41-0.02-48.82-0.01-73.22-0.01c-0.98,0-1.17-0.19-1.18-1.23c-0.01-2.57,0-5.14,0-7.71
			c0-9.15,0.01-18.29-0.01-27.44c0-0.7,0.2-0.81,0.84-0.81c12.28,0.02,24.56,0.01,36.84,0.01c4.47,0,8.93,0,13.4,0
			C66.59,35.81,74.41,35.81,82.22,35.8 M7.71,33.8c0.08-0.63-0.26-1.45,0.13-1.83c0.27-0.27,0.76-0.22,1.24-0.16
			c0.21,0.03,0.41,0.05,0.6,0.05c11.9-0.01,23.8,0,35.7,0c12.28,0,24.56,0.01,36.84-0.02c0.7,0,0.93,0.19,0.84,0.87
			c-0.08,0.6,0.25,1.39-0.13,1.77c-0.38,0.38-1.16,0.12-1.76,0.12c-24.23,0-48.47,0-72.7,0.02C7.82,34.61,7.64,34.42,7.71,33.8
			 M18.24,25.27c1.73-0.02,3-1.38,3.02-3.25c0.01-1.02,0.02-2.04,0-3.06c-0.01-0.39,0.1-0.56,0.51-0.51
			c0.27,0.03,0.56,0.01,0.83,0.01c15.31,0,30.61,0,45.91-0.01c0.68,0,0.95,0.14,0.88,0.86c-0.07,0.73-0.04,1.48,0,2.21
			c0.09,1.65,1.36,2.86,2.97,2.89c1.61,0.03,2.92-1.15,3.05-2.79c0.07-0.86,0.04-1.73,0.03-2.6c-0.01-0.42,0.1-0.57,0.55-0.57
			c2.16,0.02,4.32,0.02,6.47,0c0.49-0.01,0.59,0.2,0.59,0.63c-0.01,3.67-0.02,7.34,0.01,11.01c0.01,0.61-0.31,0.55-0.7,0.55
			c-6.55,0-13.1,0-19.64,0H45.36c-12.18,0-24.36,0-36.55,0c-1.09,0-1.09,0-1.09-1.14c0-3.39,0.02-6.78-0.01-10.17
			c-0.01-0.66,0.16-0.9,0.84-0.89c2.03,0.03,4.06,0.02,6.09,0c0.44-0.01,0.56,0.13,0.55,0.56c-0.03,1.02-0.02,2.04,0,3.06
			c0.03,1.86,1.32,3.21,3.02,3.21C18.22,25.27,18.23,25.27,18.24,25.27 M16.42,22.07c-0.01-1.4,0-2.8,0-4.19
			c0-1.37-0.01-2.74,0-4.12c0.01-1.16,0.74-1.93,1.79-1.95c1.04-0.01,1.81,0.76,1.82,1.92c0.02,2.8,0.02,5.59,0,8.39
			c-0.01,1.1-0.77,1.91-1.76,1.92c-0.01,0-0.02,0-0.03,0C17.19,24.04,16.43,23.23,16.42,22.07 M70.61,21.23
			c-0.02-1.42-0.01-2.84-0.01-4.27c0-1.35-0.01-2.69,0.01-4.04c0.01-1.15,0.75-1.96,1.77-1.98c1.06-0.03,1.84,0.78,1.84,1.98
			c0.01,2.77,0.01,5.54,0,8.31c-0.01,1.17-0.74,1.93-1.8,1.93C71.37,23.16,70.63,22.39,70.61,21.23 M72.37,9.71
			c-1.67,0.02-2.95,1.35-2.98,3.12c-0.02,1.09-0.01,2.19-0.01,3.29s0,1.1-1.06,1.1c-11.26,0-22.53,0-33.8,0
			c-4.19,0-8.37-0.01-12.56,0.01c-0.55,0-0.73-0.11-0.72-0.7c0.03-1.12,0.12-2.25-0.05-3.36c-0.25-1.64-1.58-2.68-3.23-2.57
			c-1.52,0.1-2.7,1.33-2.77,2.92c-0.03,0.81-0.02,1.63-0.01,2.44c0,1.25,0,1.25-1.21,1.25c-1.85,0-3.7-0.01-5.56,0
			c-1.43,0.02-1.91,0.53-1.91,1.94c0,17.53,0,35.05,0,52.58c0,1.78,0.71,2.48,2.49,2.48h36.46h35.02c0.71,0,1.42,0,2.13,0
			c0.72-0.01,1.18-0.38,1.45-1.02c0.19-0.46,0.21-0.94,0.21-1.43c0-17.55,0-35.1-0.01-52.65c0-1.5-0.4-1.9-1.9-1.9
			c-2.11,0-4.21-0.01-6.32,0.01c-0.46,0.01-0.61-0.1-0.6-0.59c0.04-1.27,0.03-2.54,0.01-3.82c-0.03-1.78-1.35-3.11-3.03-3.11
			C72.4,9.71,72.39,9.71,72.37,9.71"/>
	</defs>
	<clipPath id="SVGID_32_">
		<use xlink:href="#SVGID_31_"  style="overflow:visible;"/>
	</clipPath>
	
		<radialGradient id="SVGID_33_" cx="-997.0337" cy="6550.9937" r="1" gradientTransform="matrix(35.7219 0 0 -35.7219 35661.3203 234055.9063)" gradientUnits="userSpaceOnUse">
		<stop  offset="0" style="stop-color:#FFFFFF"/>
		<stop  offset="0.0134" style="stop-color:#FFFFFF"/>
		<stop  offset="0.0453" style="stop-color:#FBFFBF"/>
		<stop  offset="0.1543" style="stop-color:#E2F0A3"/>
		<stop  offset="0.3203" style="stop-color:#C1DD80"/>
		<stop  offset="0.4883" style="stop-color:#A8CE64"/>
		<stop  offset="0.6571" style="stop-color:#95C351"/>
		<stop  offset="0.8271" style="stop-color:#8BBD45"/>
		<stop  offset="1" style="stop-color:#87BB41"/>
		<stop  offset="1" style="stop-color:#87BB41"/>
	</radialGradient>
	<rect x="6.5" y="9.71" class="st12" width="77.76" height="64.51"/>
</g>
<path class="st13" d="M45.45,74.22H8.99c-1.78,0-2.49-0.7-2.49-2.48c0-17.53,0-35.05,0-52.58c0-1.42,0.49-1.93,1.92-1.94
	c1.85-0.02,3.7,0,5.56,0c1.21,0,1.21,0,1.21-1.25c0-0.81-0.02-1.63,0.01-2.44c0.07-1.59,1.25-2.83,2.77-2.92
	c1.65-0.11,2.98,0.93,3.23,2.57c0.17,1.11,0.08,2.24,0.05,3.36c-0.02,0.59,0.17,0.71,0.72,0.7c4.19-0.02,8.37-0.01,12.56-0.01
	c11.27,0,22.53,0,33.8,0c1.06,0,1.06,0,1.06-1.1c0-1.09-0.01-2.19,0.01-3.29c0.03-1.77,1.31-3.1,2.98-3.12
	c1.7-0.02,3.04,1.31,3.07,3.11c0.02,1.27,0.03,2.55-0.01,3.82c-0.01,0.48,0.14,0.59,0.6,0.59c2.11-0.02,4.21-0.01,6.32-0.01
	c1.5,0,1.9,0.39,1.9,1.9c0,17.55,0,35.1,0.01,52.66c0,0.48-0.02,0.97-0.21,1.43c-0.27,0.65-0.74,1.02-1.45,1.03
	c-0.71,0-1.42,0-2.13,0H45.45z M45.38,35.82c-12.28,0-24.56,0-36.84-0.01c-0.64,0-0.84,0.11-0.84,0.81
	c0.03,9.14,0.02,18.29,0.02,27.43c0,2.57,0,5.15,0,7.72c0,1.03,0.2,1.22,1.18,1.22c24.41,0,48.82,0,73.23,0.01
	c0.68,0,0.93-0.24,0.93-0.86c0-0.23,0-0.46,0-0.69c0-11.59-0.01-23.18,0.01-34.77c0-0.66-0.12-0.89-0.84-0.89
	C69.94,35.82,57.66,35.81,45.38,35.82z M45.36,30.63h17.36c6.55,0,13.09,0,19.64,0c0.39,0,0.71,0.06,0.7-0.55
	c-0.03-3.67-0.02-7.34-0.01-11.01c0-0.44-0.09-0.64-0.59-0.63c-2.16,0.02-4.31,0.02-6.47,0c-0.45,0-0.56,0.15-0.55,0.57
	c0.02,0.87,0.04,1.74-0.03,2.6c-0.13,1.65-1.45,2.82-3.05,2.79c-1.61-0.03-2.88-1.24-2.97-2.88c-0.04-0.74-0.07-1.48,0-2.22
	c0.07-0.73-0.21-0.86-0.88-0.86c-15.3,0.02-30.61,0.01-45.91,0.01c-0.28,0-0.56,0.03-0.84,0c-0.41-0.05-0.52,0.12-0.51,0.51
	c0.02,1.02,0.01,2.04,0,3.06c-0.02,1.87-1.29,3.24-3.02,3.25c-1.72,0.01-3.02-1.34-3.05-3.21c-0.02-1.02-0.02-2.04,0-3.06
	c0.01-0.43-0.11-0.56-0.55-0.56c-2.03,0.02-4.06,0.03-6.09,0c-0.68-0.01-0.84,0.23-0.84,0.89c0.03,3.39,0.01,6.78,0.01,10.17
	c0,1.14,0,1.14,1.1,1.14C21,30.63,33.18,30.63,45.36,30.63z M45.37,31.85c-11.9,0-23.8,0-35.7,0c-0.63,0-1.44-0.28-1.83,0.11
	c-0.39,0.39-0.05,1.21-0.13,1.83c-0.07,0.62,0.11,0.81,0.77,0.81c24.23-0.02,48.47-0.01,72.7-0.02c0.6,0,1.38,0.26,1.76-0.12
	s0.05-1.17,0.13-1.77c0.09-0.68-0.14-0.87-0.84-0.87C69.93,31.86,57.65,31.86,45.37,31.85z M16.41,17.88c0,1.4-0.01,2.8,0,4.19
	c0.01,1.17,0.79,1.98,1.86,1.97c0.98-0.01,1.75-0.82,1.75-1.92c0.01-2.8,0.02-5.59,0-8.39c-0.01-1.16-0.77-1.94-1.82-1.92
	c-1.05,0.01-1.78,0.79-1.79,1.95C16.41,15.13,16.42,16.5,16.41,17.88z M70.61,16.96c0,1.42-0.02,2.85,0,4.27
	c0.02,1.16,0.76,1.93,1.81,1.92c1.06,0,1.8-0.76,1.8-1.93c0.02-2.77,0.02-5.54,0-8.31c-0.01-1.19-0.79-2-1.85-1.98
	c-1.02,0.02-1.75,0.83-1.77,1.98C70.59,14.27,70.61,15.62,70.61,16.96z"/>
<g>
	<defs>
		<path id="SVGID_34_" d="M62.46,25.11c-0.2,0.01-0.41,0-0.61,0H45.33H28.66c-0.2,0-0.4,0.01-0.61,0c-0.39-0.01-0.57,0.25-0.58,0.57
			c-0.02,0.33,0.19,0.58,0.55,0.61c0.2,0.02,0.4,0.01,0.61,0.01c10.98,0,21.97,0,32.96,0c0.28,0,0.56-0.02,0.83,0
			c0.42,0.02,0.72-0.16,0.74-0.59c0.02-0.42-0.26-0.61-0.66-0.61C62.49,25.11,62.47,25.11,62.46,25.11"/>
	</defs>
	<clipPath id="SVGID_35_">
		<use xlink:href="#SVGID_34_"  style="overflow:visible;"/>
	</clipPath>
	
		<radialGradient id="SVGID_36_" cx="-995.5384" cy="6341.8589" r="1.0009" gradientTransform="matrix(12.6257 0 0 -12.6257 12614.7236 80096.3906)" gradientUnits="userSpaceOnUse">
		<stop  offset="0" style="stop-color:#FFFFFF"/>
		<stop  offset="0.0134" style="stop-color:#FFFFFF"/>
		<stop  offset="0.0453" style="stop-color:#FBFFBF"/>
		<stop  offset="0.1543" style="stop-color:#E2F0A3"/>
		<stop  offset="0.3203" style="stop-color:#C1DD80"/>
		<stop  offset="0.4883" style="stop-color:#A8CE64"/>
		<stop  offset="0.6571" style="stop-color:#95C351"/>
		<stop  offset="0.8271" style="stop-color:#8BBD45"/>
		<stop  offset="1" style="stop-color:#87BB41"/>
		<stop  offset="1" style="stop-color:#87BB41"/>
	</radialGradient>
	<rect x="27.45" y="25.11" class="st14" width="35.72" height="1.22"/>
</g>
<path class="st13" d="M45.33,25.11h16.52c0.2,0,0.41,0.01,0.61,0c0.42-0.01,0.72,0.17,0.7,0.61c-0.02,0.43-0.31,0.61-0.73,0.59
	c-0.28-0.01-0.56,0-0.84,0c-10.99,0-21.97,0-32.96,0c-0.2,0-0.41,0.01-0.61-0.01c-0.36-0.04-0.57-0.28-0.55-0.62
	c0.01-0.32,0.2-0.58,0.59-0.57c0.2,0,0.41,0,0.61,0H45.33z"/>
<text transform="matrix(1 0 0 1.004 18.5895 60.9844)"><tspan x="0" y="0" class="st15 st16 st17 st18">Y</tspan><tspan x="11.14" y="0" class="st15 st16 st17 st18">E</tspan><tspan x="20.91" y="0" class="st15 st16 st17 st18">AR</tspan><tspan x="45.18" y="0" class="st15 st16 st17">S</tspan></text>
</svg>
